<svg xmlns="http://www.w3.org/2000/svg" viewBox="0 0 340.7 271.3"><defs><style>.prefix__a31df420-b6b4-4840-b1c2-10911e8c179b,.prefix__f09a9af3-0782-43fb-b887-a03195b69b4f{fill:#fff}.prefix__a8c78a02-3504-4bad-a3ac-57c5335d4cf3{fill:none;stroke-miterlimit:10;stroke:#fff;stroke-width:.5px}.prefix__a31df420-b6b4-4840-b1c2-10911e8c179b{fill-rule:evenodd}.prefix__bd69771d-5e64-4fd8-8f9f-d3c58fc0f7dd{fill:#fefefe}</style></defs><g id="prefix__b8695da0-3b43-4300-a2d2-a76fbde0cf47" data-name="PRECIOS"><path d="M121.2 71a3.9 3.9 0 0 1-3.6 4.2v5.6a4.2 4.2 0 0 1 0 8.2v5.6a4.2 4.2 0 0 1 0 8.3v5.6a4.2 4.2 0 0 1 0 8.2v5.6a3.8 3.8 0 0 1 3.6 4h25.3c0-4 2.8-7.3 6.2-7.3V64.4c-3.4 0-6.2-3.2-6.2-7.2h-25.3a3.9 3.9 0 0 1-3.6 4.1V67a3.9 3.9 0 0 1 3.6 4.2Z" fill="#00b65d"/><path class="prefix__f09a9af3-0782-43fb-b887-a03195b69b4f" transform="rotate(-90 130.3 116.2)" d="M129.7 109.1H131V123.3H129.7z"/><path class="prefix__f09a9af3-0782-43fb-b887-a03195b69b4f" transform="rotate(-90 130.3 107.4)" d="M128.9 100.3H131.8V114.5H128.9z"/><path class="prefix__f09a9af3-0782-43fb-b887-a03195b69b4f" transform="rotate(-90 130.3 110.6)" d="M129.9 103.5H130.8V117.7H129.9z"/><path class="prefix__f09a9af3-0782-43fb-b887-a03195b69b4f" transform="rotate(-90 130.3 93)" d="M129.5 85.8H131.2V100H129.5z"/><path class="prefix__f09a9af3-0782-43fb-b887-a03195b69b4f" transform="rotate(-90 130.3 99.7)" d="M129.9 92.5H130.8V106.7H129.9z"/><path class="prefix__f09a9af3-0782-43fb-b887-a03195b69b4f" transform="rotate(-90 130.3 113.3)" d="M129.2 106.2H131.5V120.4H129.2z"/><path class="prefix__f09a9af3-0782-43fb-b887-a03195b69b4f" transform="rotate(-90 130.3 103)" d="M128.5 95.9H132.1V110.1H128.5z"/><path class="prefix__f09a9af3-0782-43fb-b887-a03195b69b4f" transform="rotate(-90 130.3 96.3)" d="M128.8 89.3H131.8V103.5H128.8z"/><path class="prefix__f09a9af3-0782-43fb-b887-a03195b69b4f" transform="rotate(-90 130.3 90.4)" d="M129.7 83.3H131V97.5H129.7z"/><path class="prefix__f09a9af3-0782-43fb-b887-a03195b69b4f" transform="rotate(-90 130.3 81.6)" d="M128.9 74.5H131.8V88.7H128.9z"/><path class="prefix__f09a9af3-0782-43fb-b887-a03195b69b4f" transform="rotate(-90 130.3 84.8)" d="M129.9 77.7H130.8V91.9H129.9z"/><path class="prefix__f09a9af3-0782-43fb-b887-a03195b69b4f" transform="rotate(-90 130.3 67.1)" d="M129.5 60H131.2V74.2H129.5z"/><path class="prefix__f09a9af3-0782-43fb-b887-a03195b69b4f" transform="rotate(-90 130.3 73.8)" d="M129.9 66.8H130.8V81H129.9z"/><path class="prefix__f09a9af3-0782-43fb-b887-a03195b69b4f" transform="rotate(-90 130.3 87.5)" d="M129.2 80.4H131.5V94.6H129.2z"/><path class="prefix__f09a9af3-0782-43fb-b887-a03195b69b4f" transform="rotate(-90 130.3 77.2)" d="M128.5 70.1H132.1V84.3H128.5z"/><path class="prefix__f09a9af3-0782-43fb-b887-a03195b69b4f" transform="rotate(-90 130.3 70.5)" d="M128.8 63.5H131.8V77.7H128.8z"/><path class="prefix__f09a9af3-0782-43fb-b887-a03195b69b4f" d="M140.6 95.7h1.7v2.8h-1a2.6 2.6 0 0 0-.2 1 2.5 2.5 0 0 0 .2.7h2l.3-3.7a1.4 1.4 0 0 1 .1-.7.5.5 0 0 1 .4-.1h5.8c.3 0 .5.7.6 2.2h1.1v2.9h-1c-.1 1.5-.4 2.3-.8 2.3h-3.2v-2.8h2.6a2.3 2.3 0 0 0 .2-.9 2.4 2.4 0 0 0-.2-.9H145l-.4 3.8c0 .5-.2.7-.5.8h-3.4c-.3-.1-.6-.9-.7-2.3h-1.1V98h1c.2-1.6.4-2.3.8-2.3ZM140 92.2v-2.9h10.2v2.9h-8.1v1.6ZM140 85.5V82a2.7 2.7 0 0 1 .3-1.3c.2-.3.4-.5.6-.5h8.4c.3 0 .5.2.7.5a2.8 2.8 0 0 1 .3 1.3v3.6a2.8 2.8 0 0 1-.3 1.3q-.3.5-.7.5H141q-.4 0-.6-.5a2.8 2.8 0 0 1-.3-1.4Zm1-.8h8.2v-1.9H141Z"/><path d="M209.3 102.6a2 2 0 0 1-1.9 2v2.7a2 2 0 0 1 0 4v2.6a2 2 0 0 1 0 4v2.7a2 2 0 0 1 0 4v2.7a1.9 1.9 0 0 1 1.8 1.9h13a3.3 3.3 0 0 1 3.1-3.5V99.4a3.3 3.3 0 0 1-3.2-3.5h-12.8a2 2 0 0 1-1.9 2v2.7a2 2 0 0 1 1.8 2Z" fill="#dc3545"/><path class="prefix__a8c78a02-3504-4bad-a3ac-57c5335d4cf3" d="M222.1 96h-12.8a1.8 1.8 0 1 1-3.7 0h-36.8a3.3 3.3 0 0 1-3.2 3.4v26.2a3.3 3.3 0 0 1 3.2 3.5h36.8a1.8 1.8 0 1 1 3.6 0h13a3.3 3.3 0 0 1 3.1-3.5V99.4a3.3 3.3 0 0 1-3.2-3.5Zm-14.7 28.5a2 2 0 1 1 1.8-2 2 2 0 0 1-1.8 2Zm0-6.6a2 2 0 1 1 1.8-2 2 2 0 0 1-1.8 2Zm0-6.7a2 2 0 1 1 1.8-2 2 2 0 0 1-1.8 2Zm0-6.6a2 2 0 1 1 1.8-2 2 2 0 0 1-1.8 2Z"/><path class="prefix__f09a9af3-0782-43fb-b887-a03195b69b4f" d="M173 110.6h-2.6a.7.7 0 0 1-.7-.7v-7.5c0-.3.2-.4.6-.4h3.5v1.2h-2.5v1.3h1.8c.4 0 .7.2.7.5v5c0 .4-.2.6-.7.6Zm-1.7-1.3h.9v-3.5h-.9ZM178 102h1.6v6.6h1.1V102h1.6v8.6h-1.6v-1l-1.1.1v1H178ZM184.2 102h2a1.1 1.1 0 0 1 .7.2.7.7 0 0 1 .3.6v7a.7.7 0 0 1-.3.6 1.2 1.2 0 0 1-.7.2h-2a1.1 1.1 0 0 1-.7-.2.7.7 0 0 1-.3-.6v-7a.7.7 0 0 1 .3-.6 1.1 1.1 0 0 1 .7-.2Zm.5.9v6.8h1V103ZM188 102h2.8a1 1 0 0 1 1 .8 20.3 20.3 0 0 1 .3 4.7 1 1 0 0 1-.8 1h-.1l1.2 2-1.5.7-1.2-2.1v1.4H188Zm1.6 1.5v4l.6-.2c.2 0 .3-.2.3-.4a14 14 0 0 0 0-1.6 7.5 7.5 0 0 0-.3-1.6l-.4-.3ZM194 102h2.3l1.5 8.6h-1.3l-.1-.6h-1.7v.6H193Zm2.2 6.8-.8-4.7-.6 4.8ZM202.6 102.4v1.5H201v-.9a1.3 1.3 0 0 0-.5-.1 1.1 1.1 0 0 0-.5.1v1.6l2.2.3a.6.6 0 0 1 .3.2.6.6 0 0 1 .1.3v4.8c0 .3-.3.4-.9.5a6.1 6.1 0 0 1-1.2.1 5.7 5.7 0 0 1-1.2 0c-.6-.2-.9-.3-.9-.6v-2.7h1.6v2.2a1.2 1.2 0 0 0 .5.1 1.3 1.3 0 0 0 .5-.1V106l-2.2-.3c-.3 0-.4-.2-.4-.4v-2.9c0-.2.3-.4.9-.5a6.1 6.1 0 0 1 1.2-.2 5 5 0 0 1 1.4.2c.4.1.7.3.7.5ZM201.6 123.3h-31.2a2.8 2.8 0 0 0-2.8-2.8v-4.2a2.8 2.8 0 0 0 2.8-2.8h31.2a2.8 2.8 0 0 0 2.8 2.8v4.2a2.8 2.8 0 0 0-2.8 2.8Zm-30.1-7.2h.6a.2.2 0 0 0 .1-.2v-.2H170a.2.2 0 0 0 0 .2.3.3 0 0 0 0 .1v.1h.6a.5.5 0 0 1 0 .2v4.3a1.1 1.1 0 0 0 .2.5l.2.2a.3.3 0 0 0 .3-.2 1.2 1.2 0 0 0 .1-.5v-4.3a.3.3 0 0 1 .1-.2Zm1.8-.3a.3.3 0 0 0-.2-.1.4.4 0 0 0-.3.1.7.7 0 0 0-.1.5v4.2a1.1 1.1 0 0 0 .1.6.3.3 0 0 0 .3.2l.3-.3a1.2 1.2 0 0 0 0-.5v-4.2a.7.7 0 0 0 0-.5Zm2.3 2.9a.3.3 0 0 0 0-.2.2.2 0 0 0 0-.1h-.7l-.1-.3V116.2h.7a.1.1 0 0 0 .1 0 .2.2 0 0 0 0-.2.3.3 0 0 0 0-.1h-1.3a.3.3 0 0 0-.2.1 1 1 0 0 0-.2.5v4.3a.7.7 0 0 0 .2.4.5.5 0 0 0 .3.2h1.3a.1.1 0 0 0 .2 0 .3.3 0 0 0 0-.2c0-.1 0-.2-.2-.2h-.6a.4.4 0 0 1-.2-.2.7.7 0 0 1-.2-.4V119a.1.1 0 0 1 .1-.2h.7a.1.1 0 0 0 .1-.1Zm.7 2.5h.1l.1-.2v-2.2a.3.3 0 0 1 0-.1.1.1 0 0 1 .1-.1c.1 0 .2 0 .2.2l.5 2.1v.2a.2.2 0 0 0 0 .1c.1 0 .2 0 .2-.2l.5-2.3c0-.2 0-.3.2-.3v2.2a.9.9 0 0 0 .2.5.3.3 0 0 0 .2.1.3.3 0 0 0 .3-.1.8.8 0 0 0 .1-.5v-4.3a.8.8 0 0 0-.1-.4.3.3 0 0 0-.3-.2c-.2 0-.3.2-.4.6l-.5 2.2-.1.3c-.1 0-.2 0-.2-.2l-.5-2.4c-.1-.3-.2-.5-.4-.5-.3 0-.4.2-.4.6v4.7a.4.4 0 0 0 .2.2Zm3.7-5.2a1.2 1.2 0 0 0-.3.8v3.5a.8.8 0 0 1 0 .1 2 2 0 0 0 .1.6.4.4 0 0 0 .3.3.3.3 0 0 0 .3-.2.8.8 0 0 0 0-.4v-1h.3a.8.8 0 0 0 .5-.3 1 1 0 0 0 .3-.8v-2c0-.5-.3-.8-1-.8a.8.8 0 0 0-.5.2Zm.4.1a.3.3 0 0 1 .2.2 1 1 0 0 1 .2.6v1.7a.7.7 0 0 1-.2.4.3.3 0 0 1-.2.2l-.3-.2a.8.8 0 0 1-.1-.4v-1.8a.8.8 0 0 1 .1-.5.3.3 0 0 1 .3-.1Zm1.6 4.7a.9.9 0 0 0 .4.4.7.7 0 0 0 .4 0 .8.8 0 0 0 .7-.3 1.6 1.6 0 0 0 .2-.8v-3.3a1.7 1.7 0 0 0-.1-.6 1 1 0 0 0-.4-.4.8.8 0 0 0-.4-.1 1 1 0 0 0-.6.3.8.8 0 0 0-.3.6v3.5a1.5 1.5 0 0 0 .1.7Zm1.4-.2a.4.4 0 0 1-.3.2.3.3 0 0 1-.3-.2 1 1 0 0 1-.1-.5V117a1 1 0 0 1 0-.5.3.3 0 0 1 .4-.2.3.3 0 0 1 .2.2 1.4 1.4 0 0 1 .1.6v3a1.4 1.4 0 0 1 0 .6Zm2.3-4.6a1.2 1.2 0 0 0-.2.8v3.5a.8.8 0 0 1 0 .2 1.7 1.7 0 0 0 0 .5.4.4 0 0 0 .4.3l.2-.2a.8.8 0 0 0 .1-.4v-1h.2a.8.8 0 0 0 .6-.3 1 1 0 0 0 .2-.8v-2c0-.5-.3-.8-.9-.8a.8.8 0 0 0-.6.2Zm.4.2a.3.3 0 0 1 .3.1 1.2 1.2 0 0 1 0 .6v1.7a.7.7 0 0 1 0 .4.3.3 0 0 1-.3.2.3.3 0 0 1-.3-.2.7.7 0 0 1 0-.4v-1.8a.7.7 0 0 1 0-.5.3.3 0 0 1 .3-.1Zm1.6 4.5a.5.5 0 0 1 0 .2 1.1 1.1 0 0 0 0 .2l.1.2a.2.2 0 0 0 0-.2.8.8 0 0 0 0-.1l.2-.7.2-.2h.8c.1 0 .2 0 .2.3l.1.5q.1.4.4.4a.3.3 0 0 0 .3-.2.6.6 0 0 0 0-.4 1.8 1.8 0 0 0 0-.5l-1-4.2-.1-.3a.1.1 0 0 0-.1 0 1.2 1.2 0 0 0-.1.3l-1 4.6a.3.3 0 0 1 0 .1Zm1-2.6a1.3 1.3 0 0 1 0 .3l.3.9a.3.3 0 0 1 0 .2s0 .1-.1.1h-.6v-.2a.4.4 0 0 0 0-.1l.1-1c0-.2.1-.3.2-.3Zm2.1 3a.8.8 0 0 0 .6.2.9.9 0 0 0 .6-.3 1 1 0 0 0 .3-.8V116a.7.7 0 0 0 0-.3q-.2 0-.2.2v4.3a.7.7 0 0 1-.1.4.3.3 0 0 1-.3.2.3.3 0 0 1-.2-.2.9.9 0 0 1-.1-.5v-3.7a1.1 1.1 0 0 0-.2-.5c0-.2-.1-.2-.2-.2a.3.3 0 0 0-.3.2 1 1 0 0 0-.1.5v3.9a.9.9 0 0 0 .2.7Zm3.2-3.4a.3.3 0 0 0 .5 0 .8.8 0 0 0 .1-.4v-.6a.9.9 0 0 0-.3-.7 1 1 0 0 0-.6-.3.9.9 0 0 0-.4.2 1.1 1.1 0 0 0-.4.3 1.3 1.3 0 0 0-.1.7v.9a1.2 1.2 0 0 0 .4 1l.9.8a.8.8 0 0 1 .3.5v.3a.6.6 0 0 1-.1.3.3.3 0 0 1-.3.2.3.3 0 0 1-.3-.2.6.6 0 0 1-.1-.3v-.5a1 1 0 0 0-.1-.5.3.3 0 0 0-.3-.2.3.3 0 0 0-.3.2.6.6 0 0 0 0 .4v.8a.7.7 0 0 0 .2.6.8.8 0 0 0 .5.2h.1a1 1 0 0 0 .6-.3 1 1 0 0 0 .3-.7v-1.1a1.2 1.2 0 0 0-.3-.9l-1-.8a.9.9 0 0 1-.3-.6.8.8 0 0 1 .2-.4.4.4 0 0 1 .3-.2.3.3 0 0 1 .2.1.8.8 0 0 1 .2.5v.5a.5.5 0 0 0 .1.2Zm1 3v.2a1 1 0 0 0 0 .2c0 .1 0 .2.2.2a.2.2 0 0 0 .1-.2 1 1 0 0 1 0-.1l.2-.7.1-.2h.9l.2.3v.5q.2.4.4.4a.3.3 0 0 0 .3-.2.6.6 0 0 0 .1-.4 2.5 2.5 0 0 0 0-.5l-1-4.2c0-.2-.1-.3-.2-.3a2.4 2.4 0 0 0-.2.3l-1 4.7Zm1-2.6.1.1a.7.7 0 0 1 0 .2l.3 1a.3.3 0 0 1 0 .2s0 0-.1 0h-.6a.8.8 0 0 1 0-.2.2.2 0 0 0 0-.1l.1-1c0-.2.1-.3.2-.3Zm3.3 3.2h.1a.3.3 0 0 0 .3-.2.8.8 0 0 0 .2-.4V117a1.3 1.3 0 0 0-.2-.8 1 1 0 0 0-.5-.4 1.3 1.3 0 0 0-.3 0 .8.8 0 0 0-.4 0 1 1 0 0 0-.4.5 1.2 1.2 0 0 0-.1.5v4.5Zm-1-5a.4.4 0 0 1 .3 0 .4.4 0 0 1 .4.1.9.9 0 0 1 0 .5v3.2a1.3 1.3 0 0 1 0 .6l-.3.2h-.4v-4.2a.4.4 0 0 1 0-.4Zm2 4.5a.9.9 0 0 0 .4.4.7.7 0 0 0 .4 0 .8.8 0 0 0 .7-.2 1.6 1.6 0 0 0 .2-.9V117a1.7 1.7 0 0 0-.1-.7 1 1 0 0 0-.3-.4.8.8 0 0 0-.5 0 1 1 0 0 0-.6.2.8.8 0 0 0-.2.6v3.5a1.5 1.5 0 0 0 0 .7Zm1.4-.2a.4.4 0 0 1-.2.2.3.3 0 0 1-.3-.2 1 1 0 0 1-.1-.5V117a1 1 0 0 1 0-.5.3.3 0 0 1 .3-.2.3.3 0 0 1 .3.2 1.5 1.5 0 0 1 .1.6v3.1a1.4 1.4 0 0 1-.1.5Z"/><path class="prefix__f09a9af3-0782-43fb-b887-a03195b69b4f" transform="rotate(-90 213.9 124.2)" d="M213.6 120.6H214.2V127.8H213.6z"/><path class="prefix__f09a9af3-0782-43fb-b887-a03195b69b4f" transform="rotate(-90 213.9 120)" d="M213.2 116.4H214.6V123.6H213.2z"/><path class="prefix__f09a9af3-0782-43fb-b887-a03195b69b4f" transform="rotate(-90 213.9 121.6)" d="M213.7 118H214.1V125.2H213.7z"/><path class="prefix__f09a9af3-0782-43fb-b887-a03195b69b4f" transform="rotate(-90 213.9 113)" d="M213.5 109.5H214.3V116.7H213.5z"/><path class="prefix__f09a9af3-0782-43fb-b887-a03195b69b4f" transform="rotate(-90 213.9 116.3)" d="M213.7 112.7H214.1V119.9H213.7z"/><path class="prefix__f09a9af3-0782-43fb-b887-a03195b69b4f" transform="rotate(-90 213.9 122.8)" d="M213.4 119.2H214.5V126.4H213.4z"/><path class="prefix__f09a9af3-0782-43fb-b887-a03195b69b4f" transform="rotate(-90 213.9 118)" d="M213 114.3H214.7V121.5H213z"/><path class="prefix__f09a9af3-0782-43fb-b887-a03195b69b4f" transform="rotate(-90 213.9 114.7)" d="M213.2 111.1H214.6V118.3H213.2z"/><path class="prefix__f09a9af3-0782-43fb-b887-a03195b69b4f" transform="rotate(-90 213.9 111.9)" d="M213.6 108.2H214.2V115.4H213.6z"/><path class="prefix__f09a9af3-0782-43fb-b887-a03195b69b4f" transform="rotate(-90 213.9 107.6)" d="M213.2 104H214.6V111.2H213.2z"/><path class="prefix__f09a9af3-0782-43fb-b887-a03195b69b4f" transform="rotate(-90 213.9 109.2)" d="M213.7 105.6H214.1V112.8H213.7z"/><path class="prefix__f09a9af3-0782-43fb-b887-a03195b69b4f" transform="rotate(-90 213.9 100.7)" d="M213.5 97.1H214.3V104.3H213.5z"/><path class="prefix__f09a9af3-0782-43fb-b887-a03195b69b4f" transform="rotate(-90 213.9 104)" d="M213.7 100.3H214.1V107.5H213.7z"/><path class="prefix__f09a9af3-0782-43fb-b887-a03195b69b4f" transform="rotate(-90 213.9 110.5)" d="M213.4 106.8H214.5V114H213.4z"/><path class="prefix__f09a9af3-0782-43fb-b887-a03195b69b4f" transform="rotate(-90 213.9 105.5)" d="M213 101.9H214.7V109.1H213z"/><path class="prefix__f09a9af3-0782-43fb-b887-a03195b69b4f" transform="rotate(-90 213.9 102.3)" d="M213.2 98.7H214.6V105.9H213.2z"/><path class="prefix__a8c78a02-3504-4bad-a3ac-57c5335d4cf3" d="M169.4 99.8 202.7 99.8"/><path class="prefix__a8c78a02-3504-4bad-a3ac-57c5335d4cf3" d="M171.6 98.3 200.5 98.3"/><path class="prefix__a8c78a02-3504-4bad-a3ac-57c5335d4cf3" d="M202.7 125.2 169.4 125.2"/><path class="prefix__a8c78a02-3504-4bad-a3ac-57c5335d4cf3" d="M200.5 126.7 171.6 126.7"/><path class="prefix__f09a9af3-0782-43fb-b887-a03195b69b4f" d="M219.1 114.4h.9v1.4h-.6a1.5 1.5 0 0 0 0 .4 1.5 1.5 0 0 0 0 .4h1l.2-1.8a.7.7 0 0 1 .1-.3.3.3 0 0 1 .2-.1h3q.2 0 .3 1h.5v1.5h-.5c0 .7-.2 1-.4 1h-1.7v-1.3h1.4a1.2 1.2 0 0 0 0-.4 1.2 1.2 0 0 0 0-.4h-2.2l-.2 1.8c0 .2-.1.3-.3.3h-1.7c-.2 0-.3-.4-.4-1h-.5v-1.4h.5c.1-.7.2-1.1.4-1.1ZM221.1 110v2.2h2.2V110h.8v3.4h-3.4c-.2 0-.3-.2-.3-.5v-1.6h-.8v2.1h-.8v-2.7c0-.5.2-.7.5-.7ZM218.8 108.5v-1.7a1.3 1.3 0 0 1 .2-.6c0-.2.2-.3.3-.3h4.3l.3.3a1.3 1.3 0 0 1 .2.6v1.7a1.3 1.3 0 0 1-.2.6.4.4 0 0 1-.3.3h-4.3a.4.4 0 0 1-.3-.3 1.3 1.3 0 0 1-.2-.6Zm.6-.4h4.1v-.9h-4.1Z"/><path d="M210.6 61.3a2 2 0 0 1-1.9 2V66a2 2 0 0 1 0 4v2.7a2 2 0 0 1 0 4v2.7a2 2 0 0 1 0 4V86a2 2 0 0 1 1.9 1.9h12.9a3.3 3.3 0 0 1 3.1-3.5V58.1a3.3 3.3 0 0 1-3.1-3.5h-13a2 2 0 0 1-1.8 2v2.7a2 2 0 0 1 1.9 2Z" fill="#174c8a"/><path class="prefix__a8c78a02-3504-4bad-a3ac-57c5335d4cf3" d="M223.5 54.6h-13a1.8 1.8 0 1 1-3.6 0h-36.8a3.4 3.4 0 0 1-3.2 3.5v26.3a3.3 3.3 0 0 1 3.2 3.5H207a1.8 1.8 0 1 1 3.7 0h12.9a3.3 3.3 0 0 1 3.1-3.5V58.1a3.3 3.3 0 0 1-3.1-3.5Zm-14.8 28.7a2 2 0 1 1 1.9-2 2 2 0 0 1-1.9 2Zm0-6.7a2 2 0 1 1 1.9-2 2 2 0 0 1-1.9 2Zm0-6.6a2 2 0 1 1 1.9-2 2 2 0 0 1-1.9 2Zm0-6.7a2 2 0 1 1 1.9-2 2 2 0 0 1-1.9 2Z"/><path class="prefix__f09a9af3-0782-43fb-b887-a03195b69b4f" d="M170.2 61.3h1.6v8.6h-1.6v-6.8h-1ZM177 65.1h-2.5v3.6h2.5V70h-4v-5.6c0-.3.2-.5.6-.5h1.8v-1.4h-2.5v-1.2h3.2q.9 0 .9.8ZM181 61.3h1.7v6.6h1v-6.6h1.7v8.6h-1.6V69h-1.1v1H181ZM187.3 61.3h2a1.1 1.1 0 0 1 .7.2.7.7 0 0 1 .3.6v7a.7.7 0 0 1-.3.6 1.1 1.1 0 0 1-.7.3h-2a1.2 1.2 0 0 1-.7-.3.7.7 0 0 1-.3-.5V62a.7.7 0 0 1 .3-.6 1.1 1.1 0 0 1 .7-.2Zm.5.9V69h1v-6.8ZM191.1 61.3h2.8a1 1 0 0 1 .9.9 20 20 0 0 1 .3 4.7 1 1 0 0 1-.7 1h-.2l1.3 2.1-1.5.6-1.2-2.1V70H191Zm1.6 1.5v4l.5-.1a.5.5 0 0 0 .4-.4 14.3 14.3 0 0 0 0-1.6 7.6 7.6 0 0 0-.3-1.6.4.4 0 0 0-.4-.3ZM197 61.3h2.3l1.4 8.6h-1.2l-.1-.6-1.7.1v.5H196Zm2.2 6.9-.8-4.8-.6 4.9ZM205.6 61.7v1.5H204v-1a1.1 1.1 0 0 0-.5 0 1 1 0 0 0-.5 0V64l2.2.3a.6.6 0 0 1 .3.2.5.5 0 0 1 .1.3v4.9c0 .2-.3.4-.9.5a7 7 0 0 1-1.2 0 6.3 6.3 0 0 1-1.2 0c-.6-.1-.8-.3-.8-.6v-2.7h1.5V69a1.2 1.2 0 0 0 .5.1 1.3 1.3 0 0 0 .5-.1v-3.7l-2.2-.3c-.3 0-.4-.2-.4-.4v-2.9c0-.2.3-.4.9-.5a7.8 7.8 0 0 1 1.2-.2 5.4 5.4 0 0 1 1.4.2c.4.1.7.3.7.5ZM203.2 82H172a2.8 2.8 0 0 0-2.8-2.7V75a2.8 2.8 0 0 0 2.8-2.9h31.1a2.8 2.8 0 0 0 2.9 2.9v4.2a2.8 2.8 0 0 0-2.8 2.8Zm-29.9-7a.1.1 0 0 1 .1 0h.5a.2.2 0 0 0 .1 0 .2.2 0 0 0 0-.2l-.1-.2h-2a.1.1 0 0 0-.1 0 .2.2 0 0 0 0 .2.3.3 0 0 0 0 .1h.6v.2a.3.3 0 0 1 0 .1v4.3a1.1 1.1 0 0 0 .2.5c0 .2.2.3.3.3a.3.3 0 0 0 .3-.3 1.4 1.4 0 0 0 0-.5v-4.3a.7.7 0 0 1 .1-.2Zm1.9-.3a.3.3 0 0 0-.3-.2.4.4 0 0 0-.3.2.7.7 0 0 0 0 .4v4.4a1 1 0 0 0 0 .5c.1.2.2.2.3.2a.3.3 0 0 0 .3-.2 1.2 1.2 0 0 0 .1-.5V75a.7.7 0 0 0-.1-.4Zm2.2 2.9a.2.2 0 0 0 0-.2.2.2 0 0 0 0-.1h-.7l-.1-.3v-2h.7a.1.1 0 0 0 .1 0 .2.2 0 0 0 0-.2.3.3 0 0 0 0-.1h-1.2a.3.3 0 0 0-.3.1 1 1 0 0 0-.1.5v4.3a.7.7 0 0 0 .1.5.4.4 0 0 0 .3.1h1.4a.3.3 0 0 0 .1-.1q0-.2-.2-.2h-.5a.3.3 0 0 1-.3-.2.7.7 0 0 1-.1-.4v-1.4a.2.2 0 0 1 0-.2.1.1 0 0 1 .1 0h.6l.1-.1Zm.7 2.5.1.1.1-.2v-2.3a.2.2 0 0 1 0-.1.1.1 0 0 1 .1-.1l.2.2.4 2.2v.1a.5.5 0 0 0 .1.2c.1 0 .2-.1.2-.3l.5-2.3c0-.2.1-.3.2-.3v2.2a1 1 0 0 0 .2.5.3.3 0 0 0 .3.2.3.3 0 0 0 .2-.2.8.8 0 0 0 .1-.4v-4.4a.8.8 0 0 0 0-.4l-.4-.2s-.3.2-.4.6l-.5 2.3-.1.3-.2-.3-.5-2.4c0-.3-.2-.5-.4-.5s-.4.2-.4.7V80a.4.4 0 0 0 .2.1Zm3.6-5.2a1.2 1.2 0 0 0-.2.8v3.7a1.8 1.8 0 0 0 0 .5.4.4 0 0 0 .4.3.3.3 0 0 0 .2-.2.8.8 0 0 0 .1-.4v-1h.2a.8.8 0 0 0 .6-.3 1 1 0 0 0 .2-.8v-2c0-.6-.3-1-.9-1a.8.8 0 0 0-.6.3Zm.4.1a.3.3 0 0 1 .3.2 1.2 1.2 0 0 1 0 .6v1.7a.7.7 0 0 1 0 .4.3.3 0 0 1-.3.2.3.3 0 0 1-.3-.2.7.7 0 0 1 0-.4v-1.9a.8.8 0 0 1 0-.4.4.4 0 0 1 .3-.2Zm1.6 4.7a1 1 0 0 0 .4.4.7.7 0 0 0 .4.1.8.8 0 0 0 .7-.3 1.6 1.6 0 0 0 .1-.9v-3.3a1.5 1.5 0 0 0 0-.6.9.9 0 0 0-.4-.4.8.8 0 0 0-.4-.1.9.9 0 0 0-.6.2.9.9 0 0 0-.3.7V79a1.4 1.4 0 0 0 .2.7Zm1.4-.2a.4.4 0 0 1-.3.3.3.3 0 0 1-.3-.2 1 1 0 0 1 0-.6v-3.2a1 1 0 0 1 0-.6.3.3 0 0 1 .3-.2.3.3 0 0 1 .3.2 1.7 1.7 0 0 1 0 .7V79a1.5 1.5 0 0 1 0 .5Zm2.3-4.6a1.2 1.2 0 0 0-.3.8v3.5a.8.8 0 0 1 0 .2 2 2 0 0 0 .1.5.4.4 0 0 0 .3.3c.1 0 .2 0 .3-.2a.8.8 0 0 0 .1-.4v-1h.2a.7.7 0 0 0 .6-.3 1 1 0 0 0 .2-.8v-2c0-.6-.3-1-.9-1a.8.8 0 0 0-.6.3Zm.4.1.2.2a1.2 1.2 0 0 1 .1.6v1.7a.8.8 0 0 1 0 .4.3.3 0 0 1-.3.2l-.3-.2a.7.7 0 0 1-.1-.4v-1.9a.8.8 0 0 1 0-.4.4.4 0 0 1 .3-.2Zm1.5 4.7a1.1 1.1 0 0 0 0 .3v.2h.2a.4.4 0 0 0 0-.1v-.2l.2-.7.1-.2h.9l.1.3.1.5q.1.4.4.4a.3.3 0 0 0 .3-.1.7.7 0 0 0 .1-.4 2.2 2.2 0 0 0 0-.5l-1-4.3c0-.2-.2-.3-.2-.3a.1.1 0 0 0-.1.1 1 1 0 0 0 0 .2l-1 4.8Zm1-2.7a.8.8 0 0 1 .1.3l.2.9v.2a.3.3 0 0 1 0 .1s0 .1 0 .1h-.6a.6.6 0 0 1-.1-.2.6.6 0 0 0 0-.1l.2-1 .1-.3Zm2.1 3a.8.8 0 0 0 .6.3.8.8 0 0 0 .6-.3 1 1 0 0 0 .3-.8v-4.3a.7.7 0 0 0 0-.3h-.1l-.1.2v4.3a.7.7 0 0 1-.2.4.3.3 0 0 1-.2.2.3.3 0 0 1-.3-.2.8.8 0 0 1 0-.4v-3.8a1 1 0 0 0-.2-.5c0-.2-.2-.2-.3-.2l-.2.2a1 1 0 0 0-.2.5v4a1 1 0 0 0 .3.6Zm3.1-3.3.3.1.2-.2a.8.8 0 0 0 .2-.4v-.7a.9.9 0 0 0-.3-.6 1 1 0 0 0-.6-.3.8.8 0 0 0-.5.2 1 1 0 0 0-.3.3 1.3 1.3 0 0 0-.1.6v1a1.2 1.2 0 0 0 .3 1l1 .8a.8.8 0 0 1 .2.5v.3a.6.6 0 0 1 0 .4.3.3 0 0 1-.3.1.3.3 0 0 1-.3-.1.6.6 0 0 1-.1-.4v-.5a1.1 1.1 0 0 0-.1-.5.3.3 0 0 0-.3-.2.4.4 0 0 0-.3.2.7.7 0 0 0 0 .4v.8a.7.7 0 0 0 .2.6.8.8 0 0 0 .5.2 1 1 0 0 0 .7-.3 1 1 0 0 0 .3-.7V78a1.2 1.2 0 0 0-.4-.8l-.9-.8a.8.8 0 0 1-.3-.6.9.9 0 0 1 .1-.5.4.4 0 0 1 .3-.2.3.3 0 0 1 .3.2.8.8 0 0 1 .1.5v.5a.5.5 0 0 0 .1.3Zm1.1 3a1.8 1.8 0 0 0 0 .4l.1.1a.1.1 0 0 0 .1 0V80l.2-.7c0-.2.1-.2.2-.2h.8l.2.2v.5q.2.5.5.5a.3.3 0 0 0 .2-.2.7.7 0 0 0 .1-.4 2.4 2.4 0 0 0 0-.4l-1-4.4c0-.2-.1-.3-.2-.3v.1a1 1 0 0 0-.1.2l-1 4.8Zm1-2.7a1.5 1.5 0 0 1 .1.3l.2 1a.3.3 0 0 1 0 .2h-.6a1.7 1.7 0 0 1-.1-.2l.2-1 .1-.3Zm3.2 3.2h.2a.4.4 0 0 0 .3-.1.9.9 0 0 0 .1-.5v-3.8a1.5 1.5 0 0 0-.2-.8.9.9 0 0 0-.4-.4 1 1 0 0 0-.4 0 .8.8 0 0 0-.4 0 1.1 1.1 0 0 0-.3.5 1.3 1.3 0 0 0-.1.6v4.5Zm-1-5a.4.4 0 0 1 .4-.1.4.4 0 0 1 .3.2.9.9 0 0 1 0 .5V79a1.4 1.4 0 0 1 0 .6l-.3.2h-.4v-4.3a.5.5 0 0 1 0-.3Zm2 4.5a1 1 0 0 0 .4.4.7.7 0 0 0 .4.1.8.8 0 0 0 .7-.3 1.6 1.6 0 0 0 .2-.9v-3.3a1.7 1.7 0 0 0-.1-.6 1 1 0 0 0-.3-.4.8.8 0 0 0-.5-.1 1 1 0 0 0-.6.2.9.9 0 0 0-.2.7V79a1.5 1.5 0 0 0 0 .7Zm1.4-.2a.4.4 0 0 1-.2.3.3.3 0 0 1-.3-.2 1 1 0 0 1-.2-.6v-3.2a1 1 0 0 1 .2-.6.3.3 0 0 1 .2-.2.3.3 0 0 1 .3.2 1.6 1.6 0 0 1 0 .7V79a1.5 1.5 0 0 1 0 .5Z"/><path class="prefix__f09a9af3-0782-43fb-b887-a03195b69b4f" transform="rotate(-90 215.2 83)" d="M214.9 79.4H215.5V86.6H214.9z"/><path class="prefix__f09a9af3-0782-43fb-b887-a03195b69b4f" transform="rotate(-90 215.2 78.8)" d="M214.5 75.2H215.9V82.4H214.5z"/><path class="prefix__f09a9af3-0782-43fb-b887-a03195b69b4f" transform="rotate(-90 215.2 80.4)" d="M215 76.8H215.4V84H215z"/><path class="prefix__f09a9af3-0782-43fb-b887-a03195b69b4f" transform="rotate(-90 215.2 71.8)" d="M214.8 68.2H215.6V75.4H214.8z"/><path class="prefix__f09a9af3-0782-43fb-b887-a03195b69b4f" transform="rotate(-90 215.2 75)" d="M215 71.5H215.4V78.7H215z"/><path class="prefix__f09a9af3-0782-43fb-b887-a03195b69b4f" transform="rotate(-90 215.2 81.6)" d="M214.7 78H215.8V85.2H214.7z"/><path class="prefix__f09a9af3-0782-43fb-b887-a03195b69b4f" transform="rotate(-90 215.2 76.7)" d="M214.3 73.1H216V80.3H214.3z"/><path class="prefix__f09a9af3-0782-43fb-b887-a03195b69b4f" transform="rotate(-90 215.2 73.5)" d="M214.5 69.9H216V77.1H214.5z"/><path class="prefix__f09a9af3-0782-43fb-b887-a03195b69b4f" transform="rotate(-90 215.2 70.6)" d="M214.9 67H215.5V74.2H214.9z"/><path class="prefix__f09a9af3-0782-43fb-b887-a03195b69b4f" transform="rotate(-90 215.2 66.4)" d="M214.5 62.8H215.9V70H214.5z"/><path class="prefix__f09a9af3-0782-43fb-b887-a03195b69b4f" transform="rotate(-90 215.2 68)" d="M215 64.3H215.4V71.5H215z"/><path class="prefix__f09a9af3-0782-43fb-b887-a03195b69b4f" transform="rotate(-90 215.2 59.4)" d="M214.8 55.8H215.6V63H214.8z"/><path class="prefix__f09a9af3-0782-43fb-b887-a03195b69b4f" transform="rotate(-90 215.2 62.6)" d="M215 59H215.4V66.2H215z"/><path class="prefix__f09a9af3-0782-43fb-b887-a03195b69b4f" transform="rotate(-90 215.2 69.2)" d="M214.7 65.6H215.8V72.8H214.7z"/><path class="prefix__f09a9af3-0782-43fb-b887-a03195b69b4f" transform="rotate(-90 215.2 64.3)" d="M214.3 60.6H216V67.8H214.3z"/><path class="prefix__f09a9af3-0782-43fb-b887-a03195b69b4f" transform="rotate(-90 215.2 61)" d="M214.5 57.4H216V64.6H214.5z"/><path class="prefix__a8c78a02-3504-4bad-a3ac-57c5335d4cf3" d="M170.7 58.5 204 58.5"/><path class="prefix__a8c78a02-3504-4bad-a3ac-57c5335d4cf3" d="M172.9 57 201.8 57"/><path class="prefix__a8c78a02-3504-4bad-a3ac-57c5335d4cf3" d="M204 84 170.7 84"/><path class="prefix__a8c78a02-3504-4bad-a3ac-57c5335d4cf3" d="M201.8 85.5 172.9 85.5"/><path class="prefix__f09a9af3-0782-43fb-b887-a03195b69b4f" d="M220.4 73.2h1v1.3h-.6a1.5 1.5 0 0 0 0 .5 1.5 1.5 0 0 0 0 .4h1l.2-1.8a.6.6 0 0 1 0-.4.3.3 0 0 1 .3 0h2.9c.2 0 .3.3.3 1h.6v1.4h-.6c0 .8-.1 1.1-.3 1.1h-1.7v-1.3h1.4a1.2 1.2 0 0 0 0-.4 1.3 1.3 0 0 0 0-.5h-2.3l-.2 1.9a.4.4 0 0 1-.2.3h-1.7c-.2 0-.3-.4-.4-1h-.6v-1.4h.6c0-.8.2-1.1.3-1.1ZM220.6 68.8h4.5c.2 0 .3.3.3.7v2.8h-.7v-2.1h-2.2v2h-.7v-2h-.8v2h-.8v-2.7a1 1 0 0 1 .2-.5c0-.2.1-.2.2-.2ZM220.1 67.2v-1.7a1.3 1.3 0 0 1 .2-.6c0-.2.2-.3.3-.3h4.3l.3.3a1.3 1.3 0 0 1 .2.6v1.7a1.3 1.3 0 0 1-.2.7.4.4 0 0 1-.3.2h-4.3a.4.4 0 0 1-.3-.2 1.3 1.3 0 0 1-.2-.7Zm.6-.4h4.1V66h-4.1Z"/><path d="M281.4 61.5a2 2 0 0 1-1.9 2v2.7a2 2 0 0 1 0 4V73a2 2 0 0 1 0 4v2.7a2 2 0 0 1 0 4v2.7a1.9 1.9 0 0 1 1.8 1.9h13a3.4 3.4 0 0 1 3.1-3.5V58.3a3.3 3.3 0 0 1-3.2-3.4h-12.8a2 2 0 0 1-1.9 2v2.7a2 2 0 0 1 1.9 2Z" fill="#656565"/><path class="prefix__a8c78a02-3504-4bad-a3ac-57c5335d4cf3" d="M294.2 54.9h-12.8a1.8 1.8 0 1 1-3.7 0h-36.8a3.3 3.3 0 0 1-3.2 3.4v26.4A3.3 3.3 0 0 1 241 88h36.8a1.8 1.8 0 1 1 3.6 0h13a3.4 3.4 0 0 1 3.1-3.4V58.3a3.3 3.3 0 0 1-3.2-3.4Zm-14.7 28.7a2 2 0 1 1 1.9-2 2 2 0 0 1-1.9 2Zm0-6.7a2 2 0 1 1 1.9-2 2 2 0 0 1-1.9 2Zm0-6.7a2 2 0 1 1 1.9-2 2 2 0 0 1-1.9 2Zm0-6.7a2 2 0 1 1 1.9-2 2 2 0 0 1-1.9 2Z"/><path class="prefix__f09a9af3-0782-43fb-b887-a03195b69b4f" d="M251 61.2h1.7v9.3H251v-7.4h-1ZM257 61.3h2.8a1.2 1.2 0 0 1 .8.9 34.8 34.8 0 0 1 .4 6.7 1.1 1.1 0 0 1-.7 1 6.7 6.7 0 0 1-1.6.6 10 10 0 0 1-1.7.1Zm1.6 1.2v6.8l.5-.2a.5.5 0 0 0 .3-.5V64a7.6 7.6 0 0 0-.3-1.2.5.5 0 0 0-.4-.3ZM262 70.5v-9.3h1.6v9.3ZM265.6 61.2h2.3l1.5 9.3H268v-.7l-1.8.2v.5h-1.6Zm2.2 7.4-.8-5.1-.5 5.2ZM274 82.3h-31.2a2.8 2.8 0 0 0-2.8-2.8v-4.2a2.8 2.8 0 0 0 2.8-2.8H274a2.8 2.8 0 0 0 2.8 2.8v4.2a2.8 2.8 0 0 0-2.8 2.8Zm-31.2-6.5h.7a.2.2 0 0 0 .1 0 .1.1 0 0 0 0-.1v-.2h-2.4a.2.2 0 0 0-.2 0 .2.2 0 0 0 0 .1.2.2 0 0 0 0 .1h.7l.1.1a.2.2 0 0 1 0 .1v3.5a.7.7 0 0 0 .1.4.4.4 0 0 0 .4.2.4.4 0 0 0 .3-.1.8.8 0 0 0 0-.5V76a.3.3 0 0 1 .2-.1Zm2.2-.3a.4.4 0 0 0-.4-.1.5.5 0 0 0-.3.1.5.5 0 0 0-.1.4v3.5a.7.7 0 0 0 .1.4.4.4 0 0 0 .4.2.4.4 0 0 0 .3-.2.7.7 0 0 0 .1-.4v-3.5a.5.5 0 0 0-.2-.4Zm2.6 2.3a.1.1 0 0 0 0-.2.2.2 0 0 0-.1 0h-.8l-.1-.2V76l.1-.2h.8a.1.1 0 0 0 .1-.2h-1.4a.4.4 0 0 0-.4.1.7.7 0 0 0 0 .4v3.5a.4.4 0 0 0 0 .4.6.6 0 0 0 .5.1h1.5a.2.2 0 0 0 .1 0 .2.2 0 0 0 .1 0c0-.2 0-.2-.3-.2h-.7a.5.5 0 0 1-.3-.2.5.5 0 0 1-.2-.3V78a.1.1 0 0 1 0-.1.2.2 0 0 1 .2 0h.7a.2.2 0 0 0 .2-.2Zm.8 2.1a.1.1 0 0 0 .1.1q.2 0 .2-.2V78a.2.2 0 0 1 0-.1l.2.1.6 1.7V80h.1c.1 0 .2 0 .2-.2l.6-1.9c0-.2.1-.3.2-.3a.2.2 0 0 1 .1.2v1.6a.6.6 0 0 0 .1.4.3.3 0 0 0 .3.2.4.4 0 0 0 .4-.2.5.5 0 0 0 0-.3V76a.5.5 0 0 0 0-.4.4.4 0 0 0-.4-.1c-.2 0-.3.2-.4.5l-.6 1.8c0 .2-.1.3-.2.3l-.2-.3-.6-1.9c0-.3-.2-.4-.5-.4-.2 0-.4.2-.4.5v3.8a.2.2 0 0 0 .2.1Zm4.3-4.3a.8.8 0 0 0-.3.7v2.9a.5.5 0 0 1 0 .1 1 1 0 0 0 0 .5l.4.2a.3.3 0 0 0 .3-.1.5.5 0 0 0 .2-.4v-.9h.2a1.1 1.1 0 0 0 .7-.2.7.7 0 0 0 .2-.6v-1.7c0-.4-.3-.7-1-.7a1.1 1.1 0 0 0-.8.3Zm.4.2a.4.4 0 0 1 .3.1.7.7 0 0 1 .2.5v1.4a.5.5 0 0 1-.2.3.4.4 0 0 1-.3.1.4.4 0 0 1-.3-.1.5.5 0 0 1-.1-.3v-1.5a.5.5 0 0 1 0-.4.5.5 0 0 1 .4-.1Zm1.9 3.8a.8.8 0 0 0 .4.3 1 1 0 0 0 .4.1h.1a1 1 0 0 0 .7-.3 1 1 0 0 0 .3-.7v-2.7a1 1 0 0 0-.2-.5.7.7 0 0 0-.3-.3 1.2 1.2 0 0 0-.5-.1 1.3 1.3 0 0 0-.7.2.6.6 0 0 0-.3.6V79a1 1 0 0 0 .1.6Zm1.5-.2a.4.4 0 0 1-.3.2.4.4 0 0 1-.3-.1.7.7 0 0 1-.2-.5v-2.6a.6.6 0 0 1 .1-.4.4.4 0 0 1 .4-.2.3.3 0 0 1 .3.2 1 1 0 0 1 0 .5V79a.8.8 0 0 1 0 .4Zm2.8.4a1 1 0 0 0 .6.2h.1a1.5 1.5 0 0 0 .7-.2.7.7 0 0 0 .3-.6v-.8a.6.6 0 0 0-.1-.3.3.3 0 0 0-.3-.2.5.5 0 0 0-.3.2 1 1 0 0 0-.1.5v.5a.5.5 0 0 1-.2.4.4.4 0 0 1-.3.1.4.4 0 0 1-.3-.1.6.6 0 0 1-.1-.4v-2.8a.5.5 0 0 1 .1-.4.4.4 0 0 1 .3-.1.5.5 0 0 1 .3.1.5.5 0 0 1 .2.4v.5c0 .4.1.7.4.7a.3.3 0 0 0 .3-.1.6.6 0 0 0 .1-.4v-.7a.7.7 0 0 0-.1-.5 1 1 0 0 0-.4-.3 1.4 1.4 0 0 0-.5 0 1.1 1.1 0 0 0-.7.2.7.7 0 0 0-.4.6V79a.8.8 0 0 0 .4.7Zm2.3-.2a1 1 0 0 0 .5.3 1 1 0 0 0 .4.1 1.1 1.1 0 0 0 .8-.3 1 1 0 0 0 .2-.7v-2.7a1 1 0 0 0-.1-.5.8.8 0 0 0-.4-.3 1.1 1.1 0 0 0-.5-.1 1.3 1.3 0 0 0-.7.2.6.6 0 0 0-.3.6V79a1 1 0 0 0 .1.6Zm1.6-.2a.5.5 0 0 1-.3.2.4.4 0 0 1-.4-.1.6.6 0 0 1-.1-.5v-2.6a.7.7 0 0 1 0-.4.4.4 0 0 1 .4-.2.3.3 0 0 1 .3.2 1 1 0 0 1 .1.5V79a.9.9 0 0 1 0 .4Zm2.8.6a.1.1 0 0 0 .1 0 1 1 0 0 0 0-.3v-1.3a1 1 0 0 0-.3-.7.8.8 0 0 0 .3-.6v-.8a.8.8 0 0 0-.1-.5 1 1 0 0 0-.4-.3 1.1 1.1 0 0 0-.5 0 1.4 1.4 0 0 0-.7.1.6.6 0 0 0-.4.6v3.2a.7.7 0 0 0 .2.5.4.4 0 0 0 .3.1.4.4 0 0 0 .3-.2.8.8 0 0 0 .1-.4v-1.5h.5a.5.5 0 0 1 .3.1.6.6 0 0 1 .1.4v1.3a.6.6 0 0 0 0 .2.1.1 0 0 0 .2.1Zm-.6-4.2a.4.4 0 0 1 .3.2.7.7 0 0 1 .1.4v.6a.6.6 0 0 1 0 .4.5.5 0 0 1-.4.1h-.4v-1.2a.5.5 0 0 1 .1-.3.5.5 0 0 1 .4-.2Zm3.2 4.2h.1a1 1 0 0 0 0-.3v-1.3a1 1 0 0 0-.2-.7.8.8 0 0 0 .2-.6v-.8a.9.9 0 0 0-.1-.5 1 1 0 0 0-.4-.3 1.2 1.2 0 0 0-.5 0 1.4 1.4 0 0 0-.7.1.6.6 0 0 0-.3.6v3.2a.6.6 0 0 0 .1.5.4.4 0 0 0 .3.1.4.4 0 0 0 .4-.2.7.7 0 0 0 0-.4v-1.5h.5a.4.4 0 0 1 .3.1.6.6 0 0 1 .2.4v1.3a.6.6 0 0 0 0 .2.1.1 0 0 0 0 .1Zm-.6-4.2a.4.4 0 0 1 .3.2.6.6 0 0 1 .1.4v.6a.6.6 0 0 1 0 .4.4.4 0 0 1-.4.1h-.5v-1.2a.5.5 0 0 1 .2-.3.5.5 0 0 1 .3-.2Zm2-.3a.5.5 0 0 0-.3-.1.5.5 0 0 0-.3.1.4.4 0 0 0-.2.4v3.5a.7.7 0 0 0 .2.4.4.4 0 0 0 .3.2.4.4 0 0 0 .3-.2.7.7 0 0 0 .1-.4v-3.5a.5.5 0 0 0-.1-.4Zm2.3 4.5h.1a.5.5 0 0 0 .4-.1.5.5 0 0 0 .1-.4v-3a1 1 0 0 0-.2-.7 1.2 1.2 0 0 0-.5-.3 2.5 2.5 0 0 0-.4 0 1.3 1.3 0 0 0-.5.1 1 1 0 0 0-.4.3.8.8 0 0 0-.1.5V80Zm-1-4a.6.6 0 0 1 .2-.2.5.5 0 0 1 .4.2.6.6 0 0 1 .1.4V79a.8.8 0 0 1-.1.5.4.4 0 0 1-.3.2h-.5v-3.5a.3.3 0 0 1 .1-.3Zm2.2 3.6a1 1 0 0 0 .4.3 1 1 0 0 0 .4.1h.1a1 1 0 0 0 .8-.3 1 1 0 0 0 .2-.7v-2.7a1 1 0 0 0-.2-.5.8.8 0 0 0-.3-.3 1.2 1.2 0 0 0-.5-.1 1.3 1.3 0 0 0-.7.2.6.6 0 0 0-.3.6V79a1 1 0 0 0 0 .6Zm1.5-.2a.4.4 0 0 1-.3.2.4.4 0 0 1-.3-.1.6.6 0 0 1-.2-.5v-2.6a.6.6 0 0 1 .1-.4.4.4 0 0 1 .4-.2.3.3 0 0 1 .3.2 1 1 0 0 1 0 .5V79a.9.9 0 0 1 0 .4Z"/><path class="prefix__f09a9af3-0782-43fb-b887-a03195b69b4f" transform="rotate(-90 286 83.3)" d="M285.7 79.7H286.3V86.9H285.7z"/><path class="prefix__f09a9af3-0782-43fb-b887-a03195b69b4f" transform="rotate(-90 286 79)" d="M285.3 75.4H286.7V82.6H285.3z"/><path class="prefix__f09a9af3-0782-43fb-b887-a03195b69b4f" transform="rotate(-90 286 80.6)" d="M285.8 77H286.2V84.2H285.8z"/><path class="prefix__f09a9af3-0782-43fb-b887-a03195b69b4f" transform="rotate(-90 286 72)" d="M285.6 68.5H286.4V75.7H285.6z"/><path class="prefix__f09a9af3-0782-43fb-b887-a03195b69b4f" transform="rotate(-90 286 75.3)" d="M285.8 71.7H286.2V78.9H285.8z"/><path class="prefix__f09a9af3-0782-43fb-b887-a03195b69b4f" transform="rotate(-90 286 81.9)" d="M285.5 78.3H286.6V85.5H285.5z"/><path class="prefix__f09a9af3-0782-43fb-b887-a03195b69b4f" transform="rotate(-90 286 77)" d="M285.1 73.3H286.8V80.5H285.1z"/><path class="prefix__f09a9af3-0782-43fb-b887-a03195b69b4f" transform="rotate(-90 286 73.7)" d="M285.3 70.1H286.8V77.3H285.3z"/><path class="prefix__f09a9af3-0782-43fb-b887-a03195b69b4f" transform="rotate(-90 286 70.9)" d="M285.7 67.2H286.3V74.4H285.7z"/><path class="prefix__f09a9af3-0782-43fb-b887-a03195b69b4f" transform="rotate(-90 286 66.6)" d="M285.3 63H286.7V70.2H285.3z"/><path class="prefix__f09a9af3-0782-43fb-b887-a03195b69b4f" transform="rotate(-90 286 68.2)" d="M285.8 64.5H286.2V71.7H285.8z"/><path class="prefix__f09a9af3-0782-43fb-b887-a03195b69b4f" transform="rotate(-90 286 59.6)" d="M285.6 56H286.4V63.2H285.6z"/><path class="prefix__f09a9af3-0782-43fb-b887-a03195b69b4f" transform="rotate(-90 286 62.9)" d="M285.8 59.3H286.2V66.5H285.8z"/><path class="prefix__f09a9af3-0782-43fb-b887-a03195b69b4f" transform="rotate(-90 286 69.5)" d="M285.5 65.8H286.6V73H285.5z"/><path class="prefix__f09a9af3-0782-43fb-b887-a03195b69b4f" transform="rotate(-90 286 64.5)" d="M285.1 60.9H286.8V68.1H285.1z"/><path class="prefix__f09a9af3-0782-43fb-b887-a03195b69b4f" transform="rotate(-90 286 61.3)" d="M285.3 57.7H286.8V64.9H285.3z"/><path class="prefix__a8c78a02-3504-4bad-a3ac-57c5335d4cf3" d="M241.5 58.8 274.8 58.8"/><path class="prefix__a8c78a02-3504-4bad-a3ac-57c5335d4cf3" d="M243.7 57.2 272.6 57.2"/><path class="prefix__a8c78a02-3504-4bad-a3ac-57c5335d4cf3" d="M274.8 84.2 241.5 84.2"/><path class="prefix__a8c78a02-3504-4bad-a3ac-57c5335d4cf3" d="M272.6 85.8 243.7 85.8"/><path class="prefix__f09a9af3-0782-43fb-b887-a03195b69b4f" d="M291.2 73.4h1v1.4h-.6a1.2 1.2 0 0 0 0 .4 1.2 1.2 0 0 0 0 .4h1l.2-1.8a.6.6 0 0 1 0-.3.3.3 0 0 1 .3 0h2.9c.2 0 .3.3.3 1h.6v1.4h-.6q0 1.1-.3 1.1h-1.7v-1.4h1.4a1.2 1.2 0 0 0 0-.4 1.2 1.2 0 0 0 0-.4h-2.2l-.2 1.8c0 .2-.2.3-.3.4h-1.7c-.2 0-.3-.4-.4-1.1h-.6v-1.4h.6c0-.7.1-1 .3-1ZM293.2 69v2.2h2.2V69h.8v3.5h-3.4c-.2 0-.3-.2-.3-.5v-1.6h-.8v2.1h-.8v-2.7c0-.5.2-.8.5-.8ZM296.2 65.5v2.8h-.8v-2h-2.2v2H291v-3.5h.8V67h.8v-1.5q0-.6.4-.6h2.8a.4.4 0 0 1 .4 0 1 1 0 0 1 0 .6Z"/><path d="M280.3 101.8a2 2 0 0 1-1.9 2v2.7a2 2 0 0 1 0 4v2.7a2 2 0 0 1 0 4v2.7a2 2 0 0 1 0 4v2.7a1.9 1.9 0 0 1 1.9 1.9h12.9a3.3 3.3 0 0 1 3.1-3.5V98.6a3.3 3.3 0 0 1-3.1-3.4h-13a2 2 0 0 1-1.8 2v2.6a2 2 0 0 1 1.9 2Z" fill="#ff8c00"/><path class="prefix__a8c78a02-3504-4bad-a3ac-57c5335d4cf3" d="M293.2 95.2h-13a1.8 1.8 0 1 1-3.6 0h-36.8a3.3 3.3 0 0 1-3.2 3.4V125a3.4 3.4 0 0 1 3.2 3.5h36.8a1.8 1.8 0 1 1 3.7 0h12.9a3.3 3.3 0 0 1 3.1-3.5V98.6a3.3 3.3 0 0 1-3.1-3.4Zm-14.7 28.7a2 2 0 1 1 1.8-2 2 2 0 0 1-1.9 2Zm0-6.7a2 2 0 1 1 1.8-2 2 2 0 0 1-1.9 2Zm0-6.7a2 2 0 1 1 1.8-2 2 2 0 0 1-1.9 2Zm0-6.7a2 2 0 1 1 1.8-2 2 2 0 0 1-1.9 2Z"/><path class="prefix__f09a9af3-0782-43fb-b887-a03195b69b4f" d="M239.1 102h1.5v8.8h-1.5v-7h-.9ZM248.7 102.4v1.5h-1.5v-.9a1 1 0 0 0-.5-.1 1 1 0 0 0-.4.1v1.7l2 .3a.6.6 0 0 1 .3.1.6.6 0 0 1 0 .4v5q0 .3-.8.4a6 6 0 0 1-1.1.1 5.5 5.5 0 0 1-1.1 0c-.6-.2-.8-.4-.8-.6v-2.8h1.5v2.3a1 1 0 0 0 .4 0 1 1 0 0 0 .5 0V106l-2-.3c-.3-.1-.4-.2-.4-.5v-2.9c0-.2.3-.4.8-.5a5.3 5.3 0 0 1 1.2-.2 4.3 4.3 0 0 1 1.3.2c.4.1.6.3.6.5ZM251 108.8v.7h2v1.3h-3.4V102h3.4v1.3h-2v4.4l1.1-.1v1.2ZM254.1 102h2.7a6.9 6.9 0 0 1 2.6.3.8.8 0 0 1 .5.7v7.8h-1.5v-7.6c0-.2-.3-.3-.6-.2v7.8h-1.5v-7.6a.9.9 0 0 0-.7-.2v7.8h-1.5ZM261.6 102h2.1l1.4 8.8H264v-.6h-1.6l-.1.6h-1.5Zm2 7-.8-4.9-.5 5ZM265.7 102h1.5a7.7 7.7 0 0 1 1.6.1c.7.2 1 .5 1 1v7.7h-1.5v-7.6a1 1 0 0 0-.8-.3 1 1 0 0 0-.3 0v7.8h-1.5ZM271.6 102h2.1l1.4 8.8H274l-.1-.6h-1.6v.6h-1.5Zm2 7-.7-4.9-.5 5ZM272.9 122.6h-31.1a2.8 2.8 0 0 0-2.9-2.8v-4.2a2.8 2.8 0 0 0 2.8-2.8H273a2.8 2.8 0 0 0 2.8 2.8v4.2a2.8 2.8 0 0 0-2.8 2.8Zm-30.4-6.4v-.1h.6a.2.2 0 0 0 .1 0 .1.1 0 0 0 0-.2v-.1h-2.3a.1.1 0 0 0-.1 0 .3.3 0 0 0 0 .2h.6l.1.2v4a1 1 0 0 0 .1.5.4.4 0 0 0 .3.2.3.3 0 0 0 .3-.2.9.9 0 0 0 .2-.5v-4Zm2-.3a.4.4 0 0 0-.3-.2.5.5 0 0 0-.3.2.6.6 0 0 0-.2.4v4a1 1 0 0 0 .2.4.4.4 0 0 0 .3.2.4.4 0 0 0 .3-.2.9.9 0 0 0 .1-.5v-4a.6.6 0 0 0-.1-.3Zm2.5 2.6a.2.2 0 0 0 0-.1.2.2 0 0 0-.1-.2h-.7c-.1 0-.2 0-.2-.2v-1.6c0-.2 0-.3.2-.3h.7a.2.2 0 0 0 .1-.1.3.3 0 0 0 0-.2.1.1 0 0 0-.1 0h-1.3a.4.4 0 0 0-.3.2.8.8 0 0 0-.1.5v4a.5.5 0 0 0 .5.5h1.5a.2.2 0 0 0 .2-.1c0-.2-.1-.2-.3-.2h-.6a.4.4 0 0 1-.3-.2.6.6 0 0 1-.2-.5v-1.3a.2.2 0 0 1 0-.1.1.1 0 0 1 .2 0h.6a.2.2 0 0 0 .2-.1Zm.8 2.3a.1.1 0 0 0 0 .1c.2 0 .2 0 .2-.2v-2a.2.2 0 0 1 0-.2.2.2 0 0 1 .1 0l.2.2.5 2a.3.3 0 0 0 0 .2c.1 0 .2 0 .2-.2l.6-2.1c0-.2.1-.3.2-.3a.2.2 0 0 1 .1.2v1.8a.7.7 0 0 0 .1.4.3.3 0 0 0 .3.2.4.4 0 0 0 .3-.2.7.7 0 0 0 .1-.4v-4a.7.7 0 0 0-.1-.4.4.4 0 0 0-.3-.2c-.2 0-.3.2-.4.6l-.6 2q0 .4-.2.4l-.2-.3-.5-2.2q-.2-.4-.5-.4c-.2 0-.4.2-.4.6v4.2a.4.4 0 0 0 .3.2Zm4-4.8a1 1 0 0 0-.3.8v3.2a.6.6 0 0 1 0 .1 1.6 1.6 0 0 0 0 .6.4.4 0 0 0 .4.2.3.3 0 0 0 .3-.1.7.7 0 0 0 .1-.5v-1h.2a1 1 0 0 0 .7-.2.9.9 0 0 0 .2-.7v-1.9c0-.5-.3-.8-1-.8a1 1 0 0 0-.6.3Zm.4.2a.3.3 0 0 1 .3.1 1 1 0 0 1 .1.5v1.6a.6.6 0 0 1-.1.4.4.4 0 0 1-.3.1.4.4 0 0 1-.3-.1.6.6 0 0 1-.1-.4v-1.7a.7.7 0 0 1 0-.4.4.4 0 0 1 .4-.2Zm1.8 4.2a1 1 0 0 0 .8.5 1 1 0 0 0 .8-.3 1.3 1.3 0 0 0 .2-.8v-3a1.3 1.3 0 0 0-.1-.6.8.8 0 0 0-.3-.3 1 1 0 0 0-.5-.2 1 1 0 0 0-.7.3.7.7 0 0 0-.3.6v3.2a1.2 1.2 0 0 0 .2.6Zm1.5-.2a.4.4 0 0 1-.3.3.4.4 0 0 1-.3-.2.8.8 0 0 1-.2-.5v-3a.8.8 0 0 1 .1-.4.4.4 0 0 1 .3-.2.3.3 0 0 1 .3.2 1.2 1.2 0 0 1 .1.5v2.9a1 1 0 0 1 0 .4Zm2.6.4a.9.9 0 0 0 .6.3 1.2 1.2 0 0 0 .8-.3.8.8 0 0 0 .2-.6v-.8a.8.8 0 0 0 0-.5.3.3 0 0 0-.3-.1.4.4 0 0 0-.3.2 1.6 1.6 0 0 0-.1.6v.5a.7.7 0 0 1-.2.4.4.4 0 0 1-.3.2.4.4 0 0 1-.3-.2.7.7 0 0 1-.1-.4v-3.2a.5.5 0 0 1 .1-.3.4.4 0 0 1 .3-.2.4.4 0 0 1 .3.1.7.7 0 0 1 .2.5v.5c0 .5 0 .8.4.8a.3.3 0 0 0 .2-.2.8.8 0 0 0 .1-.4v-.8a.9.9 0 0 0-.1-.5 1 1 0 0 0-.3-.3 1.2 1.2 0 0 0-.5-.2 1 1 0 0 0-.7.3.8.8 0 0 0-.3.7v3.2a1 1 0 0 0 .3.7Zm2.2-.2a1 1 0 0 0 .4.4 1 1 0 0 0 .4 0h.1a1 1 0 0 0 .7-.2 1.3 1.3 0 0 0 .2-.8v-3a1.3 1.3 0 0 0-.1-.6.8.8 0 0 0-.3-.3 1 1 0 0 0-.5-.2 1 1 0 0 0-.7.3.7.7 0 0 0-.3.6v3.2a1.2 1.2 0 0 0 .2.6Zm1.5-.2a.4.4 0 0 1-.3.3.4.4 0 0 1-.3-.2.8.8 0 0 1-.2-.5v-3a.8.8 0 0 1 .1-.4.4.4 0 0 1 .3-.2.3.3 0 0 1 .3.2 1.1 1.1 0 0 1 .2.5v2.9a1 1 0 0 1 0 .4Zm2.7.7a.1.1 0 0 0 .1 0 1.2 1.2 0 0 0 0-.3V119a1.2 1.2 0 0 0-.3-.8 1 1 0 0 0 .3-.6v-1a1 1 0 0 0-.1-.5 1 1 0 0 0-.9-.4 1.2 1.2 0 0 0-.6.2.7.7 0 0 0-.4.6v3.6a.9.9 0 0 0 .2.5.3.3 0 0 0 .3.2.3.3 0 0 0 .3-.2 1 1 0 0 0 0-.5v-1.7h.5a.4.4 0 0 1 .3.2.7.7 0 0 1 .2.5v1.3a.8.8 0 0 0 0 .3v.1Zm-.6-4.7a.4.4 0 0 1 .3.2.8.8 0 0 1 .1.4v.8a.7.7 0 0 1 0 .4.4.4 0 0 1-.4.2h-.4v-1.4a.6.6 0 0 1 .1-.4.4.4 0 0 1 .3-.2Zm3.1 4.7h.1a1.2 1.2 0 0 0 0-.3V119a1.2 1.2 0 0 0-.3-.8 1 1 0 0 0 .3-.6v-1a1 1 0 0 0-.1-.5 1 1 0 0 0-.4-.3 1 1 0 0 0-.4-.1 1.2 1.2 0 0 0-.7.2.7.7 0 0 0-.4.6v3.6a.8.8 0 0 0 .2.5.4.4 0 0 0 .6 0 1 1 0 0 0 0-.4v-1.7h.5a.4.4 0 0 1 .3.2.7.7 0 0 1 .2.4v1.4a.8.8 0 0 0 0 .3Zm-.6-4.7a.3.3 0 0 1 .3.2.8.8 0 0 1 .1.4v.8a.7.7 0 0 1 0 .4.4.4 0 0 1-.4.2h-.4v-1.4a.6.6 0 0 1 .1-.4.4.4 0 0 1 .3-.2Zm2-.3a.4.4 0 0 0-.4-.2.5.5 0 0 0-.3.2.6.6 0 0 0-.1.4v4a1 1 0 0 0 .1.4.4.4 0 0 0 .3.2.4.4 0 0 0 .3-.2.9.9 0 0 0 .1-.5v-4a.6.6 0 0 0 0-.3Zm2 5h.2a.4.4 0 0 0 .3-.2.7.7 0 0 0 .2-.4v-3.4a1.1 1.1 0 0 0-.3-.8 1 1 0 0 0-.4-.3 1.7 1.7 0 0 0-.4 0 1.1 1.1 0 0 0-.5 0 1 1 0 0 0-.3.4 1 1 0 0 0-.2.5v4.2Zm-1-4.6a.6.6 0 0 1 .3-.1.4.4 0 0 1 .4.2.7.7 0 0 1 .1.4v3a1 1 0 0 1-.1.5.4.4 0 0 1-.3.2h-.5v-3.8a.4.4 0 0 1 .1-.4Zm2.2 4.1a1 1 0 0 0 .4.4 1 1 0 0 0 .4 0 1 1 0 0 0 .8-.2 1.3 1.3 0 0 0 .2-.8v-3a1.3 1.3 0 0 0-.1-.6.8.8 0 0 0-.4-.4 1 1 0 0 0-.5 0 1 1 0 0 0-.6.2.7.7 0 0 0-.3.6v3.2a1.2 1.2 0 0 0 .1.6Zm1.5-.2a.4.4 0 0 1-.3.3.4.4 0 0 1-.4-.2.8.8 0 0 1-.1-.5v-3a.8.8 0 0 1 .1-.5.4.4 0 0 1 .3-.1.3.3 0 0 1 .3.1 1.1 1.1 0 0 1 .1.6v2.9a1 1 0 0 1 0 .4Z"/><path class="prefix__f09a9af3-0782-43fb-b887-a03195b69b4f" transform="rotate(-90 285 123.6)" d="M284.6 120H285.2V127.2H284.6z"/><path class="prefix__f09a9af3-0782-43fb-b887-a03195b69b4f" transform="rotate(-90 285 119.3)" d="M284.2 115.7H285.6V122.9H284.2z"/><path class="prefix__f09a9af3-0782-43fb-b887-a03195b69b4f" transform="rotate(-90 285 120.9)" d="M284.7 117.3H285.1V124.5H284.7z"/><path class="prefix__f09a9af3-0782-43fb-b887-a03195b69b4f" transform="rotate(-90 285 112.4)" d="M284.5 108.8H285.3V116H284.5z"/><path class="prefix__f09a9af3-0782-43fb-b887-a03195b69b4f" transform="rotate(-90 285 115.6)" d="M284.7 112H285.1V119.2H284.7z"/><path class="prefix__f09a9af3-0782-43fb-b887-a03195b69b4f" transform="rotate(-90 285 122.2)" d="M284.4 118.6H285.5V125.8H284.4z"/><path class="prefix__f09a9af3-0782-43fb-b887-a03195b69b4f" transform="rotate(-90 285 117.2)" d="M284.1 113.6H285.8V120.8H284.1z"/><path class="prefix__f09a9af3-0782-43fb-b887-a03195b69b4f" transform="rotate(-90 285 114)" d="M284.2 110.4H285.7V117.6H284.2z"/><path class="prefix__f09a9af3-0782-43fb-b887-a03195b69b4f" transform="rotate(-90 285 111.1)" d="M284.6 107.5H285.2V114.7H284.6z"/><path class="prefix__f09a9af3-0782-43fb-b887-a03195b69b4f" transform="rotate(-90 285 106.9)" d="M284.2 103.3H285.6V110.5H284.2z"/><path class="prefix__f09a9af3-0782-43fb-b887-a03195b69b4f" transform="rotate(-90 285 108.5)" d="M284.7 104.8H285.1V112H284.7z"/><path class="prefix__f09a9af3-0782-43fb-b887-a03195b69b4f" transform="rotate(-90 285 100)" d="M284.5 96.3H285.3V103.5H284.5z"/><path class="prefix__f09a9af3-0782-43fb-b887-a03195b69b4f" transform="rotate(-90 285 103.2)" d="M284.7 99.5H285.1V106.7H284.7z"/><path class="prefix__f09a9af3-0782-43fb-b887-a03195b69b4f" transform="rotate(-90 285 109.7)" d="M284.4 106.1H285.5V113.3H284.4z"/><path class="prefix__f09a9af3-0782-43fb-b887-a03195b69b4f" transform="rotate(-90 285 104.8)" d="M284.1 101.2H285.8V108.4H284.1z"/><path class="prefix__f09a9af3-0782-43fb-b887-a03195b69b4f" transform="rotate(-90 285 101.6)" d="M284.2 98H285.7V105.2H284.2z"/><path class="prefix__a8c78a02-3504-4bad-a3ac-57c5335d4cf3" d="M240.4 99.1 273.7 99.1"/><path class="prefix__a8c78a02-3504-4bad-a3ac-57c5335d4cf3" d="M242.6 97.5 271.5 97.5"/><path class="prefix__a8c78a02-3504-4bad-a3ac-57c5335d4cf3" d="M273.7 124.5 240.4 124.5"/><path class="prefix__a8c78a02-3504-4bad-a3ac-57c5335d4cf3" d="M271.5 126 242.6 126"/><path class="prefix__f09a9af3-0782-43fb-b887-a03195b69b4f" d="M290.1 113.7h1v1.4h-.6a1.3 1.3 0 0 0 0 .8h1l.2-1.8a.6.6 0 0 1 0-.3.3.3 0 0 1 .3-.1h2.9q.2 0 .3 1h.6v1.5h-.6c0 .7-.1 1-.3 1h-1.7V116h1.4a1.1 1.1 0 0 0 0-.8h-2.3l-.2 1.8c0 .2 0 .3-.2.3h-1.7c-.2 0-.3-.3-.4-1h-.6v-1.4h.6c0-.7.2-1.1.3-1.1ZM295.1 110v2.2c0 .4-.1.6-.5.6h-4.4q-.3 0-.3-.6v-2.3c0-.3 0-.5.2-.5h4.6c.3 0 .4.1.4.6Zm-4.5.7v.8h.8v-.8Zm3.7.8v-.8h-2.1v.8ZM295 105.8v2.8h-.7v-2h-2.1v2h-2.3v-3.5h.7v2.1h.8v-1.4c0-.4.1-.6.4-.7h2.8a.4.4 0 0 1 .4.2 1.2 1.2 0 0 1 0 .5Z"/></g><g id="prefix__bdf6cb6e-47e9-4ca4-bb85-2dd796e3e59f" data-name="TEXT BLANCO"><path d="M146.5 57.2h-25.3a3.6 3.6 0 1 1-7.2 0H42c0 4-2.8 7.2-6.3 7.2V119c3.5 0 6.3 3.2 6.3 7.2H114a3.6 3.6 0 1 1 7.1 0h25.3c0-4 2.8-7.2 6.2-7.2V64.4c-3.4 0-6.2-3.2-6.2-7.2Zm-28.9 59.5a4.2 4.2 0 1 1 3.6-4 3.9 3.9 0 0 1-3.6 4Zm0-13.8a4.2 4.2 0 1 1 3.6-4.1 3.9 3.9 0 0 1-3.6 4.1Zm0-13.8a4.2 4.2 0 1 1 3.6-4.2 3.9 3.9 0 0 1-3.6 4.1Zm0-13.9a4.2 4.2 0 1 1 3.6-4.1 3.9 3.9 0 0 1-3.6 4.1Z" stroke="#fff9f1" fill="none" stroke-miterlimit="10"/><path class="prefix__f09a9af3-0782-43fb-b887-a03195b69b4f" d="M50.4 71.5V87c-.2.8-.7 1.2-1.7 1.2H42v-2.6h5V78h-5v-2.6h5v-2.7h-5V70h6.5a2 2 0 0 1 1.3.5 1.4 1.4 0 0 1 .6 1ZM58.7 70h3.2v13.7l2.3-.1V69.9h3.3v18h-3.3v-2l-2.3.1v1.8h-3.2ZM71.4 69.9h4.1a2.3 2.3 0 0 1 1.5.5 1.4 1.4 0 0 1 .6 1.1v14.8a1.4 1.4 0 0 1-.6 1.1 2.3 2.3 0 0 1-1.5.5h-4.1a2.3 2.3 0 0 1-1.5-.5 1.4 1.4 0 0 1-.6-1.1V71.5a1.4 1.4 0 0 1 .6-1.1 2.3 2.3 0 0 1 1.5-.5Zm1 1.9V86h2V71.8ZM79.2 70H85a2.3 2.3 0 0 1 1.8 1.7 42.4 42.4 0 0 1 .7 9.8 2.2 2.2 0 0 1-1.5 2.1l-.4.1 2.6 4.3-3.1 1.4-2.4-4.5h-.2v3h-3.2Zm3.2 3v8.5l1-.4q.8-.3.8-.8a28 28 0 0 0 0-3.3 14.9 14.9 0 0 0-.6-3.3.8.8 0 0 0-.9-.6ZM91.3 70h4.6l3 17.9h-2.5l-.3-1.4-3.4.2-.1 1.2h-3.3Zm4.4 14.2-1.6-10L93 84.5ZM108.7 70.8v3.1h-3.3V72a2.4 2.4 0 0 0-1-.3 2 2 0 0 0-1 .3v3.4l4.3.6a1.3 1.3 0 0 1 .8.3 1.1 1.1 0 0 1 .2.7v10.1c0 .5-.6.8-1.8 1a13.3 13.3 0 0 1-2.5.2 12.3 12.3 0 0 1-2.5-.2c-1.2-.2-1.7-.6-1.7-1.1v-5.7h3.2V86a2.3 2.3 0 0 0 1 .2 2.5 2.5 0 0 0 1-.2v-7.7l-4.4-.6c-.6-.2-.8-.5-.8-1v-5.9c0-.4.6-.8 1.7-1a12.8 12.8 0 0 1 2.6-.4 10.7 10.7 0 0 1 2.9.3c.9.3 1.3.6 1.3 1ZM107.5 114.7H41a2.8 2.8 0 0 0-2.8-2.8V97a2.8 2.8 0 0 0 2.8-2.9h66.5a2.8 2.8 0 0 0 2.9 2.9v14.7a2.8 2.8 0 0 0-2.9 2.9ZM43 100a.2.2 0 0 1 .1-.1h1.1a.4.4 0 0 0 .3-.1.3.3 0 0 0 0-.2c0-.3 0-.4-.2-.4h-4.5a.3.3 0 0 0-.2.1.4.4 0 0 0 0 .3.5.5 0 0 0 0 .2l.2.1h1.2l.1.2a.9.9 0 0 1 0 .3v8a1.8 1.8 0 0 0 .4 1 .7.7 0 0 0 .6.4.7.7 0 0 0 .6-.4 2 2 0 0 0 .2-1v-8a.6.6 0 0 1 0-.4Zm4-.6a.8.8 0 0 0-.6-.3.9.9 0 0 0-.6.4 1.2 1.2 0 0 0-.3.7v8a1.8 1.8 0 0 0 .3 1 .7.7 0 0 0 .6.4.7.7 0 0 0 .6-.4 1.9 1.9 0 0 0 .3-1v-8a1.2 1.2 0 0 0-.3-.8Zm5 5.3a.4.4 0 0 0 0-.2.3.3 0 0 0-.1-.3.3.3 0 0 0-.2 0h-1.4c-.2 0-.3-.2-.3-.5v-3.2c0-.3 0-.5.3-.5h1.3a.3.3 0 0 0 .3-.1.3.3 0 0 0 0-.3.5.5 0 0 0 0-.2.2.2 0 0 0-.2-.1h-2.5a.7.7 0 0 0-.7.4 1.6 1.6 0 0 0-.2.9v8a1.2 1.2 0 0 0 .3.9 1 1 0 0 0 .8.3H52a.4.4 0 0 0 .3-.1.4.4 0 0 0 0-.3c0-.3 0-.4-.4-.4h-1.2a.8.8 0 0 1-.6-.3 1.2 1.2 0 0 1-.3-.8v-2.6a.3.3 0 0 1 .1-.3.3.3 0 0 1 .2-.1h1.3a.4.4 0 0 0 .3-.2Zm1.5 4.8a.3.3 0 0 0 .2.1c.2 0 .2-.1.2-.4V105a.5.5 0 0 1 .1-.3.3.3 0 0 1 .2-.2c.2 0 .3.2.3.5l1.1 4a1 1 0 0 0 0 .1v.2a.7.7 0 0 0 .1.2.2.2 0 0 0 .1 0c.2 0 .3 0 .4-.3l1-4.3.4-.6a.4.4 0 0 1 .3.4v3.7a1.6 1.6 0 0 0 .3.8.7.7 0 0 0 .5.4.7.7 0 0 0 .6-.3 1.3 1.3 0 0 0 .3-.8v-8.1a1.4 1.4 0 0 0-.3-.9.7.7 0 0 0-.6-.3c-.4 0-.7.4-.9 1.1l-1 4.2c-.1.4-.3.6-.4.6s-.3-.2-.4-.5l-.9-4.5c-.2-.6-.4-1-.8-1-.6 0-.8.5-.8 1.2v8.7a.6.6 0 0 0 0 .4Zm7.9-9.8a2 2 0 0 0-.6 1.5v6.6a2.6 2.6 0 0 1 0 .3 3 3 0 0 0 .2 1 .8.8 0 0 0 .7.5h.1a.7.7 0 0 0 .5-.3 1.4 1.4 0 0 0 .3-.8v-2h.3a1.9 1.9 0 0 0 1.3-.5 1.8 1.8 0 0 0 .6-1.4v-3.8c0-1-.7-1.6-2-1.6a1.9 1.9 0 0 0-1.4.5Zm.8.3a.7.7 0 0 1 .6.4 2 2 0 0 1 .3 1v3.1a1.2 1.2 0 0 1-.3.8.7.7 0 0 1-.6.3.7.7 0 0 1-.5-.3 1.2 1.2 0 0 1-.3-.8v-3.4a1.4 1.4 0 0 1 .2-.7.8.8 0 0 1 .6-.4Zm3.6 8.7a1.8 1.8 0 0 0 .8.7 1.7 1.7 0 0 0 .8.2h.1a1.8 1.8 0 0 0 1.4-.6 2.5 2.5 0 0 0 .4-1.6v-6a2.8 2.8 0 0 0-.2-1.2 1.6 1.6 0 0 0-.7-.8 1.9 1.9 0 0 0-1-.2 2.1 2.1 0 0 0-1.2.5 1.5 1.5 0 0 0-.6 1.2v6.5a2.4 2.4 0 0 0 .2 1.3Zm3-.4a.8.8 0 0 1-.6.5H68a.7.7 0 0 1-.6-.4 1.6 1.6 0 0 1-.3-1v-6a1.7 1.7 0 0 1 .3-1 .8.8 0 0 1 .5-.4h.1a.7.7 0 0 1 .6.4 2.5 2.5 0 0 1 .2 1.2v5.8a2 2 0 0 1-.2.9Zm5-8.6a2 2 0 0 0-.5 1.5v6.6a1.3 1.3 0 0 1 0 .3 2.8 2.8 0 0 0 .1 1 .8.8 0 0 0 .7.5h.1a.6.6 0 0 0 .5-.3 1.3 1.3 0 0 0 .3-.8v-2h.4a1.9 1.9 0 0 0 1.2-.5 1.8 1.8 0 0 0 .6-1.4v-3.8c0-1-.7-1.6-2-1.6a1.8 1.8 0 0 0-1.4.5Zm.9.3a.7.7 0 0 1 .5.4 1.9 1.9 0 0 1 .3 1v3.1a1.2 1.2 0 0 1-.3.8.8.8 0 0 1-.5.3.8.8 0 0 1-.6-.3 1.3 1.3 0 0 1-.3-.8v-3.4a1.3 1.3 0 0 1 .3-.7.8.8 0 0 1 .5-.4Zm3.4 8.6v.2a1.8 1.8 0 0 0-.2.5c0 .2.1.3.3.3a.2.2 0 0 0 .2 0 .7.7 0 0 0 0-.3l.1-.3.4-1.3c0-.2.1-.3.3-.3H81c.2 0 .3.1.4.5l.2 1c.2.4.4.7.8.7a.8.8 0 0 0 .7-.4 1.1 1.1 0 0 0 .2-.7 3.2 3.2 0 0 0-.2-.9l-2.1-8c-.1-.3-.3-.5-.4-.5a.3.3 0 0 0-.2.2 2.2 2.2 0 0 0-.1.4l-2.2 8.7-.1.2Zm2-5a.2.2 0 0 1 .2.2 2 2 0 0 1 .1.4l.5 1.7a.5.5 0 0 0 0 .1 1.4 1.4 0 0 1 0 .2.6.6 0 0 1 0 .3.2.2 0 0 1-.2.1h-1.1a.2.2 0 0 1-.2 0 1.2 1.2 0 0 1-.1-.4.7.7 0 0 0 0-.2l.5-1.9c0-.2.1-.4.3-.4Zm4.8 5.5a2 2 0 0 0 1.2.5h.1a2 2 0 0 0 1.4-.5 1.8 1.8 0 0 0 .6-1.5v-7.8a1.2 1.2 0 0 0 0-.4c0-.2-.2-.2-.3-.2-.1 0-.2.2-.2.5v8a1.2 1.2 0 0 1-.3.7.7.7 0 0 1-.6.3.7.7 0 0 1-.5-.3 1.4 1.4 0 0 1-.2-.8v-7a1.8 1.8 0 0 0-.3-1 .7.7 0 0 0-.6-.3.7.7 0 0 0-.6.3 1.6 1.6 0 0 0-.3 1v7.3a1.6 1.6 0 0 0 .6 1.2Zm6.8-6.1a.8.8 0 0 0 .6.3.8.8 0 0 0 .5-.4 1.2 1.2 0 0 0 .3-.8V101a1.5 1.5 0 0 0-.6-1.2 2.2 2.2 0 0 0-1.4-.5 2 2 0 0 0-1 .2 2 2 0 0 0-.7.7 2.2 2.2 0 0 0-.3 1.2v1.7a2.1 2.1 0 0 0 .8 1.8l2 1.5c.4.4.6.7.6 1v.5a1 1 0 0 1-.2.6.7.7 0 0 1-.6.4.7.7 0 0 1-.6-.4 1 1 0 0 1-.3-.6v-.9a1.8 1.8 0 0 0-.2-.9.7.7 0 0 0-.6-.4.8.8 0 0 0-.6.3 1.1 1.1 0 0 0-.2.7v1.5a1.3 1.3 0 0 0 .6 1.1 2 2 0 0 0 1.1.4h.2a2.2 2.2 0 0 0 1.3-.5 1.6 1.6 0 0 0 .6-1.4v-2a2 2 0 0 0-.7-1.6l-2-1.5a1.5 1.5 0 0 1-.7-1.2 1.4 1.4 0 0 1 .2-.8.8.8 0 0 1 .7-.4.8.8 0 0 1 .6.3 1.3 1.3 0 0 1 .2.8v1a1 1 0 0 0 .4.7Zm2.5 5.6-.1.2a1.8 1.8 0 0 0 0 .5l.1.3a.2.2 0 0 0 .2 0 .7.7 0 0 0 .1-.3l.1-.3.3-1.3c.1-.2.2-.3.4-.3H97c.2 0 .3.2.4.5l.2 1q.2.7.8.7a.8.8 0 0 0 .6-.3 1.1 1.1 0 0 0 .3-.8 3.3 3.3 0 0 0-.2-.9l-2.1-8c-.1-.3-.3-.5-.4-.5a.3.3 0 0 0-.2.2 1.8 1.8 0 0 0-.1.4l-2.2 8.7v.2Zm2-4.9a.2.2 0 0 1 .2.1 2.5 2.5 0 0 1 .1.5l.5 1.6v.4a.5.5 0 0 1-.1.2.2.2 0 0 1-.2.2h-1a.2.2 0 0 1-.3-.2 2.6 2.6 0 0 1 0-.3.5.5 0 0 0 0-.2l.4-1.9c0-.2.2-.4.3-.4Zm7 6h.4a.8.8 0 0 0 .7-.4 1.3 1.3 0 0 0 .2-.8v-7a2.4 2.4 0 0 0-.4-1.5 2 2 0 0 0-1-.7 2.9 2.9 0 0 0-.7 0 2 2 0 0 0-1 .2 2 2 0 0 0-.6.6 2.1 2.1 0 0 0-.3 1.1v8.4Zm-2-9.3a1 1 0 0 1 .7-.2.8.8 0 0 1 .6.3 1.4 1.4 0 0 1 .3 1v6a2 2 0 0 1-.2 1 .7.7 0 0 1-.7.3h-.9V101a.8.8 0 0 1 .3-.6Zm4.4 8.3a1.8 1.8 0 0 0 1.5 1h.2a1.8 1.8 0 0 0 1.4-.7 2.5 2.5 0 0 0 .4-1.6v-6a2.7 2.7 0 0 0-.3-1.2 1.6 1.6 0 0 0-.6-.8 1.8 1.8 0 0 0-1-.2 2 2 0 0 0-1.3.5 1.5 1.5 0 0 0-.6 1.2v6.5a2.5 2.5 0 0 0 .3 1.3Zm2.8-.4a.8.8 0 0 1-.5.5h-.1a.8.8 0 0 1-.6-.4 1.7 1.7 0 0 1-.3-1v-6a1.7 1.7 0 0 1 .2-1 .8.8 0 0 1 .6-.4h.1a.7.7 0 0 1 .6.4 2.5 2.5 0 0 1 .2 1.2v5.8a2.1 2.1 0 0 1-.1.9Z"/><path class="prefix__a8c78a02-3504-4bad-a3ac-57c5335d4cf3" d="M43 65.3 108.3 65.3"/><path class="prefix__a8c78a02-3504-4bad-a3ac-57c5335d4cf3" d="M47.3 62.1 104 62.1"/><path class="prefix__a8c78a02-3504-4bad-a3ac-57c5335d4cf3" d="M108.3 118.1 43 118.1"/><path class="prefix__a8c78a02-3504-4bad-a3ac-57c5335d4cf3" d="M104 121.3 47.3 121.3"/><rect x="8.9" y="7" width="323.5" height="252.5" rx="11.5" stroke-width="3" stroke-dasharray="5.03 10.06" stroke="#fff" fill="none" stroke-miterlimit="10"/><path class="prefix__f09a9af3-0782-43fb-b887-a03195b69b4f" d="M57.5 33.5V38H53V18.1h10.3V21h-6v10l3.5-.2v2.6ZM66.7 38V18.1h4.4V38ZM77 18.2h5.7a3.5 3.5 0 0 1 2 .6 1.5 1.5 0 0 1 .8 1.2v2.1h-4.2v-1.7h-2.9V36h2.9v-1h4.2v1.3a1.5 1.5 0 0 1-.9 1.3 3.5 3.5 0 0 1-2 .5h-5.5a3.5 3.5 0 0 1-2-.5 1.5 1.5 0 0 1-.9-1.3V20a1.5 1.5 0 0 1 .8-1.3 3.5 3.5 0 0 1 2-.5ZM87.7 18.1h4.4v15.3l3.1-.1V18h4.5V38h-4.5v-2.1l-3 .1v2h-4.5ZM104.8 18.1h6.3l4 19.9h-3.4l-.3-1.5-4.7.3-.1 1.2H102Zm6 15.9-2.2-11-1.6 11.2ZM128.5 19v3.5H124v-2a3.8 3.8 0 0 0-1.4-.4 3.3 3.3 0 0 0-1.3.3v3.8l5.9.7a1.9 1.9 0 0 1 1 .3 1 1 0 0 1 .2.8v11.2c0 .5-.8.9-2.4 1.1a22.9 22.9 0 0 1-3.4.3 21 21 0 0 1-3.4-.3c-1.5-.2-2.3-.6-2.3-1.2v-6.3h4.4v5.1a3.9 3.9 0 0 0 1.3.3 4.2 4.2 0 0 0 1.4-.3v-8.5l-6-.7c-.8-.1-1.2-.5-1.2-1v-6.6c0-.5.8-1 2.4-1.2a21.8 21.8 0 0 1 3.5-.4 17.5 17.5 0 0 1 3.9.4c1.3.3 1.9.6 1.9 1.2ZM140 18.3h7.7c1.4.4 2.2 1 2.4 2q1.3 4.8 1 14.2c0 1-.7 1.9-2 2.3a24 24 0 0 1-4.4 1.1 34.2 34.2 0 0 1-4.6.3Zm4.4 2.5v14.5l1.4-.4c.6-.1 1-.5 1-1l.1-2.6a65.6 65.6 0 0 0-.3-7.2 12.7 12.7 0 0 0-.5-2.6c-.2-.5-.6-.7-1.2-.7ZM153.8 38V18.1h4.4V38ZM172.8 19v3.5h-4.4v-2a3.8 3.8 0 0 0-1.4-.4 3.3 3.3 0 0 0-1.3.3v3.8l5.9.7a1.9 1.9 0 0 1 1 .3 1 1 0 0 1 .2.8v11.2c0 .5-.8.9-2.5 1.1a22.9 22.9 0 0 1-3.3.3 21 21 0 0 1-3.4-.3c-1.6-.2-2.3-.6-2.3-1.2v-6.3h4.4v5.1a3.9 3.9 0 0 0 1.3.3 4.2 4.2 0 0 0 1.3-.3v-8.5l-6-.7c-.7-.1-1-.5-1-1v-6.6c0-.5.7-1 2.3-1.2a21.6 21.6 0 0 1 3.4-.4 17.5 17.5 0 0 1 4 .4c1.2.3 1.8.6 1.8 1.2ZM175.3 18.1H183q2 .5 2.4 2a40.6 40.6 0 0 1 1 10.9c0 1-.7 1.8-2 2.3l-4.6 1.4V38h-4.4Zm4.4 3.5v9.3l1.5-.4c.6-.2 1-.5 1-1a33.2 33.2 0 0 0 0-3.6 12.8 12.8 0 0 0-.9-3.7c-.1-.4-.5-.6-1.1-.6ZM191.8 18h5.6a3.5 3.5 0 0 1 2 .6 1.5 1.5 0 0 1 .8 1.3v16.4a1.6 1.6 0 0 1-.8 1.3 3.6 3.6 0 0 1-2 .5h-5.6a3.6 3.6 0 0 1-2-.5 1.5 1.5 0 0 1-.8-1.3V19.9a1.5 1.5 0 0 1 .8-1.3 3.6 3.6 0 0 1 2-.5Zm1.4 2.2V36h2.8V20.2ZM202.6 18.1h4.4a30.2 30.2 0 0 1 4.8.3c1.8.3 2.8 1 3 2V38h-4.5V20.9a3.9 3.9 0 0 0-2.4-.6 4.4 4.4 0 0 0-.9.1V38h-4.4ZM217.4 38V18.1h4.3V38ZM224.9 18.1h7.7c1.4.4 2.2 1 2.4 2a39.5 39.5 0 0 1 1 10.9 2.3 2.3 0 0 1-1.5 2l1.5 1.8a1.5 1.5 0 0 1 .5 1 1.6 1.6 0 0 1-.4 1A3.5 3.5 0 0 1 234 38l-9.1-.1Zm4.5 2.6v10.2l1.4-.4c.6-.2.9-.5 1-1a38 38 0 0 0 0-4 14.6 14.6 0 0 0-.8-4.2c-.1-.4-.5-.6-1.2-.6Zm1.4 13.5-1.4.5v1h3ZM238.5 18.1h4.4v17h6.6V38h-11ZM257 33.5v1.6h5.8V38h-10.2V18.1h10.3V21H257v10l3.4-.2v2.6ZM277.6 19v3.5h-4.4v-2a3.8 3.8 0 0 0-1.4-.4 3.3 3.3 0 0 0-1.3.3v3.8l5.9.7a1.9 1.9 0 0 1 1 .3 1 1 0 0 1 .2.8v11.2c0 .5-.8.9-2.5 1.1a22.9 22.9 0 0 1-3.3.3 21 21 0 0 1-3.4-.3c-1.6-.2-2.3-.6-2.3-1.2v-6.3h4.4v5.1a3.9 3.9 0 0 0 1.3.3 4.2 4.2 0 0 0 1.3-.3v-8.5l-6-.7c-.7-.1-1-.5-1-1v-6.6c0-.5.7-1 2.3-1.2a21.8 21.8 0 0 1 3.4-.4 17.5 17.5 0 0 1 4 .4c1.2.3 1.8.6 1.8 1.2ZM48 156.3h4.7a31.4 31.4 0 0 1 5 .3q3 .5 3.1 2v18.2h-4.7v-17.6a4.2 4.2 0 0 0-2.4-.6 4.9 4.9 0 0 0-1 .1v18.1H48ZM68 156.5v18.3h3v-18.3h4.3v18.7a1.6 1.6 0 0 1-.8 1.3 3.8 3.8 0 0 1-2.1.5h-6a3.7 3.7 0 0 1-2-.5 1.6 1.6 0 0 1-.9-1.3v-18.7ZM82.4 172.2v1.7h6.1v3H77.8v-20.6h10.7v3h-6v10.3l3.4-.2v2.6ZM104 157.3v3.6h-4.7v-2.2a4.2 4.2 0 0 0-1.4-.3 3.6 3.6 0 0 0-1.4.3v3.9l6.2.7a2 2 0 0 1 1 .4 1.1 1.1 0 0 1 .3.8V176c0 .5-.9 1-2.6 1.2a23.8 23.8 0 0 1-3.5.2 21.7 21.7 0 0 1-3.6-.2c-1.6-.3-2.4-.7-2.4-1.3v-6.5h4.6v5.3a4 4 0 0 0 1.4.3 4.4 4.4 0 0 0 1.4-.3V166l-6.2-.8c-.8-.1-1.2-.5-1.2-1v-6.8c0-.5.9-1 2.5-1.2a22.5 22.5 0 0 1 3.6-.4 19 19 0 0 1 4 .4c1.3.2 2 .6 2 1.1ZM114.7 159.5V177H110v-17.5h-3.3v-3H118v3ZM120.2 156.4h8.1c1.4.4 2.3 1 2.5 2a39.4 39.4 0 0 1 1 11.3c0 1.1-.7 1.9-2.1 2.4h-.5l3.7 5-4.4 1.5-3.4-5.2-.3.1v3.4h-4.6Zm4.6 3.6v9.6l1.5-.4c.7-.3 1-.6 1-1a26.7 26.7 0 0 0 0-3.8 14.7 14.7 0 0 0-.8-3.7c-.2-.4-.6-.7-1.2-.7ZM137.5 156.3h5.8a3.8 3.8 0 0 1 2.1.6 1.6 1.6 0 0 1 .9 1.3V175a1.6 1.6 0 0 1-.9 1.3 3.8 3.8 0 0 1-2 .6h-6a3.8 3.8 0 0 1-2-.6 1.6 1.6 0 0 1-.9-1.3v-16.8a1.6 1.6 0 0 1 .9-1.3 3.8 3.8 0 0 1 2-.6Zm1.4 2.2v16.2h3v-16.2ZM160.8 157.3v3.6h-4.7v-2.2a4.2 4.2 0 0 0-1.4-.3 3.5 3.5 0 0 0-1.4.3v3.9l6.2.7a2 2 0 0 1 1 .4 1.1 1.1 0 0 1 .3.8V176c0 .5-.8 1-2.6 1.2a23.7 23.7 0 0 1-3.5.2 21.7 21.7 0 0 1-3.5-.2c-1.7-.3-2.5-.7-2.5-1.3v-6.5h4.6v5.3a4 4 0 0 0 1.4.3 4.4 4.4 0 0 0 1.4-.3V166l-6.2-.8c-.8-.1-1.2-.5-1.2-1v-6.8c0-.5.9-1 2.5-1.2a22.5 22.5 0 0 1 3.6-.4 19 19 0 0 1 4.1.4c1.3.2 1.9.6 1.9 1.1ZM185.1 157.3v3.6h-4.6v-2.2a4.2 4.2 0 0 0-1.5-.3 3.6 3.6 0 0 0-1.4.3v3.9l6.2.7a2 2 0 0 1 1 .4 1.1 1.1 0 0 1 .3.8V176c0 .5-.8 1-2.5 1.2a23.8 23.8 0 0 1-3.6.2 21.7 21.7 0 0 1-3.5-.2c-1.6-.3-2.4-.7-2.4-1.3v-6.5h4.6v5.3a4 4 0 0 0 1.3.3 4.4 4.4 0 0 0 1.5-.3V166l-6.3-.8c-.7-.1-1.1-.5-1.1-1v-6.8c0-.5.8-1 2.5-1.2a22.5 22.5 0 0 1 3.5-.4 19 19 0 0 1 4.1.4c1.3.2 2 .6 2 1.1ZM192.5 172.2v1.7h6.1v3h-10.8v-20.6h10.8v3h-6.1v10.3l3.5-.2v2.6ZM201.9 156.4h8c1.4.4 2.3 1 2.5 2a39.4 39.4 0 0 1 1 11.3c0 1.1-.7 1.9-2.1 2.4h-.5l3.7 5-4.4 1.5-3.4-5.2-.3.1v3.4H202Zm4.6 3.6v9.6l1.4-.4c.7-.3 1-.6 1-1a25.2 25.2 0 0 0 0-3.8 14.7 14.7 0 0 0-.8-3.7c-.1-.4-.5-.7-1.2-.7ZM229.5 156.6l-3.5 20.3h-6.3l-3.5-20.3 4.7-.4 2 11.6 2-11.6ZM231.7 176.8v-20.5h4.5v20.5ZM242.4 156.5h6a3.9 3.9 0 0 1 2 .5 1.6 1.6 0 0 1 .8 1.3v2.2H247v-1.8h-3v16.1h3v-1h4.3v1.4a1.6 1.6 0 0 1-.8 1.3 3.8 3.8 0 0 1-2 .5h-6a3.8 3.8 0 0 1-2-.5 1.6 1.6 0 0 1-.9-1.3v-16.9a1.6 1.6 0 0 1 .9-1.3 3.9 3.9 0 0 1 2-.5ZM253.7 176.8v-20.5h4.6v20.5ZM264.5 156.3h5.8a3.8 3.8 0 0 1 2.1.6 1.6 1.6 0 0 1 .9 1.3V175a1.6 1.6 0 0 1-.9 1.3 3.8 3.8 0 0 1-2 .6h-6a3.8 3.8 0 0 1-2-.6 1.6 1.6 0 0 1-.9-1.3v-16.8a1.6 1.6 0 0 1 .9-1.3 3.8 3.8 0 0 1 2-.6Zm1.4 2.2v16.2h3v-16.2ZM287.8 157.3v3.6h-4.7v-2.2a4.2 4.2 0 0 0-1.4-.3 3.5 3.5 0 0 0-1.4.3v3.9l6.2.7a2 2 0 0 1 1 .4 1.1 1.1 0 0 1 .3.8V176q0 .8-2.6 1.2a23.6 23.6 0 0 1-3.5.2 21.7 21.7 0 0 1-3.6-.2c-1.6-.3-2.4-.7-2.4-1.3v-6.5h4.6v5.3a4 4 0 0 0 1.4.3 4.4 4.4 0 0 0 1.4-.3V166l-6.2-.8q-1.2-.2-1.2-1v-6.8c0-.5.9-1 2.5-1.2a22.5 22.5 0 0 1 3.6-.4 19.1 19.1 0 0 1 4.1.4c1.3.2 1.9.6 1.9 1.1Z"/><path class="prefix__a31df420-b6b4-4840-b1c2-10911e8c179b" d="m297 234.4 3.2-4.8h4.8l-6.8 9.3-1 5.7h-4l1.1-6.4-2.1-4.2-2.7 3.5 3.6 7.1h-4.9l-2.8-6-1 6h-4.1l.5-3.4c-1 3-3.2 4-6 4a7.3 7.3 0 0 1-5.7-2.5l2.2-3a5.4 5.4 0 0 0 4 1.6c1.2 0 1.8-.4 1.9-1 0-1.2-1.6-1.4-3.1-1.8-1.7-.6-3.5-2-3-4.7.3-2.1 2-4.6 6.1-4.6a8.2 8.2 0 0 1 5.5 1.8l.2-1.4h4.1l-1.2 6.5 4.8-6.5h4.1l2.3 4.8Zm-16.1-.2a7 7 0 0 0-4.2-1.4c-.7 0-1.5.2-1.6 1s.5.9 1.6 1.2c2.2.5 4.4 1.2 4.6 3.7l1.2-6.7-1.6 2.3ZM227.4 230.8a12.3 12.3 0 0 1 1.5-5.5c1-1.8 3.1-3.5 7-5.4s9.9-3 16.2-3.1c1.2 0 5.5-.1 7.6 1.6s2.7 4.8 3 6.5a50.2 50.2 0 0 1-.2 15.4c-.6 4.8-1.4 7.7-7.2 9a40.7 40.7 0 0 1-13 .4c-4-.6-7.6-1.6-9.3-2.6-3.1-1.8-3.6-3.5-4.3-6a29.2 29.2 0 0 1-1.3-10.3Zm3.4 8.6c.4 1.8.8 3.7 3.5 4.8s10.9 2.6 17.3 2.5c5.2.2 5.4-7.7 5.4-7.7a74.6 74.6 0 0 0-.4-12.4 8.3 8.3 0 0 0-2.5-5.2c-1.7-1.4-5.1-1.3-6-1.3a30.7 30.7 0 0 0-12.2 3.2c-3.2 1.5-4.2 2.2-5 3.6a6.9 6.9 0 0 0-.7 3.3 55.5 55.5 0 0 0 .6 9.2Z"/><path class="prefix__a31df420-b6b4-4840-b1c2-10911e8c179b" d="M212.5 217.4 215.5 217.8 217.7 233.1 220.2 218.7 222.9 219.5 218.5 244.3 216.7 244.8 212.5 217.4z"/><path class="prefix__a31df420-b6b4-4840-b1c2-10911e8c179b" d="M221.7 244.2 221.7 228.9 226.5 228.9 226.5 231.7 223.6 231.7 223.6 234.6 226.1 234.3 226.1 237 223.6 237.5 223.6 240.4 226.7 239.6 226.7 242.3 221.7 244.2z"/><path class="prefix__a31df420-b6b4-4840-b1c2-10911e8c179b" d="M232 228.4 232 231.1 235.5 230.8 235.5 241.2 239 241.2 239 230.3 242.6 230 242.6 227.2 232 228.4z"/><path class="prefix__a31df420-b6b4-4840-b1c2-10911e8c179b" d="M242.8 227.2 246.4 226.6 249.2 235.7 252 225.9 255.4 225.6 250.1 242.4 248 242.4 242.8 227.2z"/><path class="prefix__bd69771d-5e64-4fd8-8f9f-d3c58fc0f7dd" d="M72.2 233.6c0 8-6 14.6-15.5 14.6S41 241.7 41 233.6v-.9c0-7.6 7-13.8 15.6-13.8s15.5 6.2 15.5 13.8Zm-15.5-14c-8.3 0-15 6-15 13s6.7 13 15 13 15-5.7 15-13-6.8-13-15-13Z"/><path class="prefix__f09a9af3-0782-43fb-b887-a03195b69b4f" d="M51.7 228.6s-.2.3 0 .4a1.5 1.5 0 0 0 1.6.4 5 5 0 0 0 1.6-1.3 6.4 6.4 0 0 1 1.7-1.5 1.6 1.6 0 0 1 1.3 0 3.8 3.8 0 0 1 1.2 1l5.9 6.7a29 29 0 0 1 6.5-2.9 12 12 0 0 0-3-6.7c-2.5 1.4-5.4 2-8.2.2a6.2 6.2 0 0 0-3-1c-2.3.1-3.3 1.4-4.3 2.8Z"/><path class="prefix__f09a9af3-0782-43fb-b887-a03195b69b4f" d="M64.8 234.8s-4.8-5.8-6-6.9a2.4 2.4 0 0 0-1.3-.9 1.2 1.2 0 0 0-.6.1 5.8 5.8 0 0 0-1.8 1.4 5 5 0 0 1-1.7 1.5 2.1 2.1 0 0 1-1.9-.4 1 1 0 0 1-.3-.4 1 1 0 0 1 .2-.9l1.3-2 .5-.6a5.9 5.9 0 0 0-1.2.4 4.1 4.1 0 0 1-1.4.3 10.7 10.7 0 0 1-1.5-.3 18.2 18.2 0 0 1-3.8-1.9 12.3 12.3 0 0 0-3.5 7l.9.3c4.3 1.3 5.6 2.6 5.8 2.9a1.3 1.3 0 0 1 1-.7 1.4 1.4 0 0 1 1.2.8 1.4 1.4 0 0 1 1-.4 1.5 1.5 0 0 1 .6 0 1.7 1.7 0 0 1 .9 1.2 1.1 1.1 0 0 1 .6-.2 1.4 1.4 0 0 1 .7.2 2.4 2.4 0 0 1 .8 2.3h.2c1 0 1.7 1 1.7 2.3a3 3 0 0 1-.2 1.1 2.2 2.2 0 0 0 1.5.5.9.9 0 0 0 .6-.4s.1-.1 0-.2L58 239s-.2-.3-.1-.3h.2l1.4 1.8s0 .2.3.2a1 1 0 0 0 1-.2 3 3 0 0 0 .2-.3 1.1 1.1 0 0 0 0-1.1l-1.5-2.1-.1-.3h.3l1.6 2.3a1 1 0 0 0 1.4-.1 1.5 1.5 0 0 0 .5-1.2 1.6 1.6 0 0 0-.3-.8l-1.9-2.6s-.2-.3-.1-.4.2 0 .2.1l2.3 2.8a1 1 0 0 0 1.3 0 1.3 1.3 0 0 0 .4-1 1.6 1.6 0 0 0-.3-1Z"/><path class="prefix__f09a9af3-0782-43fb-b887-a03195b69b4f" d="m55.5 238.1-.7.2v-.3s.5-1.7-.5-2.2a1 1 0 0 0-1.3.2 1.5 1.5 0 0 0-.8-1.3 1.3 1.3 0 0 0-1.6.8c0-.7-.5-1.3-1-1.3s-1 .7-1 1.4.4 1.5 1 1.5a1 1 0 0 0 .7-.4 2.1 2.1 0 0 0 .9 2.1.8.8 0 0 0 1-.2 1.4 1.4 0 0 0 .8 1.5.8.8 0 0 0 1-.3l.2.1c0 1 .6 1.7 1.3 1.7s1.3-.8 1.3-1.8-.6-1.7-1.3-1.7Z"/><path class="prefix__bd69771d-5e64-4fd8-8f9f-d3c58fc0f7dd" d="M78.5 225v6.3h-1.8v-5.7c0-2.8 1-4.2 3-4.2a2.8 2.8 0 0 1 2.2.9 2.8 2.8 0 0 1 2.1-.8c2 0 3 1.3 3 4.1v5.8h-1c-.5 0-.8-.5-.8-1.2v-5c0-1-.5-1.6-1.3-1.6s-1.2.5-1.2 1.6v6.2H81V225c0-1-.4-1.5-1.2-1.5s-1.2.5-1.2 1.5ZM95.9 226.3c0-3.1 1.2-4.9 3.6-4.9h.5v2.6h-.8c-1 0-1.5.9-1.5 2.3v5h-1.8ZM110.1 224.5h-1.7c0-1.9.8-3.2 2.8-3.2s3 1 3 2.7v3.4c0 2.6-1.2 3.8-3.1 4-1.7.2-3-.9-3-3 0-2.4 1.4-3 3.2-3.2.8-.2 1.1-.5 1.1-1s-.4-.9-1.1-.9a1.2 1.2 0 0 0-1.2 1.2Zm2.4 2.7v-.8a6.5 6.5 0 0 1-1.4.5 1.3 1.3 0 0 0-1.1 1.4c0 .8.3 1.1.9 1.1 1 0 1.6-.8 1.6-2.2ZM122 218.3v8.8c0 3-1.1 4.4-3.4 4.4s-3.3-1.7-3.3-5 1-5 2.9-5a2.2 2.2 0 0 1 2 1.4v-3.4a2.2 2.2 0 0 1 1.8-1.2Zm-4.8 8.1c0 2 .4 3 1.5 3s1.5-1 1.5-3-.5-2.8-1.5-2.8-1.5 1-1.6 2.8ZM89.9 232.8h.5v13h-1.8v-11.4c0-.3.5-1.6 1.3-1.6ZM99.7 235.7a2.2 2.2 0 0 0-2 1.5V233h-.2A1.8 1.8 0 0 0 96 234v7.4c0 3 1.1 4.4 3.4 4.4s3.3-1.7 3.3-5-1-5-2.9-5Zm-.5 8c-1 0-1.5-1-1.5-3s.5-2.8 1.5-2.8 1.5 1 1.5 2.8-.5 3-1.5 3ZM90.3 228.9a1.5 1.5 0 0 0 1.2.5 1.4 1.4 0 0 0 1-.4 1.6 1.6 0 0 0 .5-.8h1.7a4.5 4.5 0 0 1-1.2 2.5 3 3 0 0 1-2 .7 3 3 0 0 1-1.5-.4 3.2 3.2 0 0 1-1.1-1 5.1 5.1 0 0 1-.7-1.6 7.6 7.6 0 0 1-.3-2 7.3 7.3 0 0 1 .3-2 4.9 4.9 0 0 1 .7-1.6 3.6 3.6 0 0 1 1.1-1 2.8 2.8 0 0 1 1.4-.4 2.6 2.6 0 0 1 1.6.5 3.5 3.5 0 0 1 1 1.2 6.2 6.2 0 0 1 .7 1.8 9.2 9.2 0 0 1 .1 2.1h-5a3.2 3.2 0 0 0 .5 1.9Zm2.1-5a1.2 1.2 0 0 0-1-.5 1.3 1.3 0 0 0-.8.2 1.6 1.6 0 0 0-.5.5 2.2 2.2 0 0 0-.2.7 3.9 3.9 0 0 0-.1.6h3.1a3.6 3.6 0 0 0-.5-1.5ZM104 223.3a1.1 1.1 0 0 0-.7.3 2.1 2.1 0 0 0-.5.8 4.3 4.3 0 0 0-.3 1 8.1 8.1 0 0 0 0 1 7.7 7.7 0 0 0 0 1.1 4.4 4.4 0 0 0 .3 1 1.9 1.9 0 0 0 .5.7 1.1 1.1 0 0 0 .7.3 1.2 1.2 0 0 0 1.1-.5 3 3 0 0 0 .5-1.4h1.8a5 5 0 0 1-1 2.9 3 3 0 0 1-2.4 1 2.9 2.9 0 0 1-1.4-.4 3.2 3.2 0 0 1-1.1-1 5.2 5.2 0 0 1-.8-1.5 7.2 7.2 0 0 1-.2-2 8.5 8.5 0 0 1 .2-2.1 5.4 5.4 0 0 1 .7-1.7 3.4 3.4 0 0 1 1.2-1 3 3 0 0 1 1.5-.5 3.5 3.5 0 0 1 1.2.3 3 3 0 0 1 1 .7 3.6 3.6 0 0 1 .7 1 4.7 4.7 0 0 1 .4 1.7h-2c0-1.1-.5-1.7-1.3-1.7ZM123.4 224.3a4.9 4.9 0 0 1 .7-1.6 3.5 3.5 0 0 1 1.1-1 3 3 0 0 1 1.5-.3 3.2 3.2 0 0 1 1.6.3 3.5 3.5 0 0 1 1.1 1 4.9 4.9 0 0 1 .7 1.6 7.6 7.6 0 0 1 .3 2.1 7.5 7.5 0 0 1-.3 2 4.9 4.9 0 0 1-.7 1.7 3.3 3.3 0 0 1-1.1 1 3.2 3.2 0 0 1-1.6.3 3 3 0 0 1-1.5-.3 3.3 3.3 0 0 1-1.1-1 4.9 4.9 0 0 1-.7-1.6 7.5 7.5 0 0 1-.3-2 7.6 7.6 0 0 1 .3-2.2Zm1.7 3.2a3.3 3.3 0 0 0 .3 1 1.9 1.9 0 0 0 .5.7 1.4 1.4 0 0 0 1.7 0 2 2 0 0 0 .5-.7 3.6 3.6 0 0 0 .3-1 7 7 0 0 0 0-1 7 7 0 0 0 0-1.2 3.4 3.4 0 0 0-.3-1 2 2 0 0 0-.5-.7 1.4 1.4 0 0 0-1.7 0 1.9 1.9 0 0 0-.5.7 3.1 3.1 0 0 0-.3 1 7 7 0 0 0 0 1.1 7 7 0 0 0 0 1.1ZM103.6 240.7c0-3.1 1.2-4.9 3.6-4.9h.6v2.5h-.9c-1 0-1.4 1-1.4 2.4v5h-1.9ZM110.6 243.3a1.5 1.5 0 0 0 1.3.5 1.4 1.4 0 0 0 1-.4 1.6 1.6 0 0 0 .5-.8h1.7a4.5 4.5 0 0 1-1.3 2.4 3 3 0 0 1-2 .8 3 3 0 0 1-1.5-.4 3.2 3.2 0 0 1-1-1 4.9 4.9 0 0 1-.8-1.6 7.6 7.6 0 0 1-.2-2 7.4 7.4 0 0 1 .2-2 5.3 5.3 0 0 1 .7-1.6 3.7 3.7 0 0 1 1.2-1 2.8 2.8 0 0 1 1.4-.4 2.6 2.6 0 0 1 1.6.5 3.4 3.4 0 0 1 1 1.2 6.5 6.5 0 0 1 .7 1.8 9.2 9.2 0 0 1 .1 2.1h-5a3.2 3.2 0 0 0 .4 1.9Zm2.2-5a1.1 1.1 0 0 0-1-.6 1.3 1.3 0 0 0-.8.2 1.6 1.6 0 0 0-.5.6 2.3 2.3 0 0 0-.2.6 3 3 0 0 0-.1.7h3.1a3.6 3.6 0 0 0-.5-1.5Z"/><path class="prefix__bd69771d-5e64-4fd8-8f9f-d3c58fc0f7dd" d="M92.3 232.8H94.1V235H92.3z"/><path class="prefix__bd69771d-5e64-4fd8-8f9f-d3c58fc0f7dd" d="M92.3 236.2H94.1V245.8H92.3z"/><path class="prefix__f09a9af3-0782-43fb-b887-a03195b69b4f" d="M190.6 191.7h5.8c1 .3 1.6.7 1.7 1.4a28.9 28.9 0 0 1 .8 8c0 .8-.6 1.4-1.6 1.7l-3.4 1v2.4h-3.3Zm3.3 2.5v6.9l1-.3q.8-.2.8-.7a25.8 25.8 0 0 0 0-2.7 9.7 9.7 0 0 0-.6-2.7 1 1 0 0 0-.9-.5ZM202.8 191.7h4.6l3 14.6H208l-.2-1-3.5.1-.1 1h-3.3Zm4.4 11.7-1.6-8.2-1.1 8.3ZM213.9 191.8h4.1a2.7 2.7 0 0 1 1.5.4 1.1 1.1 0 0 1 .6 1v1.5H217v-1.4h-2.1V205h2.1v-3.8h3.1v6H217v-.6h-3.1a2.7 2.7 0 0 1-1.5-.4 1.1 1.1 0 0 1-.6-1v-12a1.1 1.1 0 0 1 .6-.9 2.7 2.7 0 0 1 1.5-.4ZM224 191.7h4.1a2.7 2.7 0 0 1 1.5.4 1.1 1.1 0 0 1 .6 1v12a1.1 1.1 0 0 1-.6.8 2.7 2.7 0 0 1-1.5.4H224a2.7 2.7 0 0 1-1.4-.3 1.1 1.1 0 0 1-.6-1v-12a1.1 1.1 0 0 1 .6-1 2.6 2.6 0 0 1 1.4-.3Zm1 1.5v11.6h2v-11.6ZM238.7 191.8h5.6c1 .2 1.7.7 1.8 1.4a39.8 39.8 0 0 1 .8 10.5c0 .8-.6 1.3-1.6 1.7a18.2 18.2 0 0 1-3.2.8 27.1 27.1 0 0 1-3.4.2Zm3.2 1.9v10.7l1-.3c.5-.2.7-.4.7-.8l.1-1.9a46.2 46.2 0 0 0-.2-5.3 9.4 9.4 0 0 0-.4-2q-.2-.4-1-.4ZM252.2 203v1.2h4.3v2H249v-14.5h7.6v2.1h-4.3v7.3l2.5-.1v2ZM275.2 191.9l-2.4 14.5h-4.5l-2.5-14.5 3.3-.3 1.4 8.3 1.4-8.3ZM280.1 203v1.2h4.3v2h-7.6v-14.5h7.7v2.1H280v7.3l2.5-.1v2ZM292.6 194v12.5h-3.4v-12.6H287v-2.1h8.1v2.1ZM306 191.9l-2.5 14.5h-4.4l-2.5-14.5 3.3-.3 1.4 8.3 1.5-8.3ZM20.2 192h4.6a3.1 3.1 0 0 1 1.6.5 1.2 1.2 0 0 1 .7 1v1.6h-3.5v-1.4h-2.3v12h2.3v-.8h3.5v1a1.1 1.1 0 0 1-.7 1 3.1 3.1 0 0 1-1.6.4h-4.6a3.1 3.1 0 0 1-1.7-.4 1.1 1.1 0 0 1-.6-1v-12.4a1.2 1.2 0 0 1 .6-1 3.1 3.1 0 0 1 1.7-.4ZM31.3 192H36a3 3 0 0 1 1.6.4 1.1 1.1 0 0 1 .7 1v12.4a1.2 1.2 0 0 1-.7 1 3 3 0 0 1-1.6.4h-4.6a3.2 3.2 0 0 1-1.6-.4 1.1 1.1 0 0 1-.7-1v-12.4a1.1 1.1 0 0 1 .7-1 3.2 3.2 0 0 1 1.6-.4Zm1.1 1.6v11.9h2.4v-12ZM40.1 192h6.5a22.8 22.8 0 0 1 6.2.6c.8.3 1.3.6 1.3 1.1v13.4h-3.7v-13c-.1-.3-.6-.4-1.4-.4v13.4h-3.6v-13a2.9 2.9 0 0 0-1.7-.4v13.4h-3.6ZM56 192h6.3c1.2.3 1.8.7 2 1.4a28.1 28.1 0 0 1 .8 8.3c0 .9-.5 1.4-1.6 1.7l-3.9 1.1v2.5H56Zm3.6 2.6v7l1.2-.2c.5-.2.8-.4.8-.8a24.7 24.7 0 0 0 0-2.7 9.3 9.3 0 0 0-.7-2.8q-.1-.4-1-.5ZM67.1 192H73.4c1.2.3 1.8.8 2 1.5a27.4 27.4 0 0 1 .8 8.3q0 1.2-1.7 1.7l-.3.1 2.8 3.7-3.4 1-2.7-3.7h-.2v2.6H67Zm3.6 2.7v7l1.2-.3c.5-.1.8-.4.8-.7a16.2 16.2 0 0 0 0-2.8 10 10 0 0 0-.7-2.7c0-.3-.4-.5-1-.5ZM80.5 192h5.2l3.4 15h-2.9l-.2-1-3.8.2-.2 1h-3.6Zm5 12-1.8-8.4-1.2 8.6ZM100 192.7v2.6h-3.7v-1.6a3.5 3.5 0 0 0-1.1-.2 3 3 0 0 0-1 .2v2.9l4.7.5a1.6 1.6 0 0 1 .9.3.8.8 0 0 1 .2.6v8.4c0 .4-.7.7-2 1a19 19 0 0 1-2.8.1 17.5 17.5 0 0 1-2.8-.2c-1.2-.2-1.9-.5-1.9-1v-4.7h3.6v3.9a3.2 3.2 0 0 0 1.1.2 3.8 3.8 0 0 0 1.1-.2V199l-4.9-.6c-.6-.1-.9-.4-.9-.7v-5c0-.5.7-.8 2-1a20.5 20.5 0 0 1 2.8-.3 16.4 16.4 0 0 1 3.3.3c.9.2 1.4.5 1.4 1ZM109.5 192h6.4c1 .3 1.7.7 2 1.4a28.1 28.1 0 0 1 .8 8.3c0 .9-.6 1.4-1.7 1.7l-3.8 1.1v2.5h-3.6Zm3.6 2.6v7l1.2-.2c.6-.2.8-.4.9-.8a24.7 24.7 0 0 0 0-2.7 9.3 9.3 0 0 0-.7-2.8q-.2-.4-1-.5ZM123 192h4.7a3 3 0 0 1 1.6.4 1.1 1.1 0 0 1 .7 1v12.4a1.1 1.1 0 0 1-.7 1 3 3 0 0 1-1.6.4H123a3.2 3.2 0 0 1-1.6-.4 1.1 1.1 0 0 1-.7-1v-12.4a1.1 1.1 0 0 1 .7-1 3.2 3.2 0 0 1 1.6-.4Zm1.2 1.6v11.9h2.3v-12ZM131.8 192H138c1.1.3 1.8.8 2 1.5a27.4 27.4 0 0 1 .8 8.3c0 .8-.6 1.4-1.7 1.7l-.4.1 2.9 3.6-3.4 1-2.7-3.7h-.2v2.6h-3.6Zm3.6 2.7v7l1.1-.3c.6-.1.9-.4.9-.7a18.6 18.6 0 0 0 0-2.8 10.3 10.3 0 0 0-.7-2.7c-.1-.3-.4-.5-1-.5ZM150.6 198.7h3.7v2.2h-3.7Zm0 6.2h3.7v2.2h-3.7Z"/></g></svg>