<svg xmlns="http://www.w3.org/2000/svg" viewBox="0 0 340.7 271.3"><defs><style>.prefix__a31df420-b6b4-4840-b1c2-10911e8c179b,.prefix__f09a9af3-0782-43fb-b887-a03195b69b4f{fill:#fff}.prefix__a8c78a02-3504-4bad-a3ac-57c5335d4cf3{fill:none;stroke-miterlimit:10;stroke:#fff;stroke-width:.5px}.prefix__a31df420-b6b4-4840-b1c2-10911e8c179b{fill-rule:evenodd}.prefix__bd69771d-5e64-4fd8-8f9f-d3c58fc0f7dd{fill:#fefefe}</style></defs><g id="prefix__b8695da0-3b43-4300-a2d2-a76fbde0cf47" data-name="PRECIOS"><path fill="#00b65d" d="M121.2 71a3.9 3.9 0 0 1-3.6 4.2v5.6a4.2 4.2 0 0 1 0 8.2v5.6a4.2 4.2 0 0 1 0 8.3v5.6a4.2 4.2 0 0 1 0 8.2v5.6a3.8 3.8 0 0 1 3.6 4h25.3c0-4 2.8-7.3 6.2-7.3V64.4c-3.4 0-6.2-3.2-6.2-7.2h-25.3a3.9 3.9 0 0 1-3.6 4.1V67a3.9 3.9 0 0 1 3.6 4.2Z"/><path d="M123.2 116.8v-1.3h14.2v1.3zM123.2 108.8v-2.9h14.2v2.9zM123.2 111v-.9h14.2v.9zM123.1 93.8v-1.7h14.2v1.7zM123.1 100.1v-.9h14.2v.9zM123.2 114.4v-2.3h14.2v2.3zM123.2 104.8v-3.6h14.2v3.6zM123.3 97.8v-3h14.2v3zM123.2 91v-1.3h14.2V91zM123.2 83v-2.9h14.2V83zM123.2 85.2v-.9h14.2v.9zM123.2 67.9v-1.7h14.2v1.7zM123.3 74.2v-.9h14.2v.9zM123.2 88.6v-2.3h14.2v2.3zM123.2 79v-3.6h14.2V79zM123.3 72v-3h14.2v3zM140.6 95.7h1.7v2.8h-1a2.6 2.6 0 0 0-.2 1 2.5 2.5 0 0 0 .2.7h2l.3-3.7a1.4 1.4 0 0 1 .1-.7.5.5 0 0 1 .4-.1h5.8c.3 0 .5.7.6 2.2h1.1v2.9h-1c-.1 1.5-.4 2.3-.8 2.3h-3.2v-2.8h2.6a2.3 2.3 0 0 0 .2-.9 2.4 2.4 0 0 0-.2-.9H145l-.4 3.8c0 .5-.2.7-.5.8h-3.4c-.3-.1-.6-.9-.7-2.3h-1.1V98h1c.2-1.6.4-2.3.8-2.3Zm-.6-3.5v-2.9h10.2v2.9h-8.1v1.6Zm0-6.7V82a2.7 2.7 0 0 1 .3-1.3c.2-.3.4-.5.6-.5h8.4c.3 0 .5.2.7.5a2.8 2.8 0 0 1 .3 1.3v3.6a2.8 2.8 0 0 1-.3 1.3q-.3.5-.7.5H141q-.4 0-.6-.5a2.8 2.8 0 0 1-.3-1.4Zm1-.8h8.2v-1.9H141Z" class="prefix__f09a9af3-0782-43fb-b887-a03195b69b4f"/><path fill="#dc3545" d="M209.3 102.6a2 2 0 0 1-1.9 2v2.7a2 2 0 0 1 0 4v2.6a2 2 0 0 1 0 4v2.7a2 2 0 0 1 0 4v2.7a1.9 1.9 0 0 1 1.8 1.9h13a3.3 3.3 0 0 1 3.1-3.5V99.4a3.3 3.3 0 0 1-3.2-3.5h-12.8a2 2 0 0 1-1.9 2v2.7a2 2 0 0 1 1.8 2Z"/><path d="M222.1 96h-12.8a1.8 1.8 0 1 1-3.7 0h-36.8a3.3 3.3 0 0 1-3.2 3.4v26.2a3.3 3.3 0 0 1 3.2 3.5h36.8a1.8 1.8 0 1 1 3.6 0h13a3.3 3.3 0 0 1 3.1-3.5V99.4a3.3 3.3 0 0 1-3.2-3.5Zm-14.7 28.5a2 2 0 1 1 1.8-2 2 2 0 0 1-1.8 2Zm0-6.6a2 2 0 1 1 1.8-2 2 2 0 0 1-1.8 2Zm0-6.7a2 2 0 1 1 1.8-2 2 2 0 0 1-1.8 2Zm0-6.6a2 2 0 1 1 1.8-2 2 2 0 0 1-1.8 2Z" class="prefix__a8c78a02-3504-4bad-a3ac-57c5335d4cf3"/><path d="M173 110.6h-2.6a.7.7 0 0 1-.7-.7v-7.5c0-.3.2-.4.6-.4h3.5v1.2h-2.5v1.3h1.8c.4 0 .7.2.7.5v5c0 .4-.2.6-.7.6Zm-1.7-1.3h.9v-3.5h-.9Zm6.7-7.3h1.6v6.6h1.1V102h1.6v8.6h-1.6v-1l-1.1.1v1H178Zm6.2 0h2a1.1 1.1 0 0 1 .7.2.7.7 0 0 1 .3.6v7a.7.7 0 0 1-.3.6 1.2 1.2 0 0 1-.7.2h-2a1.1 1.1 0 0 1-.7-.2.7.7 0 0 1-.3-.6v-7a.7.7 0 0 1 .3-.6 1.1 1.1 0 0 1 .7-.2Zm.5.9v6.8h1V103Zm3.3-.9h2.8a1 1 0 0 1 1 .8 20.3 20.3 0 0 1 .3 4.7 1 1 0 0 1-.8 1h-.1l1.2 2-1.5.7-1.2-2.1v1.4H188Zm1.6 1.5v4l.6-.2c.2 0 .3-.2.3-.4a14 14 0 0 0 0-1.6 7.5 7.5 0 0 0-.3-1.6l-.4-.3Zm4.4-1.5h2.3l1.5 8.6h-1.3l-.1-.6h-1.7v.6H193Zm2.2 6.8-.8-4.7-.6 4.8Zm6.4-6.4v1.5H201v-.9a1.3 1.3 0 0 0-.5-.1 1.1 1.1 0 0 0-.5.1v1.6l2.2.3a.6.6 0 0 1 .3.2.6.6 0 0 1 .1.3v4.8c0 .3-.3.4-.9.5a6.1 6.1 0 0 1-1.2.1 5.7 5.7 0 0 1-1.2 0c-.6-.2-.9-.3-.9-.6v-2.7h1.6v2.2a1.2 1.2 0 0 0 .5.1 1.3 1.3 0 0 0 .5-.1V106l-2.2-.3c-.3 0-.4-.2-.4-.4v-2.9c0-.2.3-.4.9-.5a6.1 6.1 0 0 1 1.2-.2 5 5 0 0 1 1.4.2c.4.1.7.3.7.5Zm-1 20.9h-31.2a2.8 2.8 0 0 0-2.8-2.8v-4.2a2.8 2.8 0 0 0 2.8-2.8h31.2a2.8 2.8 0 0 0 2.8 2.8v4.2a2.8 2.8 0 0 0-2.8 2.8Zm-30.1-7.2h.6a.2.2 0 0 0 .1-.2v-.2H170a.2.2 0 0 0 0 .2.3.3 0 0 0 0 .1v.1h.6a.5.5 0 0 1 0 .2v4.3a1.1 1.1 0 0 0 .2.5l.2.2a.3.3 0 0 0 .3-.2 1.2 1.2 0 0 0 .1-.5v-4.3a.3.3 0 0 1 .1-.2Zm1.8-.3a.3.3 0 0 0-.2-.1.4.4 0 0 0-.3.1.7.7 0 0 0-.1.5v4.2a1.1 1.1 0 0 0 .1.6.3.3 0 0 0 .3.2l.3-.3a1.2 1.2 0 0 0 0-.5v-4.2a.7.7 0 0 0 0-.5Zm2.3 2.9a.3.3 0 0 0 0-.2.2.2 0 0 0 0-.1h-.7l-.1-.3v-1.9h.7a.1.1 0 0 0 .1 0 .2.2 0 0 0 0-.2.3.3 0 0 0 0-.1h-1.3a.3.3 0 0 0-.2.1 1 1 0 0 0-.2.5v4.3a.7.7 0 0 0 .2.4.5.5 0 0 0 .3.2h1.3a.1.1 0 0 0 .2 0 .3.3 0 0 0 0-.2c0-.1 0-.2-.2-.2h-.6a.4.4 0 0 1-.2-.2.7.7 0 0 1-.2-.4V119a.1.1 0 0 1 .1-.2h.7a.1.1 0 0 0 .1-.1Zm.7 2.5h.1l.1-.2v-2.2a.3.3 0 0 1 0-.1.1.1 0 0 1 .1-.1c.1 0 .2 0 .2.2l.5 2.1v.2a.2.2 0 0 0 0 .1c.1 0 .2 0 .2-.2l.5-2.3c0-.2 0-.3.2-.3v2.2a.9.9 0 0 0 .2.5.3.3 0 0 0 .2.1.3.3 0 0 0 .3-.1.8.8 0 0 0 .1-.5v-4.3a.8.8 0 0 0-.1-.4.3.3 0 0 0-.3-.2c-.2 0-.3.2-.4.6l-.5 2.2-.1.3c-.1 0-.2 0-.2-.2l-.5-2.4c-.1-.3-.2-.5-.4-.5-.3 0-.4.2-.4.6v4.7a.4.4 0 0 0 .2.2Zm3.7-5.2a1.2 1.2 0 0 0-.3.8v3.5a.8.8 0 0 1 0 .1 2 2 0 0 0 .1.6.4.4 0 0 0 .3.3.3.3 0 0 0 .3-.2.8.8 0 0 0 0-.4v-1h.3a.8.8 0 0 0 .5-.3 1 1 0 0 0 .3-.8v-2c0-.5-.3-.8-1-.8a.8.8 0 0 0-.5.2Zm.4.1a.3.3 0 0 1 .2.2 1 1 0 0 1 .2.6v1.7a.7.7 0 0 1-.2.4.3.3 0 0 1-.2.2l-.3-.2a.8.8 0 0 1-.1-.4v-1.8a.8.8 0 0 1 .1-.5.3.3 0 0 1 .3-.1Zm1.6 4.7a.9.9 0 0 0 .4.4.7.7 0 0 0 .4 0 .8.8 0 0 0 .7-.3 1.6 1.6 0 0 0 .2-.8v-3.3a1.7 1.7 0 0 0-.1-.6 1 1 0 0 0-.4-.4.8.8 0 0 0-.4-.1 1 1 0 0 0-.6.3.8.8 0 0 0-.3.6v3.5a1.5 1.5 0 0 0 .1.7Zm1.4-.2a.4.4 0 0 1-.3.2.3.3 0 0 1-.3-.2 1 1 0 0 1-.1-.5V117a1 1 0 0 1 0-.5.3.3 0 0 1 .4-.2.3.3 0 0 1 .2.2 1.4 1.4 0 0 1 .1.6v3a1.4 1.4 0 0 1 0 .6Zm2.3-4.6a1.2 1.2 0 0 0-.2.8v3.5a.8.8 0 0 1 0 .2 1.7 1.7 0 0 0 0 .5.4.4 0 0 0 .4.3l.2-.2a.8.8 0 0 0 .1-.4v-1h.2a.8.8 0 0 0 .6-.3 1 1 0 0 0 .2-.8v-2c0-.5-.3-.8-.9-.8a.8.8 0 0 0-.6.2Zm.4.2a.3.3 0 0 1 .3.1 1.2 1.2 0 0 1 0 .6v1.7a.7.7 0 0 1 0 .4.3.3 0 0 1-.3.2.3.3 0 0 1-.3-.2.7.7 0 0 1 0-.4v-1.8a.7.7 0 0 1 0-.5.3.3 0 0 1 .3-.1Zm1.6 4.5a.5.5 0 0 1 0 .2 1.1 1.1 0 0 0 0 .2l.1.2a.2.2 0 0 0 0-.2.8.8 0 0 0 0-.1l.2-.7.2-.2h.8c.1 0 .2 0 .2.3l.1.5q.1.4.4.4a.3.3 0 0 0 .3-.2.6.6 0 0 0 0-.4 1.8 1.8 0 0 0 0-.5l-1-4.2-.1-.3a.1.1 0 0 0-.1 0 1.2 1.2 0 0 0-.1.3l-1 4.6a.3.3 0 0 1 0 .1Zm1-2.6a1.3 1.3 0 0 1 0 .3l.3.9a.3.3 0 0 1 0 .2s0 .1-.1.1h-.6v-.2a.4.4 0 0 0 0-.1l.1-1c0-.2.1-.3.2-.3Zm2.1 3a.8.8 0 0 0 .6.2.9.9 0 0 0 .6-.3 1 1 0 0 0 .3-.8V116a.7.7 0 0 0 0-.3q-.2 0-.2.2v4.3a.7.7 0 0 1-.1.4.3.3 0 0 1-.3.2.3.3 0 0 1-.2-.2.9.9 0 0 1-.1-.5v-3.7a1.1 1.1 0 0 0-.2-.5c0-.2-.1-.2-.2-.2a.3.3 0 0 0-.3.2 1 1 0 0 0-.1.5v3.9a.9.9 0 0 0 .2.7Zm3.2-3.4a.3.3 0 0 0 .5 0 .8.8 0 0 0 .1-.4v-.6a.9.9 0 0 0-.3-.7 1 1 0 0 0-.6-.3.9.9 0 0 0-.4.2 1.1 1.1 0 0 0-.4.3 1.3 1.3 0 0 0-.1.7v.9a1.2 1.2 0 0 0 .4 1l.9.8a.8.8 0 0 1 .3.5v.3a.6.6 0 0 1-.1.3.3.3 0 0 1-.3.2.3.3 0 0 1-.3-.2.6.6 0 0 1-.1-.3v-.5a1 1 0 0 0-.1-.5.3.3 0 0 0-.3-.2.3.3 0 0 0-.3.2.6.6 0 0 0 0 .4v.8a.7.7 0 0 0 .2.6.8.8 0 0 0 .5.2h.1a1 1 0 0 0 .6-.3 1 1 0 0 0 .3-.7v-1.1a1.2 1.2 0 0 0-.3-.9l-1-.8a.9.9 0 0 1-.3-.6.8.8 0 0 1 .2-.4.4.4 0 0 1 .3-.2.3.3 0 0 1 .2.1.8.8 0 0 1 .2.5v.5a.5.5 0 0 0 .1.2Zm1 3v.2a1 1 0 0 0 0 .2c0 .1 0 .2.2.2a.2.2 0 0 0 .1-.2 1 1 0 0 1 0-.1l.2-.7.1-.2h.9l.2.3v.5q.2.4.4.4a.3.3 0 0 0 .3-.2.6.6 0 0 0 .1-.4 2.5 2.5 0 0 0 0-.5l-1-4.2c0-.2-.1-.3-.2-.3a2.4 2.4 0 0 0-.2.3l-1 4.7Zm1-2.6.1.1a.7.7 0 0 1 0 .2l.3 1a.3.3 0 0 1 0 .2s0 0-.1 0h-.6a.8.8 0 0 1 0-.2.2.2 0 0 0 0-.1l.1-1c0-.2.1-.3.2-.3Zm3.3 3.2h.1a.3.3 0 0 0 .3-.2.8.8 0 0 0 .2-.4V117a1.3 1.3 0 0 0-.2-.8 1 1 0 0 0-.5-.4 1.3 1.3 0 0 0-.3 0 .8.8 0 0 0-.4 0 1 1 0 0 0-.4.5 1.2 1.2 0 0 0-.1.5v4.5Zm-1-5a.4.4 0 0 1 .3 0 .4.4 0 0 1 .4.1.9.9 0 0 1 0 .5v3.2a1.3 1.3 0 0 1 0 .6l-.3.2h-.4v-4.2a.4.4 0 0 1 0-.4Zm2 4.5a.9.9 0 0 0 .4.4.7.7 0 0 0 .4 0 .8.8 0 0 0 .7-.2 1.6 1.6 0 0 0 .2-.9V117a1.7 1.7 0 0 0-.1-.7 1 1 0 0 0-.3-.4.8.8 0 0 0-.5 0 1 1 0 0 0-.6.2.8.8 0 0 0-.2.6v3.5a1.5 1.5 0 0 0 0 .7Zm1.4-.2a.4.4 0 0 1-.2.2.3.3 0 0 1-.3-.2 1 1 0 0 1-.1-.5V117a1 1 0 0 1 0-.5.3.3 0 0 1 .3-.2.3.3 0 0 1 .3.2 1.5 1.5 0 0 1 .1.6v3.1a1.4 1.4 0 0 1-.1.5ZM210.3 124.5v-.6h7.2v.6zM210.3 120.7v-1.4h7.2v1.4zM210.3 121.8v-.4h7.2v.4zM210.4 113.4v-.8h7.2v.8zM210.3 116.5v-.4h7.2v.4zM210.3 123.3v-1.1h7.2v1.1zM210.2 118.9v-1.7h7.2v1.7zM210.3 115.4V114h7.2v1.4zM210.2 112.2v-.6h7.2v.6zM210.3 108.3v-1.4h7.2v1.4zM210.3 109.4v-.4h7.2v.4zM210.3 101.1v-.8h7.2v.8zM210.2 104.2v-.4h7.2v.4zM210.2 111v-1.1h7.2v1.1zM210.3 106.4v-1.7h7.2v1.7zM210.3 103v-1.4h7.2v1.4z" class="prefix__f09a9af3-0782-43fb-b887-a03195b69b4f"/><path d="M169.4 99.8h33.3M171.6 98.3h28.9M202.7 125.2h-33.3M200.5 126.7h-28.9" class="prefix__a8c78a02-3504-4bad-a3ac-57c5335d4cf3"/><path d="M219.1 114.4h.9v1.4h-.6a1.5 1.5 0 0 0 0 .4 1.5 1.5 0 0 0 0 .4h1l.2-1.8a.7.7 0 0 1 .1-.3.3.3 0 0 1 .2-.1h3q.2 0 .3 1h.5v1.5h-.5c0 .7-.2 1-.4 1h-1.7v-1.3h1.4a1.2 1.2 0 0 0 0-.4 1.2 1.2 0 0 0 0-.4h-2.2l-.2 1.8c0 .2-.1.3-.3.3h-1.7c-.2 0-.3-.4-.4-1h-.5v-1.4h.5c.1-.7.2-1.1.4-1.1Zm2-4.4v2.2h2.2V110h.8v3.4h-3.4c-.2 0-.3-.2-.3-.5v-1.6h-.8v2.1h-.8v-2.7c0-.5.2-.7.5-.7Zm-2.3-1.5v-1.7a1.3 1.3 0 0 1 .2-.6c0-.2.2-.3.3-.3h4.3l.3.3a1.3 1.3 0 0 1 .2.6v1.7a1.3 1.3 0 0 1-.2.6.4.4 0 0 1-.3.3h-4.3a.4.4 0 0 1-.3-.3 1.3 1.3 0 0 1-.2-.6Zm.6-.4h4.1v-.9h-4.1Z" class="prefix__f09a9af3-0782-43fb-b887-a03195b69b4f"/><path fill="#174c8a" d="M210.6 61.3a2 2 0 0 1-1.9 2V66a2 2 0 0 1 0 4v2.7a2 2 0 0 1 0 4v2.7a2 2 0 0 1 0 4V86a2 2 0 0 1 1.9 1.9h12.9a3.3 3.3 0 0 1 3.1-3.5V58.1a3.3 3.3 0 0 1-3.1-3.5h-13a2 2 0 0 1-1.8 2v2.7a2 2 0 0 1 1.9 2Z"/><path d="M223.5 54.6h-13a1.8 1.8 0 1 1-3.6 0h-36.8a3.4 3.4 0 0 1-3.2 3.5v26.3a3.3 3.3 0 0 1 3.2 3.5H207a1.8 1.8 0 1 1 3.7 0h12.9a3.3 3.3 0 0 1 3.1-3.5V58.1a3.3 3.3 0 0 1-3.1-3.5Zm-14.8 28.7a2 2 0 1 1 1.9-2 2 2 0 0 1-1.9 2Zm0-6.7a2 2 0 1 1 1.9-2 2 2 0 0 1-1.9 2Zm0-6.6a2 2 0 1 1 1.9-2 2 2 0 0 1-1.9 2Zm0-6.7a2 2 0 1 1 1.9-2 2 2 0 0 1-1.9 2Z" class="prefix__a8c78a02-3504-4bad-a3ac-57c5335d4cf3"/><path d="M170.2 61.3h1.6v8.6h-1.6v-6.8h-1Zm6.8 3.8h-2.5v3.6h2.5V70h-4v-5.6c0-.3.2-.5.6-.5h1.8v-1.4h-2.5v-1.2h3.2q.9 0 .9.8Zm4-3.8h1.7v6.6h1v-6.6h1.7v8.6h-1.6V69h-1.1v1H181Zm6.3 0h2a1.1 1.1 0 0 1 .7.2.7.7 0 0 1 .3.6v7a.7.7 0 0 1-.3.6 1.1 1.1 0 0 1-.7.3h-2a1.2 1.2 0 0 1-.7-.3.7.7 0 0 1-.3-.5V62a.7.7 0 0 1 .3-.6 1.1 1.1 0 0 1 .7-.2Zm.5.9V69h1v-6.8Zm3.3-.9h2.8a1 1 0 0 1 .9.9 20 20 0 0 1 .3 4.7 1 1 0 0 1-.7 1h-.2l1.3 2.1-1.5.6-1.2-2.1V70H191Zm1.6 1.5v4l.5-.1a.5.5 0 0 0 .4-.4 14.3 14.3 0 0 0 0-1.6 7.6 7.6 0 0 0-.3-1.6.4.4 0 0 0-.4-.3Zm4.3-1.5h2.3l1.4 8.6h-1.2l-.1-.6-1.7.1v.5H196Zm2.2 6.9-.8-4.8-.6 4.9Zm6.4-6.5v1.5H204v-1a1.1 1.1 0 0 0-.5 0 1 1 0 0 0-.5 0V64l2.2.3a.6.6 0 0 1 .3.2.5.5 0 0 1 .1.3v4.9c0 .2-.3.4-.9.5a7 7 0 0 1-1.2 0 6.3 6.3 0 0 1-1.2 0c-.6-.1-.8-.3-.8-.6v-2.7h1.5V69a1.2 1.2 0 0 0 .5.1 1.3 1.3 0 0 0 .5-.1v-3.7l-2.2-.3c-.3 0-.4-.2-.4-.4v-2.9c0-.2.3-.4.9-.5a7.8 7.8 0 0 1 1.2-.2 5.4 5.4 0 0 1 1.4.2c.4.1.7.3.7.5ZM203.2 82H172a2.8 2.8 0 0 0-2.8-2.7V75a2.8 2.8 0 0 0 2.8-2.9h31.1A2.8 2.8 0 0 0 206 75v4.2a2.8 2.8 0 0 0-2.8 2.8Zm-29.9-7a.1.1 0 0 1 .1 0h.5a.2.2 0 0 0 .1 0 .2.2 0 0 0 0-.2l-.1-.2h-2a.1.1 0 0 0-.1 0 .2.2 0 0 0 0 .2.3.3 0 0 0 0 .1h.6v.2a.3.3 0 0 1 0 .1v4.3a1.1 1.1 0 0 0 .2.5c0 .2.2.3.3.3a.3.3 0 0 0 .3-.3 1.4 1.4 0 0 0 0-.5v-4.3a.7.7 0 0 1 .1-.2Zm1.9-.3a.3.3 0 0 0-.3-.2.4.4 0 0 0-.3.2.7.7 0 0 0 0 .4v4.4a1 1 0 0 0 0 .5c.1.2.2.2.3.2a.3.3 0 0 0 .3-.2 1.2 1.2 0 0 0 .1-.5V75a.7.7 0 0 0-.1-.4Zm2.2 2.9a.2.2 0 0 0 0-.2.2.2 0 0 0 0-.1h-.7l-.1-.3v-2h.7a.1.1 0 0 0 .1 0 .2.2 0 0 0 0-.2.3.3 0 0 0 0-.1h-1.2a.3.3 0 0 0-.3.1 1 1 0 0 0-.1.5v4.3a.7.7 0 0 0 .1.5.4.4 0 0 0 .3.1h1.4a.3.3 0 0 0 .1-.1q0-.2-.2-.2h-.5a.3.3 0 0 1-.3-.2.7.7 0 0 1-.1-.4v-1.4a.2.2 0 0 1 0-.2.1.1 0 0 1 .1 0h.6l.1-.1Zm.7 2.5.1.1.1-.2v-2.3a.2.2 0 0 1 0-.1.1.1 0 0 1 .1-.1l.2.2.4 2.2v.1a.5.5 0 0 0 .1.2c.1 0 .2-.1.2-.3l.5-2.3c0-.2.1-.3.2-.3v2.2a1 1 0 0 0 .2.5.3.3 0 0 0 .3.2.3.3 0 0 0 .2-.2.8.8 0 0 0 .1-.4v-4.4a.8.8 0 0 0 0-.4l-.4-.2s-.3.2-.4.6l-.5 2.3-.1.3-.2-.3-.5-2.4c0-.3-.2-.5-.4-.5s-.4.2-.4.7V80a.4.4 0 0 0 .2.1Zm3.6-5.2a1.2 1.2 0 0 0-.2.8v3.7a1.8 1.8 0 0 0 0 .5.4.4 0 0 0 .4.3.3.3 0 0 0 .2-.2.8.8 0 0 0 .1-.4v-1h.2a.8.8 0 0 0 .6-.3 1 1 0 0 0 .2-.8v-2c0-.6-.3-1-.9-1a.8.8 0 0 0-.6.3Zm.4.1a.3.3 0 0 1 .3.2 1.2 1.2 0 0 1 0 .6v1.7a.7.7 0 0 1 0 .4.3.3 0 0 1-.3.2.3.3 0 0 1-.3-.2.7.7 0 0 1 0-.4v-1.9a.8.8 0 0 1 0-.4.4.4 0 0 1 .3-.2Zm1.6 4.7a1 1 0 0 0 .4.4.7.7 0 0 0 .4.1.8.8 0 0 0 .7-.3 1.6 1.6 0 0 0 .1-.9v-3.3a1.5 1.5 0 0 0 0-.6.9.9 0 0 0-.4-.4.8.8 0 0 0-.4-.1.9.9 0 0 0-.6.2.9.9 0 0 0-.3.7V79a1.4 1.4 0 0 0 .2.7Zm1.4-.2a.4.4 0 0 1-.3.3.3.3 0 0 1-.3-.2 1 1 0 0 1 0-.6v-3.2a1 1 0 0 1 0-.6.3.3 0 0 1 .3-.2.3.3 0 0 1 .3.2 1.7 1.7 0 0 1 0 .7V79a1.5 1.5 0 0 1 0 .5Zm2.3-4.6a1.2 1.2 0 0 0-.3.8v3.5a.8.8 0 0 1 0 .2 2 2 0 0 0 .1.5.4.4 0 0 0 .3.3c.1 0 .2 0 .3-.2a.8.8 0 0 0 .1-.4v-1h.2a.7.7 0 0 0 .6-.3 1 1 0 0 0 .2-.8v-2c0-.6-.3-1-.9-1a.8.8 0 0 0-.6.3Zm.4.1.2.2a1.2 1.2 0 0 1 .1.6v1.7a.8.8 0 0 1 0 .4.3.3 0 0 1-.3.2l-.3-.2a.7.7 0 0 1-.1-.4v-1.9a.8.8 0 0 1 0-.4.4.4 0 0 1 .3-.2Zm1.5 4.7a1.1 1.1 0 0 0 0 .3v.2h.2a.4.4 0 0 0 0-.1v-.2l.2-.7.1-.2h.9l.1.3.1.5q.1.4.4.4a.3.3 0 0 0 .3-.1.7.7 0 0 0 .1-.4 2.2 2.2 0 0 0 0-.5l-1-4.3c0-.2-.2-.3-.2-.3a.1.1 0 0 0-.1.1 1 1 0 0 0 0 .2l-1 4.8Zm1-2.7a.8.8 0 0 1 .1.3l.2.9v.2a.3.3 0 0 1 0 .1v.1h-.6a.6.6 0 0 1-.1-.2.6.6 0 0 0 0-.1l.2-1 .1-.3Zm2.1 3a.8.8 0 0 0 .6.3.8.8 0 0 0 .6-.3 1 1 0 0 0 .3-.8v-4.3a.7.7 0 0 0 0-.3h-.1l-.1.2v4.3a.7.7 0 0 1-.2.4.3.3 0 0 1-.2.2.3.3 0 0 1-.3-.2.8.8 0 0 1 0-.4v-3.8a1 1 0 0 0-.2-.5c0-.2-.2-.2-.3-.2l-.2.2a1 1 0 0 0-.2.5v4a1 1 0 0 0 .3.6Zm3.1-3.3.3.1.2-.2a.8.8 0 0 0 .2-.4v-.7a.9.9 0 0 0-.3-.6 1 1 0 0 0-.6-.3.8.8 0 0 0-.5.2 1 1 0 0 0-.3.3 1.3 1.3 0 0 0-.1.6v1a1.2 1.2 0 0 0 .3 1l1 .8a.8.8 0 0 1 .2.5v.3a.6.6 0 0 1 0 .4.3.3 0 0 1-.3.1.3.3 0 0 1-.3-.1.6.6 0 0 1-.1-.4v-.5a1.1 1.1 0 0 0-.1-.5.3.3 0 0 0-.3-.2.4.4 0 0 0-.3.2.7.7 0 0 0 0 .4v.8a.7.7 0 0 0 .2.6.8.8 0 0 0 .5.2 1 1 0 0 0 .7-.3 1 1 0 0 0 .3-.7V78a1.2 1.2 0 0 0-.4-.8l-.9-.8a.8.8 0 0 1-.3-.6.9.9 0 0 1 .1-.5.4.4 0 0 1 .3-.2.3.3 0 0 1 .3.2.8.8 0 0 1 .1.5v.5a.5.5 0 0 0 .1.3Zm1.1 3a1.8 1.8 0 0 0 0 .4l.1.1a.1.1 0 0 0 .1 0V80l.2-.7c0-.2.1-.2.2-.2h.8l.2.2v.5q.2.5.5.5a.3.3 0 0 0 .2-.2.7.7 0 0 0 .1-.4 2.4 2.4 0 0 0 0-.4l-1-4.4c0-.2-.1-.3-.2-.3v.1a1 1 0 0 0-.1.2l-1 4.8Zm1-2.7a1.5 1.5 0 0 1 .1.3l.2 1a.3.3 0 0 1 0 .2h-.6a1.7 1.7 0 0 1-.1-.2l.2-1 .1-.3Zm3.2 3.2h.2a.4.4 0 0 0 .3-.1.9.9 0 0 0 .1-.5v-3.8a1.5 1.5 0 0 0-.2-.8.9.9 0 0 0-.4-.4 1 1 0 0 0-.4 0 .8.8 0 0 0-.4 0 1.1 1.1 0 0 0-.3.5 1.3 1.3 0 0 0-.1.6v4.5Zm-1-5a.4.4 0 0 1 .4-.1.4.4 0 0 1 .3.2.9.9 0 0 1 0 .5V79a1.4 1.4 0 0 1 0 .6l-.3.2h-.4v-4.3a.5.5 0 0 1 0-.3Zm2 4.5a1 1 0 0 0 .4.4.7.7 0 0 0 .4.1.8.8 0 0 0 .7-.3 1.6 1.6 0 0 0 .2-.9v-3.3a1.7 1.7 0 0 0-.1-.6 1 1 0 0 0-.3-.4.8.8 0 0 0-.5-.1 1 1 0 0 0-.6.2.9.9 0 0 0-.2.7V79a1.5 1.5 0 0 0 0 .7Zm1.4-.2a.4.4 0 0 1-.2.3.3.3 0 0 1-.3-.2 1 1 0 0 1-.2-.6v-3.2a1 1 0 0 1 .2-.6.3.3 0 0 1 .2-.2.3.3 0 0 1 .3.2 1.6 1.6 0 0 1 0 .7V79a1.5 1.5 0 0 1 0 .5ZM211.6 83.3v-.6h7.2v.6zM211.6 79.5v-1.4h7.2v1.4zM211.6 80.6v-.4h7.2v.4zM211.6 72.2v-.8h7.2v.8zM211.7 75.2v-.4h7.2v.4zM211.6 82.1V81h7.2v1.1zM211.6 77.6v-1.7h7.2v1.7zM211.6 74.2v-1.5h7.2v1.5zM211.6 70.9v-.6h7.2v.6zM211.6 67.1v-1.4h7.2v1.4zM211.5 68.2v-.4h7.2v.4zM211.6 59.8V59h7.2v.8zM211.6 62.8v-.4h7.2v.4zM211.6 69.7v-1.1h7.2v1.1zM211.5 65.2v-1.7h7.2v1.7zM211.6 61.7v-1.5h7.2v1.5z" class="prefix__f09a9af3-0782-43fb-b887-a03195b69b4f"/><path d="M170.7 58.5H204M172.9 57h28.9M204 84h-33.3M201.8 85.5h-28.9" class="prefix__a8c78a02-3504-4bad-a3ac-57c5335d4cf3"/><path d="M220.4 73.2h1v1.3h-.6a1.5 1.5 0 0 0 0 .5 1.5 1.5 0 0 0 0 .4h1l.2-1.8a.6.6 0 0 1 0-.4.3.3 0 0 1 .3 0h2.9c.2 0 .3.3.3 1h.6v1.4h-.6c0 .8-.1 1.1-.3 1.1h-1.7v-1.3h1.4a1.2 1.2 0 0 0 0-.4 1.3 1.3 0 0 0 0-.5h-2.3l-.2 1.9a.4.4 0 0 1-.2.3h-1.7c-.2 0-.3-.4-.4-1h-.6v-1.4h.6c0-.8.2-1.1.3-1.1Zm.2-4.4h4.5c.2 0 .3.3.3.7v2.8h-.7v-2.1h-2.2v2h-.7v-2h-.8v2h-.8v-2.7a1 1 0 0 1 .2-.5c0-.2.1-.2.2-.2Zm-.5-1.6v-1.7a1.3 1.3 0 0 1 .2-.6c0-.2.2-.3.3-.3h4.3l.3.3a1.3 1.3 0 0 1 .2.6v1.7a1.3 1.3 0 0 1-.2.7.4.4 0 0 1-.3.2h-4.3a.4.4 0 0 1-.3-.2 1.3 1.3 0 0 1-.2-.7Zm.6-.4h4.1V66h-4.1Z" class="prefix__f09a9af3-0782-43fb-b887-a03195b69b4f"/><path fill="#656565" d="M281.4 61.5a2 2 0 0 1-1.9 2v2.7a2 2 0 0 1 0 4V73a2 2 0 0 1 0 4v2.7a2 2 0 0 1 0 4v2.7a1.9 1.9 0 0 1 1.8 1.9h13a3.4 3.4 0 0 1 3.1-3.5V58.3a3.3 3.3 0 0 1-3.2-3.4h-12.8a2 2 0 0 1-1.9 2v2.7a2 2 0 0 1 1.9 2Z"/><path d="M294.2 54.9h-12.8a1.8 1.8 0 1 1-3.7 0h-36.8a3.3 3.3 0 0 1-3.2 3.4v26.4A3.3 3.3 0 0 1 241 88h36.8a1.8 1.8 0 1 1 3.6 0h13a3.4 3.4 0 0 1 3.1-3.4V58.3a3.3 3.3 0 0 1-3.2-3.4Zm-14.7 28.7a2 2 0 1 1 1.9-2 2 2 0 0 1-1.9 2Zm0-6.7a2 2 0 1 1 1.9-2 2 2 0 0 1-1.9 2Zm0-6.7a2 2 0 1 1 1.9-2 2 2 0 0 1-1.9 2Zm0-6.7a2 2 0 1 1 1.9-2 2 2 0 0 1-1.9 2Z" class="prefix__a8c78a02-3504-4bad-a3ac-57c5335d4cf3"/><path d="M251 61.2h1.7v9.3H251v-7.4h-1Zm6 .1h2.8a1.2 1.2 0 0 1 .8.9 34.8 34.8 0 0 1 .4 6.7 1.1 1.1 0 0 1-.7 1 6.7 6.7 0 0 1-1.6.6 10 10 0 0 1-1.7.1Zm1.6 1.2v6.8l.5-.2a.5.5 0 0 0 .3-.5V64a7.6 7.6 0 0 0-.3-1.2.5.5 0 0 0-.4-.3Zm3.4 8v-9.3h1.6v9.3Zm3.6-9.3h2.3l1.5 9.3H268v-.7l-1.8.2v.5h-1.6Zm2.2 7.4-.8-5.1-.5 5.2Zm6.2 13.7h-31.2a2.8 2.8 0 0 0-2.8-2.8v-4.2a2.8 2.8 0 0 0 2.8-2.8H274a2.8 2.8 0 0 0 2.8 2.8v4.2a2.8 2.8 0 0 0-2.8 2.8Zm-31.2-6.5h.7a.2.2 0 0 0 .1 0 .1.1 0 0 0 0-.1v-.2h-2.4a.2.2 0 0 0-.2 0 .2.2 0 0 0 0 .1.2.2 0 0 0 0 .1h.7l.1.1a.2.2 0 0 1 0 .1v3.5a.7.7 0 0 0 .1.4.4.4 0 0 0 .4.2.4.4 0 0 0 .3-.1.8.8 0 0 0 0-.5V76a.3.3 0 0 1 .2-.1Zm2.2-.3a.4.4 0 0 0-.4-.1.5.5 0 0 0-.3.1.5.5 0 0 0-.1.4v3.5a.7.7 0 0 0 .1.4.4.4 0 0 0 .4.2.4.4 0 0 0 .3-.2.7.7 0 0 0 .1-.4v-3.5a.5.5 0 0 0-.2-.4Zm2.6 2.3a.1.1 0 0 0 0-.2.2.2 0 0 0-.1 0h-.8l-.1-.2V76l.1-.2h.8a.1.1 0 0 0 .1-.2h-1.4a.4.4 0 0 0-.4.1.7.7 0 0 0 0 .4v3.5a.4.4 0 0 0 0 .4.6.6 0 0 0 .5.1h1.5a.2.2 0 0 0 .1 0 .2.2 0 0 0 .1 0c0-.2 0-.2-.3-.2h-.7a.5.5 0 0 1-.3-.2.5.5 0 0 1-.2-.3V78a.1.1 0 0 1 0-.1.2.2 0 0 1 .2 0h.7a.2.2 0 0 0 .2-.2Zm.8 2.1a.1.1 0 0 0 .1.1q.2 0 .2-.2V78a.2.2 0 0 1 0-.1l.2.1.6 1.7v.3h.1c.1 0 .2 0 .2-.2l.6-1.9c0-.2.1-.3.2-.3a.2.2 0 0 1 .1.2v1.6a.6.6 0 0 0 .1.4.3.3 0 0 0 .3.2.4.4 0 0 0 .4-.2.5.5 0 0 0 0-.3V76a.5.5 0 0 0 0-.4.4.4 0 0 0-.4-.1c-.2 0-.3.2-.4.5l-.6 1.8c0 .2-.1.3-.2.3l-.2-.3-.6-1.9c0-.3-.2-.4-.5-.4-.2 0-.4.2-.4.5v3.8a.2.2 0 0 0 .2.1Zm4.3-4.3a.8.8 0 0 0-.3.7v2.9a.5.5 0 0 1 0 .1 1 1 0 0 0 0 .5l.4.2a.3.3 0 0 0 .3-.1.5.5 0 0 0 .2-.4v-.9h.2a1.1 1.1 0 0 0 .7-.2.7.7 0 0 0 .2-.6v-1.7c0-.4-.3-.7-1-.7a1.1 1.1 0 0 0-.8.3Zm.4.2a.4.4 0 0 1 .3.1.7.7 0 0 1 .2.5v1.4a.5.5 0 0 1-.2.3.4.4 0 0 1-.3.1.4.4 0 0 1-.3-.1.5.5 0 0 1-.1-.3v-1.5a.5.5 0 0 1 0-.4.5.5 0 0 1 .4-.1Zm1.9 3.8a.8.8 0 0 0 .4.3 1 1 0 0 0 .4.1h.1a1 1 0 0 0 .7-.3 1 1 0 0 0 .3-.7v-2.7a1 1 0 0 0-.2-.5.7.7 0 0 0-.3-.3 1.2 1.2 0 0 0-.5-.1 1.3 1.3 0 0 0-.7.2.6.6 0 0 0-.3.6V79a1 1 0 0 0 .1.6Zm1.5-.2a.4.4 0 0 1-.3.2.4.4 0 0 1-.3-.1.7.7 0 0 1-.2-.5v-2.6a.6.6 0 0 1 .1-.4.4.4 0 0 1 .4-.2.3.3 0 0 1 .3.2 1 1 0 0 1 0 .5V79a.8.8 0 0 1 0 .4Zm2.8.4a1 1 0 0 0 .6.2h.1a1.5 1.5 0 0 0 .7-.2.7.7 0 0 0 .3-.6v-.8a.6.6 0 0 0-.1-.3.3.3 0 0 0-.3-.2.5.5 0 0 0-.3.2 1 1 0 0 0-.1.5v.5a.5.5 0 0 1-.2.4.4.4 0 0 1-.3.1.4.4 0 0 1-.3-.1.6.6 0 0 1-.1-.4v-2.8a.5.5 0 0 1 .1-.4.4.4 0 0 1 .3-.1.5.5 0 0 1 .3.1.5.5 0 0 1 .2.4v.5c0 .4.1.7.4.7a.3.3 0 0 0 .3-.1.6.6 0 0 0 .1-.4v-.7a.7.7 0 0 0-.1-.5 1 1 0 0 0-.4-.3 1.4 1.4 0 0 0-.5 0 1.1 1.1 0 0 0-.7.2.7.7 0 0 0-.4.6V79a.8.8 0 0 0 .4.7Zm2.3-.2a1 1 0 0 0 .5.3 1 1 0 0 0 .4.1 1.1 1.1 0 0 0 .8-.3 1 1 0 0 0 .2-.7v-2.7a1 1 0 0 0-.1-.5.8.8 0 0 0-.4-.3 1.1 1.1 0 0 0-.5-.1 1.3 1.3 0 0 0-.7.2.6.6 0 0 0-.3.6V79a1 1 0 0 0 .1.6Zm1.6-.2a.5.5 0 0 1-.3.2.4.4 0 0 1-.4-.1.6.6 0 0 1-.1-.5v-2.6a.7.7 0 0 1 0-.4.4.4 0 0 1 .4-.2.3.3 0 0 1 .3.2 1 1 0 0 1 .1.5V79a.9.9 0 0 1 0 .4Zm2.8.6a.1.1 0 0 0 .1 0 1 1 0 0 0 0-.3v-1.3a1 1 0 0 0-.3-.7.8.8 0 0 0 .3-.6v-.8a.8.8 0 0 0-.1-.5 1 1 0 0 0-.4-.3 1.1 1.1 0 0 0-.5 0 1.4 1.4 0 0 0-.7.1.6.6 0 0 0-.4.6v3.2a.7.7 0 0 0 .2.5.4.4 0 0 0 .3.1.4.4 0 0 0 .3-.2.8.8 0 0 0 .1-.4v-1.5h.5a.5.5 0 0 1 .3.1.6.6 0 0 1 .1.4v1.3a.6.6 0 0 0 0 .2.1.1 0 0 0 .2.1Zm-.6-4.2a.4.4 0 0 1 .3.2.7.7 0 0 1 .1.4v.6a.6.6 0 0 1 0 .4.5.5 0 0 1-.4.1h-.4v-1.2a.5.5 0 0 1 .1-.3.5.5 0 0 1 .4-.2Zm3.2 4.2h.1a1 1 0 0 0 0-.3v-1.3a1 1 0 0 0-.2-.7.8.8 0 0 0 .2-.6v-.8a.9.9 0 0 0-.1-.5 1 1 0 0 0-.4-.3 1.2 1.2 0 0 0-.5 0 1.4 1.4 0 0 0-.7.1.6.6 0 0 0-.3.6v3.2a.6.6 0 0 0 .1.5.4.4 0 0 0 .3.1.4.4 0 0 0 .4-.2.7.7 0 0 0 0-.4v-1.5h.5a.4.4 0 0 1 .3.1.6.6 0 0 1 .2.4v1.3a.6.6 0 0 0 0 .2.1.1 0 0 0 0 .1Zm-.6-4.2a.4.4 0 0 1 .3.2.6.6 0 0 1 .1.4v.6a.6.6 0 0 1 0 .4.4.4 0 0 1-.4.1h-.5v-1.2a.5.5 0 0 1 .2-.3.5.5 0 0 1 .3-.2Zm2-.3a.5.5 0 0 0-.3-.1.5.5 0 0 0-.3.1.4.4 0 0 0-.2.4v3.5a.7.7 0 0 0 .2.4.4.4 0 0 0 .3.2.4.4 0 0 0 .3-.2.7.7 0 0 0 .1-.4v-3.5a.5.5 0 0 0-.1-.4Zm2.3 4.5h.1a.5.5 0 0 0 .4-.1.5.5 0 0 0 .1-.4v-3a1 1 0 0 0-.2-.7 1.2 1.2 0 0 0-.5-.3 2.5 2.5 0 0 0-.4 0 1.3 1.3 0 0 0-.5.1 1 1 0 0 0-.4.3.8.8 0 0 0-.1.5V80Zm-1-4a.6.6 0 0 1 .2-.2.5.5 0 0 1 .4.2.6.6 0 0 1 .1.4V79a.8.8 0 0 1-.1.5.4.4 0 0 1-.3.2h-.5v-3.5a.3.3 0 0 1 .1-.3Zm2.2 3.6a1 1 0 0 0 .4.3 1 1 0 0 0 .4.1h.1a1 1 0 0 0 .8-.3 1 1 0 0 0 .2-.7v-2.7a1 1 0 0 0-.2-.5.8.8 0 0 0-.3-.3 1.2 1.2 0 0 0-.5-.1 1.3 1.3 0 0 0-.7.2.6.6 0 0 0-.3.6V79a1 1 0 0 0 0 .6Zm1.5-.2a.4.4 0 0 1-.3.2.4.4 0 0 1-.3-.1.6.6 0 0 1-.2-.5v-2.6a.6.6 0 0 1 .1-.4.4.4 0 0 1 .4-.2.3.3 0 0 1 .3.2 1 1 0 0 1 0 .5V79a.9.9 0 0 1 0 .4ZM282.4 83.6V83h7.2v.6zM282.4 79.7v-1.4h7.2v1.4zM282.4 80.8v-.4h7.2v.4zM282.5 72.4v-.8h7.2v.8zM282.4 75.5v-.4h7.2v.4zM282.4 82.4v-1.1h7.2v1.1zM282.3 77.9v-1.7h7.2v1.7zM282.4 74.4v-1.5h7.2v1.5zM282.3 71.2v-.6h7.2v.6zM282.4 67.3v-1.4h7.2v1.4zM282.3 68.4V68h7.2v.4zM282.4 60v-.8h7.2v.8zM282.4 63.1v-.4h7.2v.4zM282.3 70v-1.1h7.2V70zM282.4 65.4v-1.7h7.2v1.7zM282.4 62v-1.5h7.2V62z" class="prefix__f09a9af3-0782-43fb-b887-a03195b69b4f"/><path d="M241.5 58.8h33.3M243.7 57.2h28.9M274.8 84.2h-33.3M272.6 85.8h-28.9" class="prefix__a8c78a02-3504-4bad-a3ac-57c5335d4cf3"/><path d="M291.2 73.4h1v1.4h-.6a1.2 1.2 0 0 0 0 .4 1.2 1.2 0 0 0 0 .4h1l.2-1.8a.6.6 0 0 1 0-.3.3.3 0 0 1 .3 0h2.9c.2 0 .3.3.3 1h.6v1.4h-.6q0 1.1-.3 1.1h-1.7v-1.4h1.4a1.2 1.2 0 0 0 0-.4 1.2 1.2 0 0 0 0-.4h-2.2l-.2 1.8c0 .2-.2.3-.3.4h-1.7c-.2 0-.3-.4-.4-1.1h-.6v-1.4h.6c0-.7.1-1 .3-1Zm2-4.4v2.2h2.2V69h.8v3.5h-3.4c-.2 0-.3-.2-.3-.5v-1.6h-.8v2.1h-.8v-2.7c0-.5.2-.8.5-.8Zm3-3.5v2.8h-.8v-2h-2.2v2H291v-3.5h.8V67h.8v-1.5q0-.6.4-.6h2.8a.4.4 0 0 1 .4 0 1 1 0 0 1 0 .6Z" class="prefix__f09a9af3-0782-43fb-b887-a03195b69b4f"/><path fill="#ff8c00" d="M280.3 101.8a2 2 0 0 1-1.9 2v2.7a2 2 0 0 1 0 4v2.7a2 2 0 0 1 0 4v2.7a2 2 0 0 1 0 4v2.7a1.9 1.9 0 0 1 1.9 1.9h12.9a3.3 3.3 0 0 1 3.1-3.5V98.6a3.3 3.3 0 0 1-3.1-3.4h-13a2 2 0 0 1-1.8 2v2.6a2 2 0 0 1 1.9 2Z"/><path d="M293.2 95.2h-13a1.8 1.8 0 1 1-3.6 0h-36.8a3.3 3.3 0 0 1-3.2 3.4V125a3.4 3.4 0 0 1 3.2 3.5h36.8a1.8 1.8 0 1 1 3.7 0h12.9a3.3 3.3 0 0 1 3.1-3.5V98.6a3.3 3.3 0 0 1-3.1-3.4Zm-14.7 28.7a2 2 0 1 1 1.8-2 2 2 0 0 1-1.9 2Zm0-6.7a2 2 0 1 1 1.8-2 2 2 0 0 1-1.9 2Zm0-6.7a2 2 0 1 1 1.8-2 2 2 0 0 1-1.9 2Zm0-6.7a2 2 0 1 1 1.8-2 2 2 0 0 1-1.9 2Z" class="prefix__a8c78a02-3504-4bad-a3ac-57c5335d4cf3"/><path d="M239.1 102h1.5v8.8h-1.5v-7h-.9Zm9.6.4v1.5h-1.5v-.9a1 1 0 0 0-.5-.1 1 1 0 0 0-.4.1v1.7l2 .3a.6.6 0 0 1 .3.1.6.6 0 0 1 0 .4v5q0 .3-.8.4a6 6 0 0 1-1.1.1 5.5 5.5 0 0 1-1.1 0c-.6-.2-.8-.4-.8-.6v-2.8h1.5v2.3a1 1 0 0 0 .4 0 1 1 0 0 0 .5 0V106l-2-.3c-.3-.1-.4-.2-.4-.5v-2.9c0-.2.3-.4.8-.5a5.3 5.3 0 0 1 1.2-.2 4.3 4.3 0 0 1 1.3.2c.4.1.6.3.6.5Zm2.3 6.4v.7h2v1.3h-3.4V102h3.4v1.3h-2v4.4l1.1-.1v1.2Zm3.1-6.8h2.7a6.9 6.9 0 0 1 2.6.3.8.8 0 0 1 .5.7v7.8h-1.5v-7.6c0-.2-.3-.3-.6-.2v7.8h-1.5v-7.6a.9.9 0 0 0-.7-.2v7.8h-1.5Zm7.5 0h2.1l1.4 8.8H264v-.6h-1.6l-.1.6h-1.5Zm2 7-.8-4.9-.5 5Zm2.1-7h1.5a7.7 7.7 0 0 1 1.6.1c.7.2 1 .5 1 1v7.7h-1.5v-7.6a1 1 0 0 0-.8-.3 1 1 0 0 0-.3 0v7.8h-1.5Zm5.9 0h2.1l1.4 8.8H274l-.1-.6h-1.6v.6h-1.5Zm2 7-.7-4.9-.5 5Zm-.7 13.6h-31.1a2.8 2.8 0 0 0-2.9-2.8v-4.2a2.8 2.8 0 0 0 2.8-2.8H273a2.8 2.8 0 0 0 2.8 2.8v4.2a2.8 2.8 0 0 0-2.8 2.8Zm-30.4-6.4v-.1h.6a.2.2 0 0 0 .1 0 .1.1 0 0 0 0-.2v-.1h-2.3a.1.1 0 0 0-.1 0 .3.3 0 0 0 0 .2h.6l.1.2v4a1 1 0 0 0 .1.5.4.4 0 0 0 .3.2.3.3 0 0 0 .3-.2.9.9 0 0 0 .2-.5v-4Zm2-.3a.4.4 0 0 0-.3-.2.5.5 0 0 0-.3.2.6.6 0 0 0-.2.4v4a1 1 0 0 0 .2.4.4.4 0 0 0 .3.2.4.4 0 0 0 .3-.2.9.9 0 0 0 .1-.5v-4a.6.6 0 0 0-.1-.3Zm2.5 2.6a.2.2 0 0 0 0-.1.2.2 0 0 0-.1-.2h-.7c-.1 0-.2 0-.2-.2v-1.6c0-.2 0-.3.2-.3h.7a.2.2 0 0 0 .1-.1.3.3 0 0 0 0-.2.1.1 0 0 0-.1 0h-1.3a.4.4 0 0 0-.3.2.8.8 0 0 0-.1.5v4a.5.5 0 0 0 .5.5h1.5a.2.2 0 0 0 .2-.1c0-.2-.1-.2-.3-.2h-.6a.4.4 0 0 1-.3-.2.6.6 0 0 1-.2-.5v-1.3a.2.2 0 0 1 0-.1.1.1 0 0 1 .2 0h.6a.2.2 0 0 0 .2-.1Zm.8 2.3a.1.1 0 0 0 0 .1c.2 0 .2 0 .2-.2v-2a.2.2 0 0 1 0-.2.2.2 0 0 1 .1 0l.2.2.5 2a.3.3 0 0 0 0 .2c.1 0 .2 0 .2-.2l.6-2.1c0-.2.1-.3.2-.3a.2.2 0 0 1 .1.2v1.8a.7.7 0 0 0 .1.4.3.3 0 0 0 .3.2.4.4 0 0 0 .3-.2.7.7 0 0 0 .1-.4v-4a.7.7 0 0 0-.1-.4.4.4 0 0 0-.3-.2c-.2 0-.3.2-.4.6l-.6 2q0 .4-.2.4l-.2-.3-.5-2.2q-.2-.4-.5-.4c-.2 0-.4.2-.4.6v4.2a.4.4 0 0 0 .3.2Zm4-4.8a1 1 0 0 0-.3.8v3.2a.6.6 0 0 1 0 .1 1.6 1.6 0 0 0 0 .6.4.4 0 0 0 .4.2.3.3 0 0 0 .3-.1.7.7 0 0 0 .1-.5v-1h.2a1 1 0 0 0 .7-.2.9.9 0 0 0 .2-.7v-1.9c0-.5-.3-.8-1-.8a1 1 0 0 0-.6.3Zm.4.2a.3.3 0 0 1 .3.1 1 1 0 0 1 .1.5v1.6a.6.6 0 0 1-.1.4.4.4 0 0 1-.3.1.4.4 0 0 1-.3-.1.6.6 0 0 1-.1-.4v-1.7a.7.7 0 0 1 0-.4.4.4 0 0 1 .4-.2Zm1.8 4.2a1 1 0 0 0 .8.5 1 1 0 0 0 .8-.3 1.3 1.3 0 0 0 .2-.8v-3a1.3 1.3 0 0 0-.1-.6.8.8 0 0 0-.3-.3 1 1 0 0 0-.5-.2 1 1 0 0 0-.7.3.7.7 0 0 0-.3.6v3.2a1.2 1.2 0 0 0 .2.6Zm1.5-.2a.4.4 0 0 1-.3.3.4.4 0 0 1-.3-.2.8.8 0 0 1-.2-.5v-3a.8.8 0 0 1 .1-.4.4.4 0 0 1 .3-.2.3.3 0 0 1 .3.2 1.2 1.2 0 0 1 .1.5v2.9a1 1 0 0 1 0 .4Zm2.6.4a.9.9 0 0 0 .6.3 1.2 1.2 0 0 0 .8-.3.8.8 0 0 0 .2-.6v-.8a.8.8 0 0 0 0-.5.3.3 0 0 0-.3-.1.4.4 0 0 0-.3.2 1.6 1.6 0 0 0-.1.6v.5a.7.7 0 0 1-.2.4.4.4 0 0 1-.3.2.4.4 0 0 1-.3-.2.7.7 0 0 1-.1-.4v-3.2a.5.5 0 0 1 .1-.3.4.4 0 0 1 .3-.2.4.4 0 0 1 .3.1.7.7 0 0 1 .2.5v.5c0 .5 0 .8.4.8a.3.3 0 0 0 .2-.2.8.8 0 0 0 .1-.4v-.8a.9.9 0 0 0-.1-.5 1 1 0 0 0-.3-.3 1.2 1.2 0 0 0-.5-.2 1 1 0 0 0-.7.3.8.8 0 0 0-.3.7v3.2a1 1 0 0 0 .3.7Zm2.2-.2a1 1 0 0 0 .4.4 1 1 0 0 0 .4 0h.1a1 1 0 0 0 .7-.2 1.3 1.3 0 0 0 .2-.8v-3a1.3 1.3 0 0 0-.1-.6.8.8 0 0 0-.3-.3 1 1 0 0 0-.5-.2 1 1 0 0 0-.7.3.7.7 0 0 0-.3.6v3.2a1.2 1.2 0 0 0 .2.6Zm1.5-.2a.4.4 0 0 1-.3.3.4.4 0 0 1-.3-.2.8.8 0 0 1-.2-.5v-3a.8.8 0 0 1 .1-.4.4.4 0 0 1 .3-.2.3.3 0 0 1 .3.2 1.1 1.1 0 0 1 .2.5v2.9a1 1 0 0 1 0 .4Zm2.7.7a.1.1 0 0 0 .1 0 1.2 1.2 0 0 0 0-.3V119a1.2 1.2 0 0 0-.3-.8 1 1 0 0 0 .3-.6v-1a1 1 0 0 0-.1-.5 1 1 0 0 0-.9-.4 1.2 1.2 0 0 0-.6.2.7.7 0 0 0-.4.6v3.6a.9.9 0 0 0 .2.5.3.3 0 0 0 .3.2.3.3 0 0 0 .3-.2 1 1 0 0 0 0-.5v-1.7h.5a.4.4 0 0 1 .3.2.7.7 0 0 1 .2.5v1.3a.8.8 0 0 0 0 .3v.1Zm-.6-4.7a.4.4 0 0 1 .3.2.8.8 0 0 1 .1.4v.8a.7.7 0 0 1 0 .4.4.4 0 0 1-.4.2h-.4v-1.4a.6.6 0 0 1 .1-.4.4.4 0 0 1 .3-.2Zm3.1 4.7h.1a1.2 1.2 0 0 0 0-.3V119a1.2 1.2 0 0 0-.3-.8 1 1 0 0 0 .3-.6v-1a1 1 0 0 0-.1-.5 1 1 0 0 0-.4-.3 1 1 0 0 0-.4-.1 1.2 1.2 0 0 0-.7.2.7.7 0 0 0-.4.6v3.6a.8.8 0 0 0 .2.5.4.4 0 0 0 .6 0 1 1 0 0 0 0-.4v-1.7h.5a.4.4 0 0 1 .3.2.7.7 0 0 1 .2.4v1.4a.8.8 0 0 0 0 .3Zm-.6-4.7a.3.3 0 0 1 .3.2.8.8 0 0 1 .1.4v.8a.7.7 0 0 1 0 .4.4.4 0 0 1-.4.2h-.4v-1.4a.6.6 0 0 1 .1-.4.4.4 0 0 1 .3-.2Zm2-.3a.4.4 0 0 0-.4-.2.5.5 0 0 0-.3.2.6.6 0 0 0-.1.4v4a1 1 0 0 0 .1.4.4.4 0 0 0 .3.2.4.4 0 0 0 .3-.2.9.9 0 0 0 .1-.5v-4a.6.6 0 0 0 0-.3Zm2 5h.2a.4.4 0 0 0 .3-.2.7.7 0 0 0 .2-.4v-3.4a1.1 1.1 0 0 0-.3-.8 1 1 0 0 0-.4-.3 1.7 1.7 0 0 0-.4 0 1.1 1.1 0 0 0-.5 0 1 1 0 0 0-.3.4 1 1 0 0 0-.2.5v4.2Zm-1-4.6a.6.6 0 0 1 .3-.1.4.4 0 0 1 .4.2.7.7 0 0 1 .1.4v3a1 1 0 0 1-.1.5.4.4 0 0 1-.3.2h-.5v-3.8a.4.4 0 0 1 .1-.4Zm2.2 4.1a1 1 0 0 0 .4.4 1 1 0 0 0 .4 0 1 1 0 0 0 .8-.2 1.3 1.3 0 0 0 .2-.8v-3a1.3 1.3 0 0 0-.1-.6.8.8 0 0 0-.4-.4 1 1 0 0 0-.5 0 1 1 0 0 0-.6.2.7.7 0 0 0-.3.6v3.2a1.2 1.2 0 0 0 .1.6Zm1.5-.2a.4.4 0 0 1-.3.3.4.4 0 0 1-.4-.2.8.8 0 0 1-.1-.5v-3a.8.8 0 0 1 .1-.5.4.4 0 0 1 .3-.1.3.3 0 0 1 .3.1 1.1 1.1 0 0 1 .1.6v2.9a1 1 0 0 1 0 .4ZM281.4 124v-.6h7.2v.6zM281.4 120.1v-1.4h7.2v1.4zM281.4 121.2v-.4h7.2v.4zM281.4 112.9v-.8h7.2v.8zM281.4 115.9v-.4h7.2v.4zM281.4 122.8v-1.1h7.2v1.1zM281.4 118.1v-1.7h7.2v1.7zM281.4 114.8v-1.5h7.2v1.5zM281.4 111.5v-.6h7.2v.6zM281.4 107.7v-1.4h7.2v1.4zM281.3 108.8v-.4h7.2v.4zM281.3 100.5v-.8h7.2v.8zM281.3 103.5v-.4h7.2v.4zM281.4 110.3v-1.1h7.2v1.1zM281.4 105.7V104h7.2v1.7zM281.4 102.4v-1.5h7.2v1.5z" class="prefix__f09a9af3-0782-43fb-b887-a03195b69b4f"/><path d="M240.4 99.1h33.3M242.6 97.5h28.9M273.7 124.5h-33.3M271.5 126h-28.9" class="prefix__a8c78a02-3504-4bad-a3ac-57c5335d4cf3"/><path d="M290.1 113.7h1v1.4h-.6a1.3 1.3 0 0 0 0 .8h1l.2-1.8a.6.6 0 0 1 0-.3.3.3 0 0 1 .3-.1h2.9q.2 0 .3 1h.6v1.5h-.6c0 .7-.1 1-.3 1h-1.7V116h1.4a1.1 1.1 0 0 0 0-.8h-2.3l-.2 1.8c0 .2 0 .3-.2.3h-1.7c-.2 0-.3-.3-.4-1h-.6v-1.4h.6c0-.7.2-1.1.3-1.1Zm5-3.7v2.2c0 .4-.1.6-.5.6h-4.4q-.3 0-.3-.6v-2.3c0-.3 0-.5.2-.5h4.6c.3 0 .4.1.4.6Zm-4.5.7v.8h.8v-.8Zm3.7.8v-.8h-2.1v.8Zm.7-5.7v2.8h-.7v-2h-2.1v2h-2.3v-3.5h.7v2.1h.8v-1.4c0-.4.1-.6.4-.7h2.8a.4.4 0 0 1 .4.2 1.2 1.2 0 0 1 0 .5Z" class="prefix__f09a9af3-0782-43fb-b887-a03195b69b4f"/></g><g id="prefix__bdf6cb6e-47e9-4ca4-bb85-2dd796e3e59f" data-name="TEXT BLANCO"><path fill="none" stroke="#fff9f1" stroke-miterlimit="10" d="M146.5 57.2h-25.3a3.6 3.6 0 1 1-7.2 0H42c0 4-2.8 7.2-6.3 7.2V119c3.5 0 6.3 3.2 6.3 7.2h72a3.6 3.6 0 1 1 7.1 0h25.3c0-4 2.8-7.2 6.2-7.2V64.4c-3.4 0-6.2-3.2-6.2-7.2Zm-28.9 59.5a4.2 4.2 0 1 1 3.6-4 3.9 3.9 0 0 1-3.6 4Zm0-13.8a4.2 4.2 0 1 1 3.6-4.1 3.9 3.9 0 0 1-3.6 4.1Zm0-13.8a4.2 4.2 0 1 1 3.6-4.2 3.9 3.9 0 0 1-3.6 4.1Zm0-13.9a4.2 4.2 0 1 1 3.6-4.1 3.9 3.9 0 0 1-3.6 4.1Z"/><path d="M50.4 71.5V87c-.2.8-.7 1.2-1.7 1.2H42v-2.6h5V78h-5v-2.6h5v-2.7h-5V70h6.5a2 2 0 0 1 1.3.5 1.4 1.4 0 0 1 .6 1Zm8.3-1.5h3.2v13.7l2.3-.1V69.9h3.3v18h-3.3v-2l-2.3.1v1.8h-3.2Zm12.7-.1h4.1a2.3 2.3 0 0 1 1.5.5 1.4 1.4 0 0 1 .6 1.1v14.8a1.4 1.4 0 0 1-.6 1.1 2.3 2.3 0 0 1-1.5.5h-4.1a2.3 2.3 0 0 1-1.5-.5 1.4 1.4 0 0 1-.6-1.1V71.5a1.4 1.4 0 0 1 .6-1.1 2.3 2.3 0 0 1 1.5-.5Zm1 1.9V86h2V71.8Zm6.8-1.8H85a2.3 2.3 0 0 1 1.8 1.7 42.4 42.4 0 0 1 .7 9.8 2.2 2.2 0 0 1-1.5 2.1l-.4.1 2.6 4.3-3.1 1.4-2.4-4.5h-.2v3h-3.2Zm3.2 3v8.5l1-.4q.8-.3.8-.8a28 28 0 0 0 0-3.3 14.9 14.9 0 0 0-.6-3.3.8.8 0 0 0-.9-.6Zm8.9-3h4.6l3 17.9h-2.5l-.3-1.4-3.4.2-.1 1.2h-3.3Zm4.4 14.2-1.6-10L93 84.5Zm13-13.4v3.1h-3.3V72a2.4 2.4 0 0 0-1-.3 2 2 0 0 0-1 .3v3.4l4.3.6a1.3 1.3 0 0 1 .8.3 1.1 1.1 0 0 1 .2.7v10.1c0 .5-.6.8-1.8 1a13.3 13.3 0 0 1-2.5.2 12.3 12.3 0 0 1-2.5-.2c-1.2-.2-1.7-.6-1.7-1.1v-5.7h3.2V86a2.3 2.3 0 0 0 1 .2 2.5 2.5 0 0 0 1-.2v-7.7l-4.4-.6c-.6-.2-.8-.5-.8-1v-5.9c0-.4.6-.8 1.7-1a12.8 12.8 0 0 1 2.6-.4 10.7 10.7 0 0 1 2.9.3c.9.3 1.3.6 1.3 1Zm-1.2 43.9H41a2.8 2.8 0 0 0-2.8-2.8V97a2.8 2.8 0 0 0 2.8-2.9h66.5a2.8 2.8 0 0 0 2.9 2.9v14.7a2.8 2.8 0 0 0-2.9 2.9ZM43 100a.2.2 0 0 1 .1-.1h1.1a.4.4 0 0 0 .3-.1.3.3 0 0 0 0-.2c0-.3 0-.4-.2-.4h-4.5a.3.3 0 0 0-.2.1.4.4 0 0 0 0 .3.5.5 0 0 0 0 .2l.2.1H41l.1.2a.9.9 0 0 1 0 .3v8a1.8 1.8 0 0 0 .4 1 .7.7 0 0 0 .6.4.7.7 0 0 0 .6-.4 2 2 0 0 0 .2-1v-8a.6.6 0 0 1 0-.4Zm4-.6a.8.8 0 0 0-.6-.3.9.9 0 0 0-.6.4 1.2 1.2 0 0 0-.3.7v8a1.8 1.8 0 0 0 .3 1 .7.7 0 0 0 .6.4.7.7 0 0 0 .6-.4 1.9 1.9 0 0 0 .3-1v-8a1.2 1.2 0 0 0-.3-.8Zm5 5.3a.4.4 0 0 0 0-.2.3.3 0 0 0-.1-.3.3.3 0 0 0-.2 0h-1.4c-.2 0-.3-.2-.3-.5v-3.2c0-.3 0-.5.3-.5h1.3a.3.3 0 0 0 .3-.1.3.3 0 0 0 0-.3.5.5 0 0 0 0-.2.2.2 0 0 0-.2-.1h-2.5a.7.7 0 0 0-.7.4 1.6 1.6 0 0 0-.2.9v8a1.2 1.2 0 0 0 .3.9 1 1 0 0 0 .8.3H52a.4.4 0 0 0 .3-.1.4.4 0 0 0 0-.3c0-.3 0-.4-.4-.4h-1.2a.8.8 0 0 1-.6-.3 1.2 1.2 0 0 1-.3-.8v-2.6a.3.3 0 0 1 .1-.3.3.3 0 0 1 .2-.1h1.3a.4.4 0 0 0 .3-.2Zm1.5 4.8a.3.3 0 0 0 .2.1c.2 0 .2-.1.2-.4V105a.5.5 0 0 1 .1-.3.3.3 0 0 1 .2-.2c.2 0 .3.2.3.5l1.1 4a1 1 0 0 0 0 .1v.2a.7.7 0 0 0 .1.2.2.2 0 0 0 .1 0c.2 0 .3 0 .4-.3l1-4.3.4-.6a.4.4 0 0 1 .3.4v3.7a1.6 1.6 0 0 0 .3.8.7.7 0 0 0 .5.4.7.7 0 0 0 .6-.3 1.3 1.3 0 0 0 .3-.8v-8.1a1.4 1.4 0 0 0-.3-.9.7.7 0 0 0-.6-.3c-.4 0-.7.4-.9 1.1l-1 4.2c-.1.4-.3.6-.4.6s-.3-.2-.4-.5l-.9-4.5c-.2-.6-.4-1-.8-1-.6 0-.8.5-.8 1.2v8.7a.6.6 0 0 0 0 .4Zm7.9-9.8a2 2 0 0 0-.6 1.5v6.6a2.6 2.6 0 0 1 0 .3 3 3 0 0 0 .2 1 .8.8 0 0 0 .7.5h.1a.7.7 0 0 0 .5-.3 1.4 1.4 0 0 0 .3-.8v-2h.3a1.9 1.9 0 0 0 1.3-.5 1.8 1.8 0 0 0 .6-1.4v-3.8c0-1-.7-1.6-2-1.6a1.9 1.9 0 0 0-1.4.5Zm.8.3a.7.7 0 0 1 .6.4 2 2 0 0 1 .3 1v3.1a1.2 1.2 0 0 1-.3.8.7.7 0 0 1-.6.3.7.7 0 0 1-.5-.3 1.2 1.2 0 0 1-.3-.8v-3.4a1.4 1.4 0 0 1 .2-.7.8.8 0 0 1 .6-.4Zm3.6 8.7a1.8 1.8 0 0 0 .8.7 1.7 1.7 0 0 0 .8.2h.1a1.8 1.8 0 0 0 1.4-.6 2.5 2.5 0 0 0 .4-1.6v-6a2.8 2.8 0 0 0-.2-1.2 1.6 1.6 0 0 0-.7-.8 1.9 1.9 0 0 0-1-.2 2.1 2.1 0 0 0-1.2.5 1.5 1.5 0 0 0-.6 1.2v6.5a2.4 2.4 0 0 0 .2 1.3Zm3-.4a.8.8 0 0 1-.6.5H68a.7.7 0 0 1-.6-.4 1.6 1.6 0 0 1-.3-1v-6a1.7 1.7 0 0 1 .3-1 .8.8 0 0 1 .5-.4h.1a.7.7 0 0 1 .6.4 2.5 2.5 0 0 1 .2 1.2v5.8a2 2 0 0 1-.2.9Zm5-8.6a2 2 0 0 0-.5 1.5v6.6a1.3 1.3 0 0 1 0 .3 2.8 2.8 0 0 0 .1 1 .8.8 0 0 0 .7.5h.1a.6.6 0 0 0 .5-.3 1.3 1.3 0 0 0 .3-.8v-2h.4a1.9 1.9 0 0 0 1.2-.5 1.8 1.8 0 0 0 .6-1.4v-3.8c0-1-.7-1.6-2-1.6a1.8 1.8 0 0 0-1.4.5Zm.9.3a.7.7 0 0 1 .5.4 1.9 1.9 0 0 1 .3 1v3.1a1.2 1.2 0 0 1-.3.8.8.8 0 0 1-.5.3.8.8 0 0 1-.6-.3 1.3 1.3 0 0 1-.3-.8v-3.4a1.3 1.3 0 0 1 .3-.7.8.8 0 0 1 .5-.4Zm3.4 8.6v.2a1.8 1.8 0 0 0-.2.5c0 .2.1.3.3.3a.2.2 0 0 0 .2 0 .7.7 0 0 0 0-.3l.1-.3.4-1.3c0-.2.1-.3.3-.3H81c.2 0 .3.1.4.5l.2 1c.2.4.4.7.8.7a.8.8 0 0 0 .7-.4 1.1 1.1 0 0 0 .2-.7 3.2 3.2 0 0 0-.2-.9l-2.1-8c-.1-.3-.3-.5-.4-.5a.3.3 0 0 0-.2.2 2.2 2.2 0 0 0-.1.4l-2.2 8.7-.1.2Zm2-5a.2.2 0 0 1 .2.2 2 2 0 0 1 .1.4l.5 1.7a.5.5 0 0 0 0 .1 1.4 1.4 0 0 1 0 .2.6.6 0 0 1 0 .3.2.2 0 0 1-.2.1h-1.1a.2.2 0 0 1-.2 0 1.2 1.2 0 0 1-.1-.4.7.7 0 0 0 0-.2l.5-1.9c0-.2.1-.4.3-.4Zm4.8 5.5a2 2 0 0 0 1.2.5h.1a2 2 0 0 0 1.4-.5 1.8 1.8 0 0 0 .6-1.5v-7.8a1.2 1.2 0 0 0 0-.4c0-.2-.2-.2-.3-.2-.1 0-.2.2-.2.5v8a1.2 1.2 0 0 1-.3.7.7.7 0 0 1-.6.3.7.7 0 0 1-.5-.3 1.4 1.4 0 0 1-.2-.8v-7a1.8 1.8 0 0 0-.3-1 .7.7 0 0 0-.6-.3.7.7 0 0 0-.6.3 1.6 1.6 0 0 0-.3 1v7.3a1.6 1.6 0 0 0 .6 1.2Zm6.8-6.1a.8.8 0 0 0 .6.3.8.8 0 0 0 .5-.4 1.2 1.2 0 0 0 .3-.8V101a1.5 1.5 0 0 0-.6-1.2 2.2 2.2 0 0 0-1.4-.5 2 2 0 0 0-1 .2 2 2 0 0 0-.7.7 2.2 2.2 0 0 0-.3 1.2v1.7a2.1 2.1 0 0 0 .8 1.8l2 1.5c.4.4.6.7.6 1v.5a1 1 0 0 1-.2.6.7.7 0 0 1-.6.4.7.7 0 0 1-.6-.4 1 1 0 0 1-.3-.6v-.9a1.8 1.8 0 0 0-.2-.9.7.7 0 0 0-.6-.4.8.8 0 0 0-.6.3 1.1 1.1 0 0 0-.2.7v1.5a1.3 1.3 0 0 0 .6 1.1 2 2 0 0 0 1.1.4h.2a2.2 2.2 0 0 0 1.3-.5 1.6 1.6 0 0 0 .6-1.4v-2a2 2 0 0 0-.7-1.6l-2-1.5a1.5 1.5 0 0 1-.7-1.2 1.4 1.4 0 0 1 .2-.8.8.8 0 0 1 .7-.4.8.8 0 0 1 .6.3 1.3 1.3 0 0 1 .2.8v1a1 1 0 0 0 .4.7Zm2.5 5.6-.1.2a1.8 1.8 0 0 0 0 .5l.1.3a.2.2 0 0 0 .2 0 .7.7 0 0 0 .1-.3l.1-.3.3-1.3c.1-.2.2-.3.4-.3H97c.2 0 .3.2.4.5l.2 1q.2.7.8.7a.8.8 0 0 0 .6-.3 1.1 1.1 0 0 0 .3-.8 3.3 3.3 0 0 0-.2-.9l-2.1-8c-.1-.3-.3-.5-.4-.5a.3.3 0 0 0-.2.2 1.8 1.8 0 0 0-.1.4l-2.2 8.7v.2Zm2-4.9a.2.2 0 0 1 .2.1 2.5 2.5 0 0 1 .1.5l.5 1.6v.4a.5.5 0 0 1-.1.2.2.2 0 0 1-.2.2h-1a.2.2 0 0 1-.3-.2 2.6 2.6 0 0 1 0-.3.5.5 0 0 0 0-.2l.4-1.9c0-.2.2-.4.3-.4Zm7 6h.4a.8.8 0 0 0 .7-.4 1.3 1.3 0 0 0 .2-.8v-7a2.4 2.4 0 0 0-.4-1.5 2 2 0 0 0-1-.7 2.9 2.9 0 0 0-.7 0 2 2 0 0 0-1 .2 2 2 0 0 0-.6.6 2.1 2.1 0 0 0-.3 1.1v8.4Zm-2-9.3a1 1 0 0 1 .7-.2.8.8 0 0 1 .6.3 1.4 1.4 0 0 1 .3 1v6a2 2 0 0 1-.2 1 .7.7 0 0 1-.7.3h-.9V101a.8.8 0 0 1 .3-.6Zm4.4 8.3a1.8 1.8 0 0 0 1.5 1h.2a1.8 1.8 0 0 0 1.4-.7 2.5 2.5 0 0 0 .4-1.6v-6a2.7 2.7 0 0 0-.3-1.2 1.6 1.6 0 0 0-.6-.8 1.8 1.8 0 0 0-1-.2 2 2 0 0 0-1.3.5 1.5 1.5 0 0 0-.6 1.2v6.5a2.5 2.5 0 0 0 .3 1.3Zm2.8-.4a.8.8 0 0 1-.5.5h-.1a.8.8 0 0 1-.6-.4 1.7 1.7 0 0 1-.3-1v-6a1.7 1.7 0 0 1 .2-1 .8.8 0 0 1 .6-.4h.1a.7.7 0 0 1 .6.4 2.5 2.5 0 0 1 .2 1.2v5.8a2.1 2.1 0 0 1-.1.9Z" class="prefix__f09a9af3-0782-43fb-b887-a03195b69b4f"/><path d="M43 65.3h65.3M47.3 62.1H104M108.3 118.1H43M104 121.3H47.3" class="prefix__a8c78a02-3504-4bad-a3ac-57c5335d4cf3"/><rect width="323.5" height="252.5" x="8.9" y="7" fill="none" stroke="#fff" stroke-dasharray="5.03 10.06" stroke-miterlimit="10" stroke-width="3" rx="11.5"/><path d="M57.5 33.5V38H53V18.1h10.3V21h-6v10l3.5-.2v2.6Zm9.2 4.5V18.1h4.4V38ZM77 18.2h5.7a3.5 3.5 0 0 1 2 .6 1.5 1.5 0 0 1 .8 1.2v2.1h-4.2v-1.7h-2.9V36h2.9v-1h4.2v1.3a1.5 1.5 0 0 1-.9 1.3 3.5 3.5 0 0 1-2 .5h-5.5a3.5 3.5 0 0 1-2-.5 1.5 1.5 0 0 1-.9-1.3V20a1.5 1.5 0 0 1 .8-1.3 3.5 3.5 0 0 1 2-.5Zm10.7-.1h4.4v15.3l3.1-.1V18h4.5v20h-4.5v-2.1l-3 .1v2h-4.5Zm17.1 0h6.3l4 19.9h-3.4l-.3-1.5-4.7.3-.1 1.2H102Zm6 15.9-2.2-11-1.6 11.2Zm17.7-15v3.5H124v-2a3.8 3.8 0 0 0-1.4-.4 3.3 3.3 0 0 0-1.3.3v3.8l5.9.7a1.9 1.9 0 0 1 1 .3 1 1 0 0 1 .2.8v11.2c0 .5-.8.9-2.4 1.1a22.9 22.9 0 0 1-3.4.3 21 21 0 0 1-3.4-.3c-1.5-.2-2.3-.6-2.3-1.2v-6.3h4.4v5.1a3.9 3.9 0 0 0 1.3.3 4.2 4.2 0 0 0 1.4-.3v-8.5l-6-.7c-.8-.1-1.2-.5-1.2-1v-6.6c0-.5.8-1 2.4-1.2a21.8 21.8 0 0 1 3.5-.4 17.5 17.5 0 0 1 3.9.4c1.3.3 1.9.6 1.9 1.2Zm11.5-.7h7.7c1.4.4 2.2 1 2.4 2q1.3 4.8 1 14.2c0 1-.7 1.9-2 2.3a24 24 0 0 1-4.4 1.1 34.2 34.2 0 0 1-4.6.3Zm4.4 2.5v14.5l1.4-.4c.6-.1 1-.5 1-1l.1-2.6a65.6 65.6 0 0 0-.3-7.2 12.7 12.7 0 0 0-.5-2.6c-.2-.5-.6-.7-1.2-.7Zm9.4 17.2V18.1h4.4V38Zm19-19v3.5h-4.4v-2a3.8 3.8 0 0 0-1.4-.4 3.3 3.3 0 0 0-1.3.3v3.8l5.9.7a1.9 1.9 0 0 1 1 .3 1 1 0 0 1 .2.8v11.2c0 .5-.8.9-2.5 1.1a22.9 22.9 0 0 1-3.3.3 21 21 0 0 1-3.4-.3c-1.6-.2-2.3-.6-2.3-1.2v-6.3h4.4v5.1a3.9 3.9 0 0 0 1.3.3 4.2 4.2 0 0 0 1.3-.3v-8.5l-6-.7c-.7-.1-1-.5-1-1v-6.6c0-.5.7-1 2.3-1.2a21.6 21.6 0 0 1 3.4-.4 17.5 17.5 0 0 1 4 .4c1.2.3 1.8.6 1.8 1.2Zm2.5-.9h7.7q2 .5 2.4 2a40.6 40.6 0 0 1 1 10.9c0 1-.7 1.8-2 2.3l-4.6 1.4V38h-4.4Zm4.4 3.5v9.3l1.5-.4c.6-.2 1-.5 1-1a33.2 33.2 0 0 0 0-3.6 12.8 12.8 0 0 0-.9-3.7c-.1-.4-.5-.6-1.1-.6Zm12.1-3.6h5.6a3.5 3.5 0 0 1 2 .6 1.5 1.5 0 0 1 .8 1.3v16.4a1.6 1.6 0 0 1-.8 1.3 3.6 3.6 0 0 1-2 .5h-5.6a3.6 3.6 0 0 1-2-.5 1.5 1.5 0 0 1-.8-1.3V19.9a1.5 1.5 0 0 1 .8-1.3 3.6 3.6 0 0 1 2-.5Zm1.4 2.2V36h2.8V20.2Zm9.4-2.1h4.4a30.2 30.2 0 0 1 4.8.3c1.8.3 2.8 1 3 2V38h-4.5V20.9a3.9 3.9 0 0 0-2.4-.6 4.4 4.4 0 0 0-.9.1V38h-4.4ZM217.4 38V18.1h4.3V38Zm7.5-19.9h7.7c1.4.4 2.2 1 2.4 2a39.5 39.5 0 0 1 1 10.9 2.3 2.3 0 0 1-1.5 2l1.5 1.8a1.5 1.5 0 0 1 .5 1 1.6 1.6 0 0 1-.4 1A3.5 3.5 0 0 1 234 38l-9.1-.1Zm4.5 2.6v10.2l1.4-.4c.6-.2.9-.5 1-1a38 38 0 0 0 0-4 14.6 14.6 0 0 0-.8-4.2c-.1-.4-.5-.6-1.2-.6Zm1.4 13.5-1.4.5v1h3Zm7.7-16.1h4.4v17h6.6V38h-11ZM257 33.5v1.6h5.8V38h-10.2V18.1h10.3V21H257v10l3.4-.2v2.6ZM277.6 19v3.5h-4.4v-2a3.8 3.8 0 0 0-1.4-.4 3.3 3.3 0 0 0-1.3.3v3.8l5.9.7a1.9 1.9 0 0 1 1 .3 1 1 0 0 1 .2.8v11.2c0 .5-.8.9-2.5 1.1a22.9 22.9 0 0 1-3.3.3 21 21 0 0 1-3.4-.3c-1.6-.2-2.3-.6-2.3-1.2v-6.3h4.4v5.1a3.9 3.9 0 0 0 1.3.3 4.2 4.2 0 0 0 1.3-.3v-8.5l-6-.7c-.7-.1-1-.5-1-1v-6.6c0-.5.7-1 2.3-1.2a21.8 21.8 0 0 1 3.4-.4 17.5 17.5 0 0 1 4 .4c1.2.3 1.8.6 1.8 1.2ZM48 156.3h4.7a31.4 31.4 0 0 1 5 .3q3 .5 3.1 2v18.2h-4.7v-17.6a4.2 4.2 0 0 0-2.4-.6 4.9 4.9 0 0 0-1 .1v18.1H48Zm20 .2v18.3h3v-18.3h4.3v18.7a1.6 1.6 0 0 1-.8 1.3 3.8 3.8 0 0 1-2.1.5h-6a3.7 3.7 0 0 1-2-.5 1.6 1.6 0 0 1-.9-1.3v-18.7Zm14.4 15.7v1.7h6.1v3H77.8v-20.6h10.7v3h-6v10.3l3.4-.2v2.6Zm21.6-14.9v3.6h-4.7v-2.2a4.2 4.2 0 0 0-1.4-.3 3.6 3.6 0 0 0-1.4.3v3.9l6.2.7a2 2 0 0 1 1 .4 1.1 1.1 0 0 1 .3.8V176c0 .5-.9 1-2.6 1.2a23.8 23.8 0 0 1-3.5.2 21.7 21.7 0 0 1-3.6-.2c-1.6-.3-2.4-.7-2.4-1.3v-6.5h4.6v5.3a4 4 0 0 0 1.4.3 4.4 4.4 0 0 0 1.4-.3V166l-6.2-.8c-.8-.1-1.2-.5-1.2-1v-6.8c0-.5.9-1 2.5-1.2a22.5 22.5 0 0 1 3.6-.4 19 19 0 0 1 4 .4c1.3.2 2 .6 2 1.1Zm10.7 2.2V177H110v-17.5h-3.3v-3H118v3Zm5.5-3.1h8.1c1.4.4 2.3 1 2.5 2a39.4 39.4 0 0 1 1 11.3c0 1.1-.7 1.9-2.1 2.4h-.5l3.7 5-4.4 1.5-3.4-5.2-.3.1v3.4h-4.6Zm4.6 3.6v9.6l1.5-.4c.7-.3 1-.6 1-1a26.7 26.7 0 0 0 0-3.8 14.7 14.7 0 0 0-.8-3.7c-.2-.4-.6-.7-1.2-.7Zm12.7-3.7h5.8a3.8 3.8 0 0 1 2.1.6 1.6 1.6 0 0 1 .9 1.3V175a1.6 1.6 0 0 1-.9 1.3 3.8 3.8 0 0 1-2 .6h-6a3.8 3.8 0 0 1-2-.6 1.6 1.6 0 0 1-.9-1.3v-16.8a1.6 1.6 0 0 1 .9-1.3 3.8 3.8 0 0 1 2-.6Zm1.4 2.2v16.2h3v-16.2Zm21.9-1.2v3.6h-4.7v-2.2a4.2 4.2 0 0 0-1.4-.3 3.5 3.5 0 0 0-1.4.3v3.9l6.2.7a2 2 0 0 1 1 .4 1.1 1.1 0 0 1 .3.8V176c0 .5-.8 1-2.6 1.2a23.7 23.7 0 0 1-3.5.2 21.7 21.7 0 0 1-3.5-.2c-1.7-.3-2.5-.7-2.5-1.3v-6.5h4.6v5.3a4 4 0 0 0 1.4.3 4.4 4.4 0 0 0 1.4-.3V166l-6.2-.8c-.8-.1-1.2-.5-1.2-1v-6.8c0-.5.9-1 2.5-1.2a22.5 22.5 0 0 1 3.6-.4 19 19 0 0 1 4.1.4c1.3.2 1.9.6 1.9 1.1Zm24.3 0v3.6h-4.6v-2.2a4.2 4.2 0 0 0-1.5-.3 3.6 3.6 0 0 0-1.4.3v3.9l6.2.7a2 2 0 0 1 1 .4 1.1 1.1 0 0 1 .3.8V176c0 .5-.8 1-2.5 1.2a23.8 23.8 0 0 1-3.6.2 21.7 21.7 0 0 1-3.5-.2c-1.6-.3-2.4-.7-2.4-1.3v-6.5h4.6v5.3a4 4 0 0 0 1.3.3 4.4 4.4 0 0 0 1.5-.3V166l-6.3-.8c-.7-.1-1.1-.5-1.1-1v-6.8c0-.5.8-1 2.5-1.2a22.5 22.5 0 0 1 3.5-.4 19 19 0 0 1 4.1.4c1.3.2 2 .6 2 1.1Zm7.4 14.9v1.7h6.1v3h-10.8v-20.6h10.8v3h-6.1v10.3l3.5-.2v2.6Zm9.4-15.8h8c1.4.4 2.3 1 2.5 2a39.4 39.4 0 0 1 1 11.3c0 1.1-.7 1.9-2.1 2.4h-.5l3.7 5-4.4 1.5-3.4-5.2-.3.1v3.4H202Zm4.6 3.6v9.6l1.4-.4c.7-.3 1-.6 1-1a25.2 25.2 0 0 0 0-3.8 14.7 14.7 0 0 0-.8-3.7c-.1-.4-.5-.7-1.2-.7Zm23-3.4-3.5 20.3h-6.3l-3.5-20.3 4.7-.4 2 11.6 2-11.6Zm2.2 20.2v-20.5h4.5v20.5Zm10.7-20.3h6a3.9 3.9 0 0 1 2 .5 1.6 1.6 0 0 1 .8 1.3v2.2H247v-1.8h-3v16.1h3v-1h4.3v1.4a1.6 1.6 0 0 1-.8 1.3 3.8 3.8 0 0 1-2 .5h-6a3.8 3.8 0 0 1-2-.5 1.6 1.6 0 0 1-.9-1.3v-16.9a1.6 1.6 0 0 1 .9-1.3 3.9 3.9 0 0 1 2-.5Zm11.3 20.3v-20.5h4.6v20.5Zm10.8-20.5h5.8a3.8 3.8 0 0 1 2.1.6 1.6 1.6 0 0 1 .9 1.3V175a1.6 1.6 0 0 1-.9 1.3 3.8 3.8 0 0 1-2 .6h-6a3.8 3.8 0 0 1-2-.6 1.6 1.6 0 0 1-.9-1.3v-16.8a1.6 1.6 0 0 1 .9-1.3 3.8 3.8 0 0 1 2-.6Zm1.4 2.2v16.2h3v-16.2Zm21.9-1.2v3.6h-4.7v-2.2a4.2 4.2 0 0 0-1.4-.3 3.5 3.5 0 0 0-1.4.3v3.9l6.2.7a2 2 0 0 1 1 .4 1.1 1.1 0 0 1 .3.8V176q0 .8-2.6 1.2a23.6 23.6 0 0 1-3.5.2 21.7 21.7 0 0 1-3.6-.2c-1.6-.3-2.4-.7-2.4-1.3v-6.5h4.6v5.3a4 4 0 0 0 1.4.3 4.4 4.4 0 0 0 1.4-.3V166l-6.2-.8q-1.2-.2-1.2-1v-6.8c0-.5.9-1 2.5-1.2a22.5 22.5 0 0 1 3.6-.4 19.1 19.1 0 0 1 4.1.4c1.3.2 1.9.6 1.9 1.1Z" class="prefix__f09a9af3-0782-43fb-b887-a03195b69b4f"/><path d="m297 234.4 3.2-4.8h4.8l-6.8 9.3-1 5.7h-4l1.1-6.4-2.1-4.2-2.7 3.5 3.6 7.1h-4.9l-2.8-6-1 6h-4.1l.5-3.4c-1 3-3.2 4-6 4a7.3 7.3 0 0 1-5.7-2.5l2.2-3a5.4 5.4 0 0 0 4 1.6c1.2 0 1.8-.4 1.9-1 0-1.2-1.6-1.4-3.1-1.8-1.7-.6-3.5-2-3-4.7.3-2.1 2-4.6 6.1-4.6a8.2 8.2 0 0 1 5.5 1.8l.2-1.4h4.1l-1.2 6.5 4.8-6.5h4.1l2.3 4.8Zm-16.1-.2a7 7 0 0 0-4.2-1.4c-.7 0-1.5.2-1.6 1s.5.9 1.6 1.2c2.2.5 4.4 1.2 4.6 3.7l1.2-6.7-1.6 2.3Zm-53.5-3.4a12.3 12.3 0 0 1 1.5-5.5c1-1.8 3.1-3.5 7-5.4s9.9-3 16.2-3.1c1.2 0 5.5-.1 7.6 1.6s2.7 4.8 3 6.5a50.2 50.2 0 0 1-.2 15.4c-.6 4.8-1.4 7.7-7.2 9a40.7 40.7 0 0 1-13 .4c-4-.6-7.6-1.6-9.3-2.6-3.1-1.8-3.6-3.5-4.3-6a29.2 29.2 0 0 1-1.3-10.3Zm3.4 8.6c.4 1.8.8 3.7 3.5 4.8s10.9 2.6 17.3 2.5c5.2.2 5.4-7.7 5.4-7.7a74.6 74.6 0 0 0-.4-12.4 8.3 8.3 0 0 0-2.5-5.2c-1.7-1.4-5.1-1.3-6-1.3a30.7 30.7 0 0 0-12.2 3.2c-3.2 1.5-4.2 2.2-5 3.6a6.9 6.9 0 0 0-.7 3.3 55.5 55.5 0 0 0 .6 9.2ZM212.5 217.4l3 .4 2.2 15.3 2.5-14.4 2.7.8-4.4 24.8-1.8.5-4.2-27.4zM221.7 244.2v-15.3h4.8v2.8h-2.9v2.9l2.5-.3v2.7l-2.5.5v2.9l3.1-.8v2.7l-5 1.9z" class="prefix__a31df420-b6b4-4840-b1c2-10911e8c179b"/><path d="M232 228.4v2.7l3.5-.3v10.4h3.5v-10.9l3.6-.3v-2.8l-10.6 1.2zM242.8 227.2l3.6-.6 2.8 9.1 2.8-9.8 3.4-.3-5.3 16.8H248l-5.2-15.2z" class="prefix__a31df420-b6b4-4840-b1c2-10911e8c179b"/><path d="M72.2 233.6c0 8-6 14.6-15.5 14.6S41 241.7 41 233.6v-.9c0-7.6 7-13.8 15.6-13.8s15.5 6.2 15.5 13.8Zm-15.5-14c-8.3 0-15 6-15 13s6.7 13 15 13 15-5.7 15-13-6.8-13-15-13Z" class="prefix__bd69771d-5e64-4fd8-8f9f-d3c58fc0f7dd"/><path d="M51.7 228.6s-.2.3 0 .4a1.5 1.5 0 0 0 1.6.4 5 5 0 0 0 1.6-1.3 6.4 6.4 0 0 1 1.7-1.5 1.6 1.6 0 0 1 1.3 0 3.8 3.8 0 0 1 1.2 1l5.9 6.7a29 29 0 0 1 6.5-2.9 12 12 0 0 0-3-6.7c-2.5 1.4-5.4 2-8.2.2a6.2 6.2 0 0 0-3-1c-2.3.1-3.3 1.4-4.3 2.8Z" class="prefix__f09a9af3-0782-43fb-b887-a03195b69b4f"/><path d="M64.8 234.8s-4.8-5.8-6-6.9a2.4 2.4 0 0 0-1.3-.9 1.2 1.2 0 0 0-.6.1 5.8 5.8 0 0 0-1.8 1.4 5 5 0 0 1-1.7 1.5 2.1 2.1 0 0 1-1.9-.4 1 1 0 0 1-.3-.4 1 1 0 0 1 .2-.9l1.3-2 .5-.6a5.9 5.9 0 0 0-1.2.4 4.1 4.1 0 0 1-1.4.3 10.7 10.7 0 0 1-1.5-.3 18.2 18.2 0 0 1-3.8-1.9 12.3 12.3 0 0 0-3.5 7l.9.3c4.3 1.3 5.6 2.6 5.8 2.9a1.3 1.3 0 0 1 1-.7 1.4 1.4 0 0 1 1.2.8 1.4 1.4 0 0 1 1-.4 1.5 1.5 0 0 1 .6 0 1.7 1.7 0 0 1 .9 1.2 1.1 1.1 0 0 1 .6-.2 1.4 1.4 0 0 1 .7.2 2.4 2.4 0 0 1 .8 2.3h.2c1 0 1.7 1 1.7 2.3a3 3 0 0 1-.2 1.1 2.2 2.2 0 0 0 1.5.5.9.9 0 0 0 .6-.4s.1-.1 0-.2L58 239s-.2-.3-.1-.3h.2l1.4 1.8s0 .2.3.2a1 1 0 0 0 1-.2 3 3 0 0 0 .2-.3 1.1 1.1 0 0 0 0-1.1l-1.5-2.1-.1-.3h.3l1.6 2.3a1 1 0 0 0 1.4-.1 1.5 1.5 0 0 0 .5-1.2 1.6 1.6 0 0 0-.3-.8l-1.9-2.6s-.2-.3-.1-.4.2 0 .2.1l2.3 2.8a1 1 0 0 0 1.3 0 1.3 1.3 0 0 0 .4-1 1.6 1.6 0 0 0-.3-1Z" class="prefix__f09a9af3-0782-43fb-b887-a03195b69b4f"/><path d="m55.5 238.1-.7.2v-.3s.5-1.7-.5-2.2a1 1 0 0 0-1.3.2 1.5 1.5 0 0 0-.8-1.3 1.3 1.3 0 0 0-1.6.8c0-.7-.5-1.3-1-1.3s-1 .7-1 1.4.4 1.5 1 1.5a1 1 0 0 0 .7-.4 2.1 2.1 0 0 0 .9 2.1.8.8 0 0 0 1-.2 1.4 1.4 0 0 0 .8 1.5.8.8 0 0 0 1-.3l.2.1c0 1 .6 1.7 1.3 1.7s1.3-.8 1.3-1.8-.6-1.7-1.3-1.7Z" class="prefix__f09a9af3-0782-43fb-b887-a03195b69b4f"/><path d="M78.5 225v6.3h-1.8v-5.7c0-2.8 1-4.2 3-4.2a2.8 2.8 0 0 1 2.2.9 2.8 2.8 0 0 1 2.1-.8c2 0 3 1.3 3 4.1v5.8h-1c-.5 0-.8-.5-.8-1.2v-5c0-1-.5-1.6-1.3-1.6s-1.2.5-1.2 1.6v6.2H81V225c0-1-.4-1.5-1.2-1.5s-1.2.5-1.2 1.5Zm17.4 1.3c0-3.1 1.2-4.9 3.6-4.9h.5v2.6h-.8c-1 0-1.5.9-1.5 2.3v5h-1.8Zm14.2-1.8h-1.7c0-1.9.8-3.2 2.8-3.2s3 1 3 2.7v3.4c0 2.6-1.2 3.8-3.1 4-1.7.2-3-.9-3-3 0-2.4 1.4-3 3.2-3.2.8-.2 1.1-.5 1.1-1s-.4-.9-1.1-.9a1.2 1.2 0 0 0-1.2 1.2Zm2.4 2.7v-.8a6.5 6.5 0 0 1-1.4.5 1.3 1.3 0 0 0-1.1 1.4c0 .8.3 1.1.9 1.1 1 0 1.6-.8 1.6-2.2Zm9.5-8.9v8.8c0 3-1.1 4.4-3.4 4.4s-3.3-1.7-3.3-5 1-5 2.9-5a2.2 2.2 0 0 1 2 1.4v-3.4a2.2 2.2 0 0 1 1.8-1.2Zm-4.8 8.1c0 2 .4 3 1.5 3s1.5-1 1.5-3-.5-2.8-1.5-2.8-1.5 1-1.6 2.8Zm-27.3 6.4h.5v13h-1.8v-11.4c0-.3.5-1.6 1.3-1.6Zm9.8 2.9a2.2 2.2 0 0 0-2 1.5V233h-.2a1.8 1.8 0 0 0-1.5 1v7.4c0 3 1.1 4.4 3.4 4.4s3.3-1.7 3.3-5-1-5-2.9-5Zm-.5 8c-1 0-1.5-1-1.5-3s.5-2.8 1.5-2.8 1.5 1 1.5 2.8-.5 3-1.5 3Zm-8.9-14.8a1.5 1.5 0 0 0 1.2.5 1.4 1.4 0 0 0 1-.4 1.6 1.6 0 0 0 .5-.8h1.7a4.5 4.5 0 0 1-1.2 2.5 3 3 0 0 1-2 .7 3 3 0 0 1-1.5-.4 3.2 3.2 0 0 1-1.1-1 5.1 5.1 0 0 1-.7-1.6 7.6 7.6 0 0 1-.3-2 7.3 7.3 0 0 1 .3-2 4.9 4.9 0 0 1 .7-1.6 3.6 3.6 0 0 1 1.1-1 2.8 2.8 0 0 1 1.4-.4 2.6 2.6 0 0 1 1.6.5 3.5 3.5 0 0 1 1 1.2 6.2 6.2 0 0 1 .7 1.8 9.2 9.2 0 0 1 .1 2.1h-5a3.2 3.2 0 0 0 .5 1.9Zm2.1-5a1.2 1.2 0 0 0-1-.5 1.3 1.3 0 0 0-.8.2 1.6 1.6 0 0 0-.5.5 2.2 2.2 0 0 0-.2.7 3.9 3.9 0 0 0-.1.6h3.1a3.6 3.6 0 0 0-.5-1.5Zm11.6-.6a1.1 1.1 0 0 0-.7.3 2.1 2.1 0 0 0-.5.8 4.3 4.3 0 0 0-.3 1 8.1 8.1 0 0 0 0 1 7.7 7.7 0 0 0 0 1.1 4.4 4.4 0 0 0 .3 1 1.9 1.9 0 0 0 .5.7 1.1 1.1 0 0 0 .7.3 1.2 1.2 0 0 0 1.1-.5 3 3 0 0 0 .5-1.4h1.8a5 5 0 0 1-1 2.9 3 3 0 0 1-2.4 1 2.9 2.9 0 0 1-1.4-.4 3.2 3.2 0 0 1-1.1-1 5.2 5.2 0 0 1-.8-1.5 7.2 7.2 0 0 1-.2-2 8.5 8.5 0 0 1 .2-2.1 5.4 5.4 0 0 1 .7-1.7 3.4 3.4 0 0 1 1.2-1 3 3 0 0 1 1.5-.5 3.5 3.5 0 0 1 1.2.3 3 3 0 0 1 1 .7 3.6 3.6 0 0 1 .7 1 4.7 4.7 0 0 1 .4 1.7h-2c0-1.1-.5-1.7-1.3-1.7Zm19.4 1a4.9 4.9 0 0 1 .7-1.6 3.5 3.5 0 0 1 1.1-1 3 3 0 0 1 1.5-.3 3.2 3.2 0 0 1 1.6.3 3.5 3.5 0 0 1 1.1 1 4.9 4.9 0 0 1 .7 1.6 7.6 7.6 0 0 1 .3 2.1 7.5 7.5 0 0 1-.3 2 4.9 4.9 0 0 1-.7 1.7 3.3 3.3 0 0 1-1.1 1 3.2 3.2 0 0 1-1.6.3 3 3 0 0 1-1.5-.3 3.3 3.3 0 0 1-1.1-1 4.9 4.9 0 0 1-.7-1.6 7.5 7.5 0 0 1-.3-2 7.6 7.6 0 0 1 .3-2.2Zm1.7 3.2a3.3 3.3 0 0 0 .3 1 1.9 1.9 0 0 0 .5.7 1.4 1.4 0 0 0 1.7 0 2 2 0 0 0 .5-.7 3.6 3.6 0 0 0 .3-1 7 7 0 0 0 0-1 7 7 0 0 0 0-1.2 3.4 3.4 0 0 0-.3-1 2 2 0 0 0-.5-.7 1.4 1.4 0 0 0-1.7 0 1.9 1.9 0 0 0-.5.7 3.1 3.1 0 0 0-.3 1 7 7 0 0 0 0 1.1 7 7 0 0 0 0 1.1Zm-21.5 13.2c0-3.1 1.2-4.9 3.6-4.9h.6v2.5h-.9c-1 0-1.4 1-1.4 2.4v5h-1.9Zm7 2.6a1.5 1.5 0 0 0 1.3.5 1.4 1.4 0 0 0 1-.4 1.6 1.6 0 0 0 .5-.8h1.7a4.5 4.5 0 0 1-1.3 2.4 3 3 0 0 1-2 .8 3 3 0 0 1-1.5-.4 3.2 3.2 0 0 1-1-1 4.9 4.9 0 0 1-.8-1.6 7.6 7.6 0 0 1-.2-2 7.4 7.4 0 0 1 .2-2 5.3 5.3 0 0 1 .7-1.6 3.7 3.7 0 0 1 1.2-1 2.8 2.8 0 0 1 1.4-.4 2.6 2.6 0 0 1 1.6.5 3.4 3.4 0 0 1 1 1.2 6.5 6.5 0 0 1 .7 1.8 9.2 9.2 0 0 1 .1 2.1h-5a3.2 3.2 0 0 0 .4 1.9Zm2.2-5a1.1 1.1 0 0 0-1-.6 1.3 1.3 0 0 0-.8.2 1.6 1.6 0 0 0-.5.6 2.3 2.3 0 0 0-.2.6 3 3 0 0 0-.1.7h3.1a3.6 3.6 0 0 0-.5-1.5ZM92.3 232.8h1.8v2.2h-1.8zM92.3 236.2h1.8v9.6h-1.8z" class="prefix__bd69771d-5e64-4fd8-8f9f-d3c58fc0f7dd"/><path d="M190.6 191.7h5.8c1 .3 1.6.7 1.7 1.4a28.9 28.9 0 0 1 .8 8c0 .8-.6 1.4-1.6 1.7l-3.4 1v2.4h-3.3Zm3.3 2.5v6.9l1-.3q.8-.2.8-.7a25.8 25.8 0 0 0 0-2.7 9.7 9.7 0 0 0-.6-2.7 1 1 0 0 0-.9-.5Zm8.9-2.5h4.6l3 14.6H208l-.2-1-3.5.1-.1 1h-3.3Zm4.4 11.7-1.6-8.2-1.1 8.3Zm6.7-11.6h4.1a2.7 2.7 0 0 1 1.5.4 1.1 1.1 0 0 1 .6 1v1.5H217v-1.4h-2.1V205h2.1v-3.8h3.1v6H217v-.6h-3.1a2.7 2.7 0 0 1-1.5-.4 1.1 1.1 0 0 1-.6-1v-12a1.1 1.1 0 0 1 .6-.9 2.7 2.7 0 0 1 1.5-.4Zm10.1-.1h4.1a2.7 2.7 0 0 1 1.5.4 1.1 1.1 0 0 1 .6 1v12a1.1 1.1 0 0 1-.6.8 2.7 2.7 0 0 1-1.5.4H224a2.7 2.7 0 0 1-1.4-.3 1.1 1.1 0 0 1-.6-1v-12a1.1 1.1 0 0 1 .6-1 2.6 2.6 0 0 1 1.4-.3Zm1 1.5v11.6h2v-11.6Zm13.7-1.4h5.6c1 .2 1.7.7 1.8 1.4a39.8 39.8 0 0 1 .8 10.5c0 .8-.6 1.3-1.6 1.7a18.2 18.2 0 0 1-3.2.8 27.1 27.1 0 0 1-3.4.2Zm3.2 1.9v10.7l1-.3c.5-.2.7-.4.7-.8l.1-1.9a46.2 46.2 0 0 0-.2-5.3 9.4 9.4 0 0 0-.4-2q-.2-.4-1-.4Zm10.3 9.3v1.2h4.3v2H249v-14.5h7.6v2.1h-4.3v7.3l2.5-.1v2Zm23-11.1-2.4 14.5h-4.5l-2.5-14.5 3.3-.3 1.4 8.3 1.4-8.3Zm4.9 11.1v1.2h4.3v2h-7.6v-14.5h7.7v2.1H280v7.3l2.5-.1v2Zm12.5-9v12.5h-3.4v-12.6H287v-2.1h8.1v2.1Zm13.4-2.1-2.5 14.5h-4.4l-2.5-14.5 3.3-.3 1.4 8.3 1.5-8.3Zm-285.8.1h4.6a3.1 3.1 0 0 1 1.6.5 1.2 1.2 0 0 1 .7 1v1.6h-3.5v-1.4h-2.3v12h2.3v-.8h3.5v1a1.1 1.1 0 0 1-.7 1 3.1 3.1 0 0 1-1.6.4h-4.6a3.1 3.1 0 0 1-1.7-.4 1.1 1.1 0 0 1-.6-1v-12.4a1.2 1.2 0 0 1 .6-1 3.1 3.1 0 0 1 1.7-.4Zm11.1 0H36a3 3 0 0 1 1.6.4 1.1 1.1 0 0 1 .7 1v12.4a1.2 1.2 0 0 1-.7 1 3 3 0 0 1-1.6.4h-4.6a3.2 3.2 0 0 1-1.6-.4 1.1 1.1 0 0 1-.7-1v-12.4a1.1 1.1 0 0 1 .7-1 3.2 3.2 0 0 1 1.6-.4Zm1.1 1.6v11.9h2.4v-12Zm7.7-1.6h6.5a22.8 22.8 0 0 1 6.2.6c.8.3 1.3.6 1.3 1.1v13.4h-3.7v-13c-.1-.3-.6-.4-1.4-.4v13.4h-3.6v-13a2.9 2.9 0 0 0-1.7-.4v13.4h-3.6Zm15.9 0h6.3c1.2.3 1.8.7 2 1.4a28.1 28.1 0 0 1 .8 8.3c0 .9-.5 1.4-1.6 1.7l-3.9 1.1v2.5H56Zm3.6 2.6v7l1.2-.2c.5-.2.8-.4.8-.8a24.7 24.7 0 0 0 0-2.7 9.3 9.3 0 0 0-.7-2.8q-.1-.4-1-.5Zm7.5-2.6h6.3c1.2.3 1.8.8 2 1.5a27.4 27.4 0 0 1 .8 8.3q0 1.2-1.7 1.7l-.3.1 2.8 3.7-3.4 1-2.7-3.7h-.2v2.6H67Zm3.6 2.7v7l1.2-.3c.5-.1.8-.4.8-.7a16.2 16.2 0 0 0 0-2.8 10 10 0 0 0-.7-2.7c0-.3-.4-.5-1-.5Zm9.8-2.7h5.2l3.4 15h-2.9l-.2-1-3.8.2-.2 1h-3.6Zm5 12-1.8-8.4-1.2 8.6Zm14.5-11.3v2.6h-3.7v-1.6a3.5 3.5 0 0 0-1.1-.2 3 3 0 0 0-1 .2v2.9l4.7.5a1.6 1.6 0 0 1 .9.3.8.8 0 0 1 .2.6v8.4c0 .4-.7.7-2 1a19 19 0 0 1-2.8.1 17.5 17.5 0 0 1-2.8-.2c-1.2-.2-1.9-.5-1.9-1v-4.7h3.6v3.9a3.2 3.2 0 0 0 1.1.2 3.8 3.8 0 0 0 1.1-.2V199l-4.9-.6c-.6-.1-.9-.4-.9-.7v-5c0-.5.7-.8 2-1a20.5 20.5 0 0 1 2.8-.3 16.4 16.4 0 0 1 3.3.3c.9.2 1.4.5 1.4 1Zm9.5-.7h6.4c1 .3 1.7.7 2 1.4a28.1 28.1 0 0 1 .8 8.3c0 .9-.6 1.4-1.7 1.7l-3.8 1.1v2.5h-3.6Zm3.6 2.6v7l1.2-.2c.6-.2.8-.4.9-.8a24.7 24.7 0 0 0 0-2.7 9.3 9.3 0 0 0-.7-2.8q-.2-.4-1-.5Zm9.9-2.6h4.7a3 3 0 0 1 1.6.4 1.1 1.1 0 0 1 .7 1v12.4a1.1 1.1 0 0 1-.7 1 3 3 0 0 1-1.6.4H123a3.2 3.2 0 0 1-1.6-.4 1.1 1.1 0 0 1-.7-1v-12.4a1.1 1.1 0 0 1 .7-1 3.2 3.2 0 0 1 1.6-.4Zm1.2 1.6v11.9h2.3v-12Zm7.6-1.6h6.2c1.1.3 1.8.8 2 1.5a27.4 27.4 0 0 1 .8 8.3c0 .8-.6 1.4-1.7 1.7l-.4.1 2.9 3.6-3.4 1-2.7-3.7h-.2v2.6h-3.6Zm3.6 2.7v7l1.1-.3c.6-.1.9-.4.9-.7a18.6 18.6 0 0 0 0-2.8 10.3 10.3 0 0 0-.7-2.7c-.1-.3-.4-.5-1-.5Zm15.2 4h3.7v2.2h-3.7Zm0 6.2h3.7v2.2h-3.7Z" class="prefix__f09a9af3-0782-43fb-b887-a03195b69b4f"/></g></svg>