<svg xmlns="http://www.w3.org/2000/svg" width="52.56mm" height="37.984" viewBox="0 0 149 28.5"><defs><style>.b60cc79d-c80c-435d-bc1b-5fb148b4a7b1{fill:#0d0000}.e7177789-8d2e-4759-a6b1-dd9f0cf31a2e{fill:#b72323}</style></defs><g id="a807782e-804f-4549-8b82-0230fc919102" data-name="Capa 1"><path d="M16.09 2.44v-2a5.36 5.36 0 0 1 .67.24c2 1.11 4 2.24 6.07 3.34a1.07 1.07 0 0 1 .63 1.24 1.54 1.54 0 0 0 1 1.91 1.06 1.06 0 0 1 .44.83v12.74a1.09 1.09 0 0 1-.46.81Q18.69 24.82 12.91 28a1.15 1.15 0 0 1-.91 0Q6.2 24.79.43 21.51a1 1 0 0 1-.43-.75V7.94a1.08 1.08 0 0 1 .48-.8Q6.2 3.9 12 .74a1.41 1.41 0 0 1 1.1 0c.9.5 1.9 1.07 2.99 1.7ZM2.32 11.86a18.27 18.27 0 0 1 10.12-3.13 18.52 18.52 0 0 1 10.16 3.11V8.91c0-.2-.31-.45-.53-.54a1.35 1.35 0 0 1-.92-1.56c0-.4 0-1-.23-1.17a20.5 20.5 0 0 0-2.43-1.43l-.14 2c-.55-.27-1-.46-1.36-.67-1.33-.74-2.61-1.49-3.99-2.17a1.36 1.36 0 0 0-1.1 0C8.88 5 5.84 6.69 2.81 8.4a1 1 0 0 0-.47.65c-.05.86-.02 1.74-.02 2.81Zm-.06 8.05a12.14 12.14 0 0 1 10.25-5.4A12 12 0 0 1 22.61 20c.08-1.36.09-2.65.06-3.94a1 1 0 0 0-.33-.59 14.94 14.94 0 0 0-19.65-.12c-.18.17-.41.42-.41.64-.04 1.28-.02 2.6-.02 3.92Zm5.13 3a6.18 6.18 0 0 1 3.08-2.45 6 6 0 0 1 6.63 1.87c.17.2.58.45.74.38.73-.33 1.41-.76 2.1-1.15-1.11-2.56-4.65-4.41-7.94-4.24-3 .15-6.38 2.2-7 4.29Zm2.61 1.5c.76.42 1.46.82 2.17 1.2a.58.58 0 0 0 .46.05c.78-.41 1.53-.84 2.3-1.27a2.87 2.87 0 0 0-4.93.02ZM101.14 20l-9.23-1.91h9.4Zm.37-4.08L92.28 14h9.4Zm4.92 3a2.9 2.9 0 0 1-.09-.82v-1.21h-.17l-1 11.45h-4.14l2.4-26.51h3.89l2.22 9.42a4.15 4.15 0 0 1 .07.82v1.21h.18l1-11.45h4.14l-2.4 26.51h-3.89Z"/><path d="m31.55 4.68-6.64-1.83h6.5l.14 1.83zM31.69 6.75l.14 1.82-6.63-1.82h6.49zM31.99 10.63l.14 1.83-6.63-1.83h6.49zM32.35 28.06l-6.64-1.82h6.76l-.12 1.82zM32.42 16.35l-6.64-1.82h6.5l.14 1.82zM32.61 24.13l-6.63-1.82h6.74l-.11 1.82zM32.72 20.24l-6.65-1.82h6.51l.14 1.82z" class="b60cc79d-c80c-435d-bc1b-5fb148b4a7b1"/><path d="m36.72 2.51.31 8.91h.17l2.2-8.91h5.02l-6.03 18.44-.69 6.89h-4.54l.69-6.89L31.7 2.51h5.02z" style="fill:#000609"/><path d="M46.32 21.28c0 .6 0 1-.06 1.22l-4.65-1.22Zm-.07 2.8v1.22l-4.64-1.22Zm.3-5.6-.11 1.22-4.61-1.22Zm.45-2.81c-.09.51-.16.9-.2 1.17l-4.5-1.17Zm-.5 11.24a5.18 5.18 0 0 0 .31 1.09l-4.12-1.08Zm1.49-14a4.63 4.63 0 0 0-.49 1l-3.62-1Zm5.48-.73a4.11 4.11 0 0 1 3.35 1.21 5.87 5.87 0 0 1 1 3.78 23.07 23.07 0 0 1-.24 3 13.89 13.89 0 0 1-1.91 6.13 4.92 4.92 0 0 1-4.31 1.93A4 4 0 0 1 48.07 27a5.94 5.94 0 0 1-1-3.75 23.65 23.65 0 0 1 .24-3.1 14.11 14.11 0 0 1 1.9-6.11 4.84 4.84 0 0 1 4.26-1.9ZM52 24.06a1.75 1.75 0 0 0 1-.2 1.27 1.27 0 0 0 .42-.9l.83-6.1h-1.38a1.88 1.88 0 0 0-.94.2 1.1 1.1 0 0 0-.41.88l-.8 6.12ZM57.49 26.79h6l-.19 1.32Zm6.26-1.54L58 24h6Zm.46-5.81v.23l-5.9-1.31h5.93q-.03.7-.03 1.08Zm.35-3.88c-.06.31-.12.75-.18 1.31l-5.82-1.31Zm-.22 5.6a4.29 4.29 0 0 0 .4 1.31l-5.89-1.31Zm1.18-8.4A4.83 4.83 0 0 0 65 14l-5.43-1.22Zm7.61 4.53a8.67 8.67 0 0 0-2.52-.46 9.67 9.67 0 0 0-1.55.09l-.11.84 1.09.18c2.34.41 3.5 1.7 3.5 3.88a12.83 12.83 0 0 1-.13 1.41 10.94 10.94 0 0 1-.43 2 4.94 4.94 0 0 1-.77 1.56 6.7 6.7 0 0 1-.92 1 2.72 2.72 0 0 1-1.14.51 14.91 14.91 0 0 1-2.91.23 10.59 10.59 0 0 1-3.66-.67l1.06-4.32a8.61 8.61 0 0 0 3 .64 12.23 12.23 0 0 0 1.8-.09l.11-.93-1.37-.2a4 4 0 0 1-2.5-1.11 3.54 3.54 0 0 1-.74-2.42 12.44 12.44 0 0 1 .1-1.46 8 8 0 0 1 1.57-4.32A4.52 4.52 0 0 1 70 12.42a13.32 13.32 0 0 1 4.15.61ZM78 28.28l-5.4-1 5.87-.48Zm1-3.14-5.26-1 5.71-.41Zm1-3-5.13-1 5.55-.33Zm.91-2.85-5-1 5.34-.29Zm.88-2.74-4.89-1 5.27-.2Zm.83-2.65-4.77-1 5.14-.14ZM86 28.15l-.09-2.36h-2.75l-.67 2.36h-3.77l4.83-15.44H89l.85 15.44Zm-.09-6.54v-4.43h-.3l-1.28 4.43Z"/><path d="M93.52 22.74a4.36 4.36 0 0 1 2.73-.7 4.93 4.93 0 0 1 2.51.44 1.41 1.41 0 0 1 .66 1.25 7.35 7.35 0 0 1-.13 1.43 3.94 3.94 0 0 1-1.2 2.4 4.38 4.38 0 0 1-2.72.67 5.17 5.17 0 0 1-2.52-.42 1.39 1.39 0 0 1-.65-1.23 6.74 6.74 0 0 1 .13-1.42 4.09 4.09 0 0 1 1.19-2.42Z" class="e7177789-8d2e-4759-a6b1-dd9f0cf31a2e"/><path d="m118.74 28.38-5.26-.17 5.43-1.73Zm.37-4.09-5.25-.29 5.42-1.62Zm.37-4-5.24-.37 5.41-1.52Zm.36-4-5.22-.48 5.38-1.47Zm.37-4-5.21-.66 5.38-1.31Zm.36-4-5.19-.67 5.35-1.2Zm.35-4-5.16-.77 5.33-1.1Zm8 14.27h-4.14l-.28 3.14h5.07l-.57 6.49h-9.21l2.4-25.76h9.09L130.14 9h-4.46l-.3 3.46h4.13Z"/><path d="m134.27 8.37-5-1.86h5.08Zm.19-4-5-1.86h5.08Zm.42 23.84-5-1.86H135Zm.2-4-5-1.86h5.08Zm.2-4-5-1.86h5.08Zm.2-4-5-1.86h5.08Zm.2-4-5-1.86h5.08Zm12.48-3.4h-4l-2.34 19.22h-5.47l2.33-19.22h-4l.84-6.61H149Z"/><path d="M97.75 12H48.24a4.31 4.31 0 0 1-4.31-4.31v-.96a4.31 4.31 0 0 1 4.31-4.31h49.51a4.31 4.31 0 0 1 4.31 4.31v.91A4.31 4.31 0 0 1 97.75 12Zm-9.43-4.2a11.09 11.09 0 0 0 0-1.29c0-.2-.23-.37-.36-.56-.15.19-.42.37-.43.57V9.1a2.11 2.11 0 0 0 .29.66 2 2 0 0 0 .56-.31c.47-.52.92-1.07 1.53-1.79A7.41 7.41 0 0 0 90 8.72c.06.33.18.64.27 1a3 3 0 0 0 1-.34A8.94 8.94 0 0 0 93.36 6c-.65-.26-1 0-1.2.53s-.73 1.24-1.1 1.86l-.26-.12V6.6a1 1 0 0 0-.34-.6c-.08 0-.4.14-.54.29-.47.5-.91 1-1.36 1.56ZM71 8c.18.19.34.51.55.55a3.1 3.1 0 0 0 1.25 0 1.21 1.21 0 0 0 1-1.33 1.16 1.16 0 0 0-1.14-1.27 8.57 8.57 0 0 0-1.68 0 1.6 1.6 0 0 0-.85.47 3.67 3.67 0 0 0-.06 2.82 2.06 2.06 0 0 0 2.17.53.53.53 0 0 0 .31-.41.49.49 0 0 0-.26-.36 1.68 1.68 0 0 0-.67 0c-.69.09-1-.21-.93-1 0-1.18 0-1.21 1.1-1.21a1.59 1.59 0 0 1 .58 0 3 3 0 0 1 .63.4c-.23.17-.43.41-.67.47a4.85 4.85 0 0 1-1.08 0Zm-12.28.59h1a1.32 1.32 0 0 0 1.08-1.8c-.41-1.08-1.33-.78-2.11-.82s-1.46-.06-1.64.83a5.57 5.57 0 0 0 0 2.19c.08.34.59.65 1 .81a3.28 3.28 0 0 0 1.09 0c.59 0 .61-.3.48-.81h-.77c-1.06 0-1 0-1.08-1.14 0-.84.26-1.14 1-1a3.59 3.59 0 0 1 .66 0 2.43 2.43 0 0 1 .62.4c-.22.17-.42.42-.66.47a5.43 5.43 0 0 1-1.14 0c-.14.53-.08.85.51.82Zm8.46-1.78c1 0 1.16.18 1.17 1.26a8.53 8.53 0 0 0 0 1.24c0 .19.27.34.41.5.14-.17.38-.33.4-.52.4-2.7-.16-3.39-2.66-3.39h-.59c-.47 0-.65.23-.64.71v2.58c0 .19.22.38.34.57.15-.19.42-.37.44-.57.05-.76 0-1.53 0-2.43Zm-15.44 2v.35c0 .09.29.44.44.66.14-.2.38-.4.4-.62.21-2.71-.27-3.25-2.82-3.24h-.5c-.46 0-.67.2-.67.68V9.3c0 .18.26.35.4.52.13-.18.37-.35.38-.53V6.94c2.18-.46 2.4-.27 2.41 1.81ZM75.3 7v2.14c0 .23.29.44.44.66.13-.21.37-.41.38-.63V7.03c.5-.49 1.56.23 1.46-1l-1.37-.09-.17-1.14h-.72l-.13 1.11-1 .14c-.19 1.04.72.53 1.11.95Zm-21.17-.13v2.26c0 .22.25.42.38.63.15-.22.41-.43.43-.66.06-.75 0-1.51 0-2.25 1.55-.21 1.55-.21 1.36-.92L55 5.85l-.13-1.18h-.72l-.13 1.13-1 .1c.04.78.04.78 1.11.97ZM96.5 4.32a1.14 1.14 0 0 0-1.11 1.21v3.64c0 .2.27.39.42.59.13-.21.36-.42.37-.64V6.99c0-1.77 0-1.79 1.67-1.82.59 0 .74-.24.53-.86-.6 0-1.25-.04-1.88.01ZM83.61 6.56v3.1c0 .58-.16.85-.76.87-.39 0-1.14-.36-1.12.41s.79.38 1.21.41c.92.07 1.44-.36 1.47-1.18V6c-.64-.23-.81 0-.8.56ZM99 9.22c0 .19.24.36.37.54.14-.17.41-.33.41-.5V5.94h-3.07c-.2.61 0 .86.55.83s1.06 0 1.71 0c.03.91-.03 1.68.03 2.45Zm-52.15.06c0 .2.39.39.6.58l.21-.18v-5h-.83c-.01 1.59-.04 3.09.01 4.6ZM62.7 5.9a1.21 1.21 0 0 0-1.22 1.3 12.69 12.69 0 0 0 0 1.85c0 .25.25.48.39.71a5.92 5.92 0 0 0 .42-.68 1.28 1.28 0 0 0 0-.44c0-1.8 0-1.82 1.69-1.87.53 0 .73-.18.54-.87-.61 0-1.22-.03-1.82 0Zm20.42 3a6.59 6.59 0 0 0-.89 0c-.74.09-1-.23-1-1V5.64c-.4.3-.78.44-.78.6a10.5 10.5 0 0 0 .05 2.57c.07.36.61.71 1 .89a1.73 1.73 0 0 0 1.08 0c.24-.06.44-.33.65-.51Zm11.16-3.07c-.19.19-.53.37-.54.58a26.89 26.89 0 0 0 0 2.84c0 .18.27.34.41.51.13-.16.36-.31.36-.47V6.01Zm4.59-1.25.54.57.37-.44-.6-.5Z" class="e7177789-8d2e-4759-a6b1-dd9f0cf31a2e"/></g></svg>