<svg xmlns="http://www.w3.org/2000/svg" width="52.56mm" height="10.05mm" viewBox="0 0 149 28.5"><defs><style>.b60cc79d-c80c-435d-bc1b-5fb148b4a7b1{fill:#0d0000;}.f6340578-b4b6-4168-bbce-507a4cdec6b0{fill:#000609;}.e7177789-8d2e-4759-a6b1-dd9f0cf31a2e{fill:#b72323;}</style></defs><g id="a807782e-804f-4549-8b82-0230fc919102" data-name="Capa 1"><path d="M16.09,2.44v-2a5.36,5.36,0,0,1,.67.24c2,1.11,4,2.24,6.07,3.34a1.07,1.07,0,0,1,.63,1.24,1.54,1.54,0,0,0,1,1.91A1.06,1.06,0,0,1,24.9,8q0,6.38,0,12.74a1.09,1.09,0,0,1-.46.81Q18.69,24.82,12.91,28A1.15,1.15,0,0,1,12,28Q6.2,24.79.43,21.51A1,1,0,0,1,0,20.76Q0,14.35,0,7.94a1.08,1.08,0,0,1,.48-.8Q6.2,3.9,12,.74a1.41,1.41,0,0,1,1.1,0C14,1.24,15,1.81,16.09,2.44ZM2.32,11.86A18.27,18.27,0,0,1,12.44,8.73,18.52,18.52,0,0,1,22.6,11.84c0-1.1,0-2,0-2.93,0-.2-.31-.45-.53-.54a1.35,1.35,0,0,1-.92-1.56c0-.4,0-1-.23-1.17a20.5,20.5,0,0,0-2.43-1.43l-.14,2c-.55-.27-1-.46-1.36-.67C15.66,4.8,14.38,4.05,13,3.37a1.36,1.36,0,0,0-1.1,0C8.88,5,5.84,6.69,2.81,8.4a1,1,0,0,0-.47.65C2.29,9.91,2.32,10.79,2.32,11.86Zm-.06,8.05a12.14,12.14,0,0,1,10.25-5.4A12,12,0,0,1,22.61,20c.08-1.36.09-2.65.06-3.94a1,1,0,0,0-.33-.59,14.94,14.94,0,0,0-19.65-.12c-.18.17-.41.42-.41.64C2.24,17.27,2.26,18.59,2.26,19.91Zm5.13,3a6.18,6.18,0,0,1,3.08-2.45,6,6,0,0,1,6.63,1.87c.17.2.58.45.74.38.73-.33,1.41-.76,2.1-1.15C18.83,19,15.29,17.15,12,17.32c-3,.15-6.38,2.2-7,4.29ZM10,24.41c.76.42,1.46.82,2.17,1.2a.58.58,0,0,0,.46.05c.78-.41,1.53-.84,2.3-1.27A2.87,2.87,0,0,0,10,24.41Z"/><path d="M101.14,20l-9.23-1.91h9.4Zm.37-4.08L92.28,14h9.4Zm4.92,3a2.9,2.9,0,0,1-.09-.82c0-.36,0-.76,0-1.21h-.17l-1,11.45h-4.14l2.4-26.51h3.89l2.22,9.42a4.15,4.15,0,0,1,.07.82c0,.36,0,.76,0,1.21h.18l1-11.45h4.14l-2.4,26.51h-3.89Z"/><polygon class="b60cc79d-c80c-435d-bc1b-5fb148b4a7b1" points="31.55 4.68 24.91 2.85 31.41 2.85 31.55 4.68"/><polygon class="b60cc79d-c80c-435d-bc1b-5fb148b4a7b1" points="31.69 6.75 31.83 8.57 25.2 6.75 31.69 6.75"/><polygon class="b60cc79d-c80c-435d-bc1b-5fb148b4a7b1" points="31.99 10.63 32.13 12.46 25.5 10.63 31.99 10.63"/><polygon class="b60cc79d-c80c-435d-bc1b-5fb148b4a7b1" points="32.35 28.06 25.71 26.24 32.47 26.24 32.35 28.06"/><polygon class="b60cc79d-c80c-435d-bc1b-5fb148b4a7b1" points="32.42 16.35 25.78 14.53 32.28 14.53 32.42 16.35"/><polygon class="b60cc79d-c80c-435d-bc1b-5fb148b4a7b1" points="32.61 24.13 25.98 22.31 32.72 22.31 32.61 24.13"/><polygon class="b60cc79d-c80c-435d-bc1b-5fb148b4a7b1" points="32.72 20.24 26.07 18.42 32.58 18.42 32.72 20.24"/><polygon class="f6340578-b4b6-4168-bbce-507a4cdec6b0" points="36.72 2.51 37.03 11.42 37.2 11.42 39.4 2.51 44.42 2.51 38.39 20.95 37.7 27.84 33.16 27.84 33.85 20.95 31.7 2.51 36.72 2.51"/><path d="M46.32,21.28c0,.6,0,1-.06,1.22l-4.65-1.22Zm-.07,2.8c0,.31,0,.72,0,1.22l-4.64-1.22Zm.3-5.6-.11,1.22-4.61-1.22ZM47,15.67c-.09.51-.16.9-.2,1.17L42.3,15.67ZM46.5,26.91A5.18,5.18,0,0,0,46.81,28l-4.12-1.08Zm1.49-14a4.63,4.63,0,0,0-.49,1l-3.62-1Zm5.48-.73a4.11,4.11,0,0,1,3.35,1.21,5.87,5.87,0,0,1,1,3.78,23.07,23.07,0,0,1-.24,3,13.89,13.89,0,0,1-1.91,6.13,4.92,4.92,0,0,1-4.31,1.93A4,4,0,0,1,48.07,27a5.94,5.94,0,0,1-1-3.75,23.65,23.65,0,0,1,.24-3.1,14.11,14.11,0,0,1,1.9-6.11A4.84,4.84,0,0,1,53.47,12.14ZM52,24.06a1.75,1.75,0,0,0,1-.2,1.27,1.27,0,0,0,.42-.9l.83-6.1H52.87a1.88,1.88,0,0,0-.94.2,1.1,1.1,0,0,0-.41.88l-.8,6.12Z"/><path d="M57.49,26.79h6l-.19,1.32Zm6.26-1.54L58,24h6Zm.46-5.81v.23l-5.9-1.31h5.93Q64.21,19.06,64.21,19.44Zm.35-3.88c-.06.31-.12.75-.18,1.31l-5.82-1.31Zm-.22,5.6a4.29,4.29,0,0,0,.4,1.31l-5.89-1.31Zm1.18-8.4A4.83,4.83,0,0,0,65,14l-5.43-1.22Zm7.61,4.53a8.67,8.67,0,0,0-2.52-.46,9.67,9.67,0,0,0-1.55.09l-.11.84,1.09.18c2.34.41,3.5,1.7,3.5,3.88a12.83,12.83,0,0,1-.13,1.41,10.94,10.94,0,0,1-.43,2,4.94,4.94,0,0,1-.77,1.56,6.7,6.7,0,0,1-.92,1,2.72,2.72,0,0,1-1.14.51,14.91,14.91,0,0,1-2.91.23,10.59,10.59,0,0,1-3.66-.67l1.06-4.32a8.61,8.61,0,0,0,3,.64,12.23,12.23,0,0,0,1.8-.09l.11-.93-1.37-.2a4,4,0,0,1-2.5-1.11,3.54,3.54,0,0,1-.74-2.42,12.44,12.44,0,0,1,.1-1.46,8,8,0,0,1,1.57-4.32A4.52,4.52,0,0,1,70,12.42a13.32,13.32,0,0,1,4.15.61Z"/><path d="M78,28.28l-5.4-1,5.87-.48Zm1-3.14-5.26-1,5.71-.41Zm1-3-5.13-1,5.55-.33Zm.91-2.85-5-1L81.25,18Zm.88-2.74-4.89-1,5.27-.2Zm.83-2.65-4.77-1,5.14-.14ZM86,28.15l-.09-2.36H83.16l-.67,2.36H78.72l4.83-15.44H89l.85,15.44Zm-.09-6.54V17.18h-.3l-1.28,4.43Z"/><path class="e7177789-8d2e-4759-a6b1-dd9f0cf31a2e" d="M93.52,22.74a4.36,4.36,0,0,1,2.73-.7,4.93,4.93,0,0,1,2.51.44,1.41,1.41,0,0,1,.66,1.25,7.35,7.35,0,0,1-.13,1.43,3.94,3.94,0,0,1-1.2,2.4,4.38,4.38,0,0,1-2.72.67,5.17,5.17,0,0,1-2.52-.42,1.39,1.39,0,0,1-.65-1.23,6.74,6.74,0,0,1,.13-1.42A4.09,4.09,0,0,1,93.52,22.74Z"/><path d="M118.74,28.38l-5.26-.17,5.43-1.73Zm.37-4.09L113.86,24l5.42-1.62Zm.37-4-5.24-.37,5.41-1.52Zm.36-4-5.22-.48L120,14.34Zm.37-4L115,11.63l5.38-1.31Zm.36-4-5.19-.67,5.35-1.2Zm.35-4-5.16-.77,5.33-1.1Zm8,14.27h-4.14l-.28,3.14h5.07L129,28.19h-9.21l2.4-25.76h9.09L130.14,9h-4.46l-.3,3.46h4.13Z"/><path d="M134.27,8.37l-5-1.86h5.08Zm.19-4-5-1.86h5.08Zm.42,23.84-5-1.86H135Zm.2-4-5-1.86h5.08Zm.2-4-5-1.86h5.08Zm.2-4-5-1.86h5.08Zm.2-4-5-1.86h5.08Zm12.48-3.4h-4l-2.34,19.22h-5.47l2.33-19.22h-4l.84-6.61H149Z"/><path class="e7177789-8d2e-4759-a6b1-dd9f0cf31a2e" d="M97.75,12H48.24a4.31,4.31,0,0,1-4.31-4.31V6.73a4.31,4.31,0,0,1,4.31-4.31H97.75a4.31,4.31,0,0,1,4.31,4.31v.91A4.31,4.31,0,0,1,97.75,12Zm-9.43-4.2a11.09,11.09,0,0,0,0-1.29c0-.2-.23-.37-.36-.56-.15.19-.42.37-.43.57,0,.85,0,1.72,0,2.58a2.11,2.11,0,0,0,.29.66,2,2,0,0,0,.56-.31c.47-.52.92-1.07,1.53-1.79A7.41,7.41,0,0,0,90,8.72c.06.33.18.64.27,1a3,3,0,0,0,1-.34A8.94,8.94,0,0,0,93.36,6c-.65-.26-1,0-1.2.53s-.73,1.24-1.1,1.86l-.26-.12c0-.56,0-1.12,0-1.67A1,1,0,0,0,90.46,6c-.08,0-.4.14-.54.29-.47.5-.91,1-1.36,1.56ZM71,8c.18.19.34.51.55.55a3.1,3.1,0,0,0,1.25,0,1.21,1.21,0,0,0,1-1.33,1.16,1.16,0,0,0-1.14-1.27,8.57,8.57,0,0,0-1.68,0,1.6,1.6,0,0,0-.85.47,3.67,3.67,0,0,0-.06,2.82,2.06,2.06,0,0,0,2.17.53.53.53,0,0,0,.31-.41A.49.49,0,0,0,72.29,9a1.68,1.68,0,0,0-.67,0c-.69.09-1-.21-.93-1,0-1.18,0-1.21,1.1-1.21a1.59,1.59,0,0,1,.58,0,3,3,0,0,1,.63.4c-.23.17-.43.41-.67.47a4.85,4.85,0,0,1-1.08,0Zm-12.28.59c.34,0,.68,0,1,0a1.32,1.32,0,0,0,1.08-1.8c-.41-1.08-1.33-.78-2.11-.82s-1.46-.06-1.64.83a5.57,5.57,0,0,0,0,2.19c.08.34.59.65,1,.81a3.28,3.28,0,0,0,1.09,0c.59,0,.61-.3.48-.81l-.77,0c-1.06,0-1,0-1.08-1.14,0-.84.26-1.14,1-1a3.59,3.59,0,0,1,.66,0,2.43,2.43,0,0,1,.62.4c-.22.17-.42.42-.66.47a5.43,5.43,0,0,1-1.14,0C58.11,8.25,58.17,8.57,58.76,8.54Zm8.46-1.78c1,0,1.16.18,1.17,1.26a8.53,8.53,0,0,0,0,1.24c0,.19.27.34.41.5.14-.17.38-.33.4-.52C69.56,6.59,69,5.9,66.5,5.9h-.59c-.47,0-.65.23-.64.71,0,.86,0,1.72,0,2.58,0,.19.22.38.34.57.15-.19.42-.37.44-.57.05-.76,0-1.53,0-2.43Zm-15.44,2c0,.12,0,.26,0,.35s.29.44.44.66c.14-.2.38-.4.4-.62.21-2.71-.27-3.25-2.82-3.24h-.5c-.46,0-.67.2-.67.68,0,.89,0,1.78,0,2.66,0,.18.26.35.4.52.13-.18.37-.35.38-.53,0-.77,0-1.53,0-2.35C51.55,6.48,51.77,6.67,51.78,8.75ZM75.3,7c0,.67,0,1.41,0,2.14,0,.23.29.44.44.66.13-.21.37-.41.38-.63,0-.76,0-1.52,0-2.14.5-.49,1.56.23,1.46-1l-1.37-.09-.17-1.14h-.72l-.13,1.11-1,.14C74,7.09,74.91,6.58,75.3,7ZM54.13,6.87c0,.74,0,1.51,0,2.26,0,.22.25.42.38.63.15-.22.41-.43.43-.66.06-.75,0-1.51,0-2.25,1.55-.21,1.55-.21,1.36-.92L55,5.85l-.13-1.18-.72,0-.13,1.13-1,.1C53.06,6.68,53.06,6.68,54.13,6.87ZM96.5,4.32a1.14,1.14,0,0,0-1.11,1.21c0,1.21,0,2.43,0,3.64,0,.2.27.39.42.59.13-.21.36-.42.37-.64,0-.71,0-1.42,0-2.13,0-1.77,0-1.79,1.67-1.82.59,0,.74-.24.53-.86C97.78,4.31,97.13,4.27,96.5,4.32ZM83.61,6.56c0,1,0,2.07,0,3.1,0,.58-.16.85-.76.87-.39,0-1.14-.36-1.12.41s.79.38,1.21.41c.92.07,1.44-.36,1.47-1.18,0-1.38,0-2.76,0-4.17C83.77,5.77,83.6,6,83.61,6.56ZM99,9.22c0,.19.24.36.37.54.14-.17.41-.33.41-.5,0-1.08,0-2.18,0-3.32H96.71c-.2.61,0,.86.55.83s1.06,0,1.71,0C99,7.68,98.94,8.45,99,9.22Zm-52.15.06c0,.2.39.39.6.58l.21-.18v-5h-.83C46.82,6.27,46.79,7.77,46.84,9.28ZM62.7,5.9a1.21,1.21,0,0,0-1.22,1.3,12.69,12.69,0,0,0,0,1.85c0,.25.25.48.39.71a5.92,5.92,0,0,0,.42-.68,1.28,1.28,0,0,0,0-.44c0-1.8,0-1.82,1.69-1.87.53,0,.73-.18.54-.87C63.91,5.9,63.3,5.87,62.7,5.9Zm20.42,3a6.59,6.59,0,0,0-.89,0c-.74.09-1-.23-1-1s0-1.29,0-2.26c-.4.3-.78.44-.78.6a10.5,10.5,0,0,0,.05,2.57c.07.36.61.71,1,.89a1.73,1.73,0,0,0,1.08,0c.24-.06.44-.33.65-.51ZM94.28,5.83c-.19.19-.53.37-.54.58a26.89,26.89,0,0,0,0,2.84c0,.18.27.34.41.51.13-.16.36-.31.36-.47,0-1.09,0-2.19,0-3.28Zm4.59-1.25.54.57.37-.44-.6-.5Z"/></g></svg>