<svg xmlns="http://www.w3.org/2000/svg" width="175.52mm" height="64.52mm" viewBox="0 0 497.52 182.88"><defs><style>.fe523124-5604-43cb-9ee8-adaa4f3202bd{fill:#3c9;}.ea1ea6c6-b377-421e-b227-0f9c9245d60f{fill:#cff;}.ee29d83e-be28-4a2d-b3ed-b9cefc4ffbf2{fill:#b72323;}.aa96668f-1295-412c-b5f3-0b09ad284c87{fill:#000609;}</style></defs><g id="f0bb11cf-dba5-41ce-bacc-fd295e790c55" data-name="Capa 1"><path d="M100.84,12.87V0a31.57,31.57,0,0,1,4.22,1.55C117.75,8.73,130.38,16,143.13,23.13c3.39,1.88,4.48,4.44,3.94,8-.84,5.63.44,9.93,6.33,12.36,1.42.59,2.66,3.49,2.67,5.34q.26,41.21,0,82.39a7.15,7.15,0,0,1-2.93,5.24q-36,21.12-72.21,41.75a6.64,6.64,0,0,1-5.55-.06Q38.91,157.42,2.68,136.23a6.61,6.61,0,0,1-2.56-4.87Q-.12,89.9.14,48.45a7.09,7.09,0,0,1,3-5.16q35.76-21,71.82-41.39c1.74-1,5-.73,6.88.21C87.9,5.14,93.7,8.77,100.84,12.87ZM14.55,73.77C34.54,60.5,55.14,53.65,78,53.58s43.68,7.08,63.68,20.06c0-7.08.19-13-.16-18.94-.07-1.25-1.9-2.9-3.28-3.47-4.72-1.93-6.17-5.21-5.76-10.13.22-2.54.09-6.34-1.47-7.56-4.47-3.52-9.74-6-15.22-9.21l-.87,12.85c-3.45-1.75-6-3-8.52-4.35-8.21-4.66-16.29-9.58-24.64-14-1.87-1-5.14-1.17-6.91-.18C55.67,29.38,36.63,40.34,17.64,51.39a6.33,6.33,0,0,0-3,4.21C14.34,61.2,14.55,66.84,14.55,73.77Zm-.4,52.07c16.09-22.41,36.87-35,64.3-34.92s47.83,13.06,63.27,35.35c.51-8.79.6-17.15.41-25.51a6.34,6.34,0,0,0-2.06-3.83c-33.06-32-89.74-32.35-123.2-.77-1.16,1.1-2.56,2.72-2.6,4.13C14,108.8,14.15,117.32,14.15,125.84Zm32.17,19.71c5.15-7.69,11.31-13,19.32-15.86,15.16-5.45,31.2-.68,41.59,12.08,1,1.29,3.61,2.88,4.59,2.43,4.59-2.13,8.87-4.92,13.17-7.43-7-16.61-29.13-28.74-49.71-27.68-18.82,1-40,14.25-43.88,27.79ZM62.72,155c4.74,2.72,9.12,5.31,13.59,7.76a3.61,3.61,0,0,0,2.88.3c4.86-2.61,9.61-5.42,14.41-8.17C85.69,142.76,70.12,142.86,62.72,155Z"/><path class="fe523124-5604-43cb-9ee8-adaa4f3202bd" d="M46.32,145.55,31.4,136.88c3.9-13.54,25.06-26.81,43.88-27.79C95.86,108,118,120.16,125,136.77c-4.3,2.51-8.58,5.3-13.17,7.43-1,.45-3.54-1.14-4.59-2.43C96.84,129,80.8,124.24,65.64,129.69,57.63,132.57,51.47,137.86,46.32,145.55Z"/><path class="ea1ea6c6-b377-421e-b227-0f9c9245d60f" d="M62.72,155c7.4-12.1,23-12.2,30.88-.11-4.8,2.75-9.55,5.56-14.41,8.17a3.61,3.61,0,0,1-2.88-.3C71.84,160.27,67.46,157.68,62.72,155Z"/><path class="ee29d83e-be28-4a2d-b3ed-b9cefc4ffbf2" d="M470.17,179H184.41a22.32,22.32,0,0,1-22.32-22.32V141.13a22.32,22.32,0,0,1,22.32-22.32H470.17a22.32,22.32,0,0,1,22.32,22.32V156.7A22.32,22.32,0,0,1,470.17,179ZM414.4,152.5a71.7,71.7,0,0,0-.1-8.17c-.15-1.26-1.31-2.36-2-3.53-.85,1.19-2.38,2.34-2.44,3.58-.27,5.42-.24,10.87,0,16.3.06,1.43,1.1,2.8,1.68,4.2,1.07-.64,2.37-1,3.16-2,2.71-3.28,5.24-6.78,8.68-11.3.15,3.42.05,5.25.34,7,.36,2.08,1.05,4.07,1.59,6.1,1.87-.69,4.15-.81,5.52-2.19,5.66-5.67,9.29-13.05,12.22-21.08-3.67-1.66-5.35,0-6.82,3.34-1.79,4.08-4.12,7.84-6.22,11.74l-1.49-.77c0-3.52.17-7.05-.09-10.54a6.43,6.43,0,0,0-1.85-4c-.44-.38-2.27.85-3.07,1.8-2.66,3.19-5.15,6.58-7.7,9.89Zm-98.24,1.23c1,1.23,1.94,3.23,3.14,3.53a16.44,16.44,0,0,0,7.12,0c3.77-.8,5.78-3.94,5.72-8.39-.07-4.8-2.4-7.69-6.5-8a41,41,0,0,0-9.52.1,8.46,8.46,0,0,0-4.85,3c-2.31,2.88-2.28,14.42-.34,17.82,1.86,3.25,7.93,5,12.36,3.36a3.55,3.55,0,0,0,1.77-2.61,3.35,3.35,0,0,0-1.79-2.44,8.07,8.07,0,0,0-3.79-.13c-3.94.54-5.4-1.39-5.3-6.06.17-7.44.11-7.6,6.26-7.61,1.12,0,2.34-.34,3.32.09a18.71,18.71,0,0,1,3.53,2.58c-1.25,1-2.41,2.59-3.79,3-1.95.51-4.06.13-6.11.13Zm-69.77,3.73c1.91-.13,3.84.12,5.74-.08,4.85-.49,7.92-6.12,6.12-11.4-2.33-6.8-7.52-4.93-12-5.19-3.94-.23-8.31-.35-9.35,5.24a38.83,38.83,0,0,0,0,13.85c.41,2.14,3.36,4.11,5.51,5.14,1.78.85,4.08.14,6.15.24,3.39.18,3.52-1.92,2.73-5.12-1.55-.09-3-.22-4.37-.24-6-.09-5.88-.24-6.14-7.23-.2-5.29,1.48-7.19,5.8-6.46,1.24.22,2.64-.3,3.79.14s2.36,1.68,3.53,2.57c-1.25,1-2.4,2.62-3.77,2.94-2.11.51-4.37.14-6.48.14C242.7,155.66,243,157.68,246.39,157.46Zm48.08-11.21c5.7.08,6.58,1.12,6.67,7.93a62.27,62.27,0,0,0,.13,7.86c.17,1.18,1.54,2.12,2.36,3.16.79-1.1,2.15-2.11,2.29-3.32,1.83-16.73-1.45-21.1-15.54-21.09-1.12,0-2.24.06-3.35,0-2.7-.15-3.68,1.48-3.64,4.48.06,5.44-.11,10.88.11,16.31,0,1.23,1.26,2.4,1.94,3.6.87-1.18,2.4-2.31,2.48-3.56.29-4.82.12-9.68.12-15.37C290.69,146.25,292.58,146.23,294.47,146.25ZM206.72,158.8a5.76,5.76,0,0,0,.05,2.21c.72,1.48,1.65,2.8,2.5,4.19.79-1.3,2.18-2.53,2.27-3.9,1.18-17.17-1.5-20.54-16-20.51-1,0-1.91.06-2.86,0-2.6-.15-3.81,1.28-3.79,4.33,0,5.61-.12,11.22.12,16.82,0,1.12,1.47,2.17,2.27,3.25.74-1.12,2.07-2.2,2.13-3.37.25-4.82.1-9.67.1-14.81C205.42,144.49,206.67,145.68,206.72,158.8ZM340.4,147.51c0,4.23-.2,8.91.12,13.53.1,1.46,1.61,2.78,2.47,4.16.76-1.32,2.11-2.6,2.18-4,.28-4.79.11-9.62.11-13.52,2.83-3.08,8.86,1.43,8.3-6.64l-7.81-.55-1-7.26h-4.05c-.26,2.45-.5,4.64-.76,7.05l-5.43.9C332.71,148.32,338.17,145.12,340.4,147.51Zm-120.31-.58c0,4.69-.16,9.52.11,14.31.07,1.37,1.4,2.64,2.15,3.95.85-1.37,2.35-2.69,2.44-4.14.32-4.75.12-9.56.12-14.22,8.81-1.38,8.81-1.38,7.74-5.83l-7.42-.55-.7-7.45-4.1.33c-.29,2.69-.53,4.86-.78,7.14l-5.72.64C214,145.72,214,145.72,220.09,146.93Zm240.77-16.11c-3.79.36-6.21,3-6.3,7.65-.15,7.67-.17,15.35.05,23,0,1.27,1.56,2.48,2.4,3.72.73-1.34,2-2.64,2.11-4,.27-4.47.13-9,.11-13.47-.07-11.2-.08-11.33,9.45-11.5,3.38-.06,4.21-1.49,3.06-5.44C468.12,130.75,464.47,130.48,460.86,130.82ZM387.6,145c.09,6.53-.07,13.07,0,19.6.06,3.66-.91,5.36-4.34,5.52-2.21.1-6.46-2.33-6.37,2.54.09,5.31,4.51,2.45,6.86,2.63,5.22.42,8.18-2.27,8.35-7.45.28-8.74.07-17.49.07-26.35C388.51,140,387.54,141.53,387.6,145Zm87.4,16.8c.06,1.19,1.36,2.29,2.1,3.43.83-1,2.34-2.06,2.37-3.14.22-6.88.11-13.77.11-21H462.06c-1.15,3.84-.17,5.4,3.14,5.21,3-.17,6,0,9.7,0C474.9,152.07,474.76,156.93,475,161.77Zm-296.33.37c0,1.28,2.2,2.47,3.38,3.69l1.18-1.16V133.29h-4.72C178.51,143.11,178.38,152.64,178.67,162.14Zm90.08-21.31c-4.29.26-6.71,3.12-6.92,8.17a93.82,93.82,0,0,0,.08,11.74c.13,1.56,1.43,3,2.2,4.46a36.79,36.79,0,0,0,2.39-4.3,8.19,8.19,0,0,0,.06-2.77c0-11.4,0-11.53,9.61-11.82,3-.09,4.15-1.18,3.05-5.52C275.67,140.79,272.2,140.62,268.75,140.83Zm116.09,19.06a36.15,36.15,0,0,0-5.1,0c-4.2.59-5.81-1.44-5.48-6.38.28-4.06.06-8.16.06-14.27-2.31,1.9-4.41,2.78-4.46,3.81-.27,5.41-.58,11,.32,16.23.4,2.3,3.45,4.46,5.69,5.65,1.73.92,4.16.66,6.12.14,1.37-.37,2.47-2.08,3.7-3.19C385.4,161.24,385.12,160.57,384.84,159.89Zm63.39-19.56c-1.07,1.22-3,2.37-3.07,3.66-.33,6-.26,12,0,18,0,1.11,1.53,2.14,2.35,3.2.71-1,2-1.95,2-3,.18-6.91.09-13.82.09-20.74Zm26.1-7.84,3.09,3.58,2.12-2.79-3.42-3.18C475.52,130.9,474.92,131.69,474.33,132.49Z"/><polygon class="fe523124-5604-43cb-9ee8-adaa4f3202bd" points="174.09 27.5 157.29 22.18 173.73 22.18 174.09 27.5"/><polygon class="fe523124-5604-43cb-9ee8-adaa4f3202bd" points="174.44 33.53 174.8 38.85 158.01 33.53 174.44 33.53"/><polygon class="fe523124-5604-43cb-9ee8-adaa4f3202bd" points="175.2 44.88 175.56 50.2 158.76 44.88 175.2 44.88"/><polygon class="fe523124-5604-43cb-9ee8-adaa4f3202bd" points="176.11 95.74 159.32 90.42 176.43 90.42 176.11 95.74"/><polygon class="fe523124-5604-43cb-9ee8-adaa4f3202bd" points="176.31 61.56 159.48 56.24 175.95 56.24 176.31 61.56"/><polygon class="fe523124-5604-43cb-9ee8-adaa4f3202bd" points="176.79 84.27 159.99 78.94 177.07 78.94 176.79 84.27"/><polygon class="fe523124-5604-43cb-9ee8-adaa4f3202bd" points="177.07 72.91 160.23 67.59 176.71 67.59 177.07 72.91"/><polygon class="aa96668f-1295-412c-b5f3-0b09ad284c87" points="187.2 21.16 187.98 47.18 188.41 47.18 193.97 21.16 206.68 21.16 191.43 74.98 189.68 95.08 178.18 95.08 179.93 74.98 174.49 21.16 187.2 21.16"/><path d="M212,68.24c-.09,2.45-.15,4.1-.17,5l-12.93-5Zm-.2,11.35c0,1.27,0,2.92.13,5l-12.9-5Zm.82-22.7-.3,5-12.83-5Zm1.15-11.36c-.26,2-.45,3.63-.56,4.73l-12.41-4.73Zm-1.28,45.54a30.12,30.12,0,0,0,.85,4.37l-11.45-4.37Zm4.13-56.89a21.35,21.35,0,0,0-1.34,3.9l-10.08-3.9Zm15.25-3q6.54,0,9.32,4.91T244,51.43q0,5.09-.66,12.3-1.52,17-5.33,24.84t-12,7.8q-6.42,0-9.14-4.91t-2.72-15.19q0-5.33.67-12.54,1.5-17,5.26-24.78T231.86,31.2Zm-4.08,48.34a3.72,3.72,0,0,0,2.63-.83c.58-.55,1-1.78,1.18-3.67l2.3-24.72H230.2a3.89,3.89,0,0,0-2.64.83c-.62.55-1,1.74-1.12,3.55l-2.23,24.84Z"/><path d="M243,90.59h16.73l-.55,5.33Zm17.42-6.26-16.14-5.21H261Zm1.28-23.54v1l-16.41-5.33h16.49C261.75,58.31,261.73,59.77,261.73,60.79Zm1-15.73c-.16,1.26-.33,3-.51,5.32L246,45.06Zm-.62,22.71a24.78,24.78,0,0,0,1.12,5.32l-16.37-5.32Zm3.29-34.06a24.34,24.34,0,0,0-1.59,5l-15.09-5ZM286.54,52.1a17.52,17.52,0,0,0-7-1.89,18.81,18.81,0,0,0-4.3.35l-.3,3.43,3,.71q9.75,2.49,9.75,15.73c0,1-.13,2.94-.37,5.74a63.13,63.13,0,0,1-1.21,8.1A24.16,24.16,0,0,1,284,90.59a22.67,22.67,0,0,1-2.54,3.91,6.57,6.57,0,0,1-3.17,2.07,28,28,0,0,1-8.08.94A21.61,21.61,0,0,1,260,94.79l3-17.5a17.78,17.78,0,0,0,8.27,2.6,24.52,24.52,0,0,0,5-.35l.3-3.79-3.81-.83c-3.27-.71-5.59-2.2-7-4.49s-2.06-5.56-2.06-9.82q0-2.36.3-5.91,1.21-12.66,4.36-17.5t9.59-4.85a25.87,25.87,0,0,1,11.53,2.48Z"/><path d="M300,96.64l-15-3.91,16.3-2Zm2.8-12.76-14.63-4L304,78.27Zm2.66-12.09-14.28-4,15.44-1.34ZM308,60.22l-13.92-4.08,15.06-1.06Zm2.45-11.09L296.82,45l14.66-.81Zm2.32-10.76-13.27-4,14.28-.58Zm9.56,57.72-.24-9.58h-7.63l-1.87,9.58H302.09l13.43-62.56h15l2.36,62.56Zm-.24-26.49v-18h-.85l-3.57,18Z"/><path class="ee29d83e-be28-4a2d-b3ed-b9cefc4ffbf2" d="M343.25,74.18q2.38-2.84,7.57-2.84c3.45,0,5.79.59,7,1.77a6.77,6.77,0,0,1,1.82,5.09,39.2,39.2,0,0,1-.37,5.79q-.93,7-3.32,9.7c-1.58,1.82-4.11,2.72-7.56,2.72s-5.79-.57-7-1.71a6.51,6.51,0,0,1-1.82-5,39,39,0,0,1,.37-5.74Q340.88,77,343.25,74.18Z"/><path d="M364.42,73.41l-25.65-5.33h26.14Zm1-11.36-25.66-5.32h26.15Zm1-11.35-25.66-5.32H367Zm1-11.36L341.85,34h26.08Zm1-11.35-25.6-5.32H369Zm10.65,42.34a8.63,8.63,0,0,1-.24-2.3c0-1,0-2.11.12-3.38h-.48l-2.85,31.94h-11.5l6.66-73.92h10.83l6.17,26.25a10.76,10.76,0,0,1,.19,2.31c0,1,0,2.11-.12,3.37h.48l2.9-31.93h11.5l-6.66,73.92H385.3Z"/><path d="M413.37,97l-14.64-.49,15.12-5Zm1-11.73-14.6-.78,15.08-4.65Zm1-11.59-14.56-1.07,15-4.35Zm1-11.56-14.51-1.35,15-4.06Zm1-11.54L403,49l14.95-3.76Zm1-11.51L404,37.17l14.87-3.46Zm1-11.48-14.36-2.22,14.83-3.16Zm22.32,41h-11.5l-.79,9h14.1l-1.69,18.92h-25.6l6.66-73.92h25.29l-3.15,18.93h-12.4l-.85,9.93h11.5Z"/><path d="M456.55,39.58l-13.89-5.32h14.12Zm.53-11.35-13.86-5.32h14.12Zm1.18,68.24-13.89-5.32h14.15ZM458.81,85l-13.89-5.33h14.16Zm.56-11.36-13.89-5.32h14.15Zm.56-11.35L446,57h14.15Zm.55-11.36-13.89-5.32h14.16ZM495.2,41.2H484.14l-6.49,55H462.42l6.49-55h-11l2.32-18.93h37.27Z"/></g></svg>